<svg viewBox="0 0 1890 400" xmlns="http://www.w3.org/2000/svg"><g><g><g><g><g><line x1="51.5625" y1="361" x2="46.5625" y2="361" style="visibility: inherit;" fill="rgb(0, 0, 0)" stroke="rgb(204, 204, 204)" stroke-width="1px"></line><line x1="51.5625" y1="315.875" x2="46.5625" y2="315.875" style="visibility: inherit;" fill="rgb(0, 0, 0)" stroke="rgb(204, 204, 204)" stroke-width="1px"></line><line x1="51.5625" y1="270.75" x2="46.5625" y2="270.75" style="visibility: inherit;" fill="rgb(0, 0, 0)" stroke="rgb(204, 204, 204)" stroke-width="1px"></line><line x1="51.5625" y1="225.62499999999997" x2="46.5625" y2="225.62499999999997" style="visibility: inherit;" fill="rgb(0, 0, 0)" stroke="rgb(204, 204, 204)" stroke-width="1px"></line><line x1="51.5625" y1="180.49999999999997" x2="46.5625" y2="180.49999999999997" style="visibility: inherit;" fill="rgb(0, 0, 0)" stroke="rgb(204, 204, 204)" stroke-width="1px"></line><line x1="51.5625" y1="135.375" x2="46.5625" y2="135.375" style="visibility: inherit;" fill="rgb(0, 0, 0)" stroke="rgb(204, 204, 204)" stroke-width="1px"></line><line x1="51.5625" y1="90.25" x2="46.5625" y2="90.25" style="visibility: inherit;" fill="rgb(0, 0, 0)" stroke="rgb(204, 204, 204)" stroke-width="1px"></line><line x1="51.5625" y1="45.125" x2="46.5625" y2="45.125" style="visibility: inherit;" fill="rgb(0, 0, 0)" stroke="rgb(204, 204, 204)" stroke-width="1px"></line><line x1="51.5625" y1="0" x2="46.5625" y2="0" style="visibility: inherit;" fill="rgb(0, 0, 0)" stroke="rgb(204, 204, 204)" stroke-width="1px"></line></g><g transform="translate(41.5625, 0)"><text x="0" y="361" dx="0em" dy="0.3em" style="text-anchor: end; visibility: hidden; font-family: Roboto, sans-serif; font-size: 12px; font-weight: 200;" fill="rgb(33, 33, 33)" stroke="none" stroke-width="1px">-0.2</text><text x="0" y="315.875" dx="0em" dy="0.3em" style="text-anchor: end; visibility: inherit; font-family: Roboto, sans-serif; font-size: 12px; font-weight: 200;" fill="rgb(33, 33, 33)" stroke="none" stroke-width="1px">0</text><text x="0" y="270.75" dx="0em" dy="0.3em" style="text-anchor: end; visibility: inherit; font-family: Roboto, sans-serif; font-size: 12px; font-weight: 200;" fill="rgb(33, 33, 33)" stroke="none" stroke-width="1px">0.2</text><text x="0" y="225.62499999999997" dx="0em" dy="0.3em" style="text-anchor: end; visibility: inherit; font-family: Roboto, sans-serif; font-size: 12px; font-weight: 200;" fill="rgb(33, 33, 33)" stroke="none" stroke-width="1px">0.4</text><text x="0" y="180.49999999999997" dx="0em" dy="0.3em" style="text-anchor: end; visibility: inherit; font-family: Roboto, sans-serif; font-size: 12px; font-weight: 200;" fill="rgb(33, 33, 33)" stroke="none" stroke-width="1px">0.6</text><text x="0" y="135.375" dx="0em" dy="0.3em" style="text-anchor: end; visibility: inherit; font-family: Roboto, sans-serif; font-size: 12px; font-weight: 200;" fill="rgb(33, 33, 33)" stroke="none" stroke-width="1px">0.8</text><text x="0" y="90.25" dx="0em" dy="0.3em" style="text-anchor: end; visibility: inherit; font-family: Roboto, sans-serif; font-size: 12px; font-weight: 200;" fill="rgb(33, 33, 33)" stroke="none" stroke-width="1px">1</text><text x="0" y="45.125" dx="0em" dy="0.3em" style="text-anchor: end; visibility: inherit; font-family: Roboto, sans-serif; font-size: 12px; font-weight: 200;" fill="rgb(33, 33, 33)" stroke="none" stroke-width="1px">1.2</text><text x="0" y="0" dx="0em" dy="0.3em" style="text-anchor: end; visibility: hidden; font-family: Roboto, sans-serif; font-size: 12px; font-weight: 200;" fill="rgb(33, 33, 33)" stroke="none" stroke-width="1px">1.4</text></g><line x1="51.5625" y1="0" x2="51.5625" y2="361" fill="rgb(0, 0, 0)" stroke="rgb(204, 204, 204)" stroke-width="1px"></line></g></g><g transform="translate(51, 0)" clip-path="url(#clip_0)"><clipPath id="clip_0"><rect width="1838" height="360"></rect></clipPath><g><g><g><line x1="0" y1="0" x2="0" y2="361" fill="rgb(0, 0, 0)" stroke="rgb(66, 66, 66)" stroke-width="1px" opacity="0.25"></line><line x1="204.27083333333331" y1="0" x2="204.27083333333331" y2="361" fill="rgb(0, 0, 0)" stroke="rgb(66, 66, 66)" stroke-width="1px" opacity="0.25"></line><line x1="408.54166666666663" y1="0" x2="408.54166666666663" y2="361" fill="rgb(0, 0, 0)" stroke="rgb(66, 66, 66)" stroke-width="1px" opacity="0.25"></line><line x1="612.8125" y1="0" x2="612.8125" y2="361" fill="rgb(0, 0, 0)" stroke="rgb(66, 66, 66)" stroke-width="1px" opacity="0.25"></line><line x1="817.0833333333333" y1="0" x2="817.0833333333333" y2="361" fill="rgb(0, 0, 0)" stroke="rgb(66, 66, 66)" stroke-width="1px" opacity="0.25"></line><line x1="1021.3541666666667" y1="0" x2="1021.3541666666667" y2="361" fill="rgb(0, 0, 0)" stroke="rgb(66, 66, 66)" stroke-width="1px" opacity="0.25"></line><line x1="1225.625" y1="0" x2="1225.625" y2="361" fill="rgb(0, 0, 0)" stroke="rgb(66, 66, 66)" stroke-width="1px" opacity="0.25"></line><line x1="1429.8958333333333" y1="0" x2="1429.8958333333333" y2="361" fill="rgb(0, 0, 0)" stroke="rgb(66, 66, 66)" stroke-width="1px" opacity="0.25"></line><line x1="1634.1666666666665" y1="0" x2="1634.1666666666665" y2="361" fill="rgb(0, 0, 0)" stroke="rgb(66, 66, 66)" stroke-width="1px" opacity="0.25"></line><line x1="1838.4375" y1="0" x2="1838.4375" y2="361" fill="rgb(0, 0, 0)" stroke="rgb(66, 66, 66)" stroke-width="1px" opacity="0.25"></line></g><g><line x1="0" y1="361" x2="1838.4375" y2="361" fill="rgb(0, 0, 0)" stroke="rgb(66, 66, 66)" stroke-width="1px" opacity="0.25"></line><line x1="0" y1="315.875" x2="1838.4375" y2="315.875" fill="rgb(0, 0, 0)" stroke="rgb(66, 66, 66)" stroke-width="1px" opacity="0.25"></line><line x1="0" y1="270.75" x2="1838.4375" y2="270.75" fill="rgb(0, 0, 0)" stroke="rgb(66, 66, 66)" stroke-width="1px" opacity="0.25"></line><line x1="0" y1="225.62499999999997" x2="1838.4375" y2="225.62499999999997" fill="rgb(0, 0, 0)" stroke="rgb(66, 66, 66)" stroke-width="1px" opacity="0.25"></line><line x1="0" y1="180.49999999999997" x2="1838.4375" y2="180.49999999999997" fill="rgb(0, 0, 0)" stroke="rgb(66, 66, 66)" stroke-width="1px" opacity="0.25"></line><line x1="0" y1="135.375" x2="1838.4375" y2="135.375" fill="rgb(0, 0, 0)" stroke="rgb(66, 66, 66)" stroke-width="1px" opacity="0.25"></line><line x1="0" y1="90.25" x2="1838.4375" y2="90.25" fill="rgb(0, 0, 0)" stroke="rgb(66, 66, 66)" stroke-width="1px" opacity="0.25"></line><line x1="0" y1="45.125" x2="1838.4375" y2="45.125" fill="rgb(0, 0, 0)" stroke="rgb(66, 66, 66)" stroke-width="1px" opacity="0.25"></line><line x1="0" y1="0" x2="1838.4375" y2="0" fill="rgb(0, 0, 0)" stroke="rgb(66, 66, 66)" stroke-width="1px" opacity="0.25"></line></g></g></g><g><g><line x1="0" y1="315.875" x2="1838.4375" y2="315.875" fill="rgb(0, 0, 0)" stroke="rgb(153, 153, 153)" stroke-width="1.5px"></line></g></g><g><g><line x1="-7752146.215277777" y1="0" x2="-7752146.215277777" y2="361" fill="rgb(0, 0, 0)" stroke="rgb(153, 153, 153)" stroke-width="1.5px"></line></g></g><g><g><g><g><g><path stroke="rgb(255, 112, 67)" stroke-width="2px" d="M203.15995463686343,43.07304793596268L203.3780279369213,21.849715778260055L203.86155875048226,19.63292436907784L204.0415251374421,23.89446704435989L204.4077940899884,24.83720025882455L205.3056968002508,19.366016729232985L207.44313100405094,23.548411191567652L208.16679353057484,18.16131930273789L208.76525033034335,19.77988273220123L209.6720662471065,26.319313289235623L209.9228276089892,24.2032829837584L211.67018490547838,23.17613136811321L212.21449102044753,17.79497436462917L213.2930646629051,23.558493144390045L214.99011080970294,19.79686829059243L220.97542118055554,17.610593676548618L221.21305625,13.593141792558518L222.8887485291281,17.09078650031678L224.5499385247878,15.52966231757278L226.27510028211805,24.021827711333447L228.12934985773535,24.514100758847764L231.77655830198688,22.474485012980935L233.80467451051308,20.08808375953589L233.90922618634258,20.920642138506576L235.67041432050542,20.19432791396989L238.02447963445218,16.63732976054719L239.28395117669754,23.203238701843087L241.46773878279322,23.161960201957644L241.94001105806328,24.78929865596081L242.89859922839506,34.89849187476713L243.1490154103974,36.93072007203123L243.37910853587962,27.47189845645854L244.1434360894097,19.68424123814013L245.03635496961803,38.384042503206786L245.62336409143518,33.57859024422173L246.55146767698687,32.96081670456726L246.74503320553626,31.30555036024354L248.28252586323305,30.935062171737925L248.93353511766975,26.308001554369056L249.63632608265817,34.47554515197939L250.18056127025463,31.274942403595077L251.16226703559028,39.47845070396877L252.46481513551313,29.052765962884575L252.5640094304591,32.69379273632636L253.05050973668983,30.627224116894663L255.73821741174766,25.913098921924917L255.96720879870756,29.995829090819743L255.98328094135803,27.27743781198191L256.104495821277,33.76448387800797L256.29192849633483,36.597721620368915L257.4652043668017,26.88902956780516L258.61433183111495,34.595880695725086L260.4749033998842,40.37859616253713L262.1324950135031,34.837626074747206L262.21099270109954,37.44143849244163L262.63273158757715,23.32985535860368L264.75489276379244,22.89990373146434L266.15458772183644,22.808667522180365L266.5710117838542,24.587325880010987L266.76181114486883,26.43837361365019L267.18527593074845,26.22644238956665L267.81178214216817,24.185841269745257L268.3997700617284,26.593986505433488L269.6748456259645,33.240451651165394L272.81950999228394,32.056244560915204L274.4626938922646,29.387810231102723L278.49352958140435,21.630143820999468L279.6535940465856,16.98976864500669L280.6663754581404,25.82919047713334L280.67959632040896,27.108732924766397L282.15464451919365,26.10317910865052L282.3302843364197,27.301135770252863L282.9163477599344,29.052701285205302L283.0828332175926,22.702854523527275L283.4084655140818,21.554324323726526L285.32489002459494,20.916751127330357L286.4531317418981,15.988246703054175L291.89537486255784,17.052040987804155L295.06195105854556,31.946621793672612L295.5218205005787,43.30615953467339L296.44011719473383,45.62353718439544L301.4891531467014,58.23396318111419L302.43823232060186,54.285333827646696L304.5756097825038,47.955421297140035L305.3445807146991,42.886177254851404L305.57975224006555,46.71685000426486L305.8783848500193,44.14194944597987L306.16237805025077,34.45702769844994L307.47590097897375,36.60184530346494L308.6304520230517,26.626892775441306L309.77953220244984,32.1322926512432L310.2714655454282,30.914249813813623L310.29724055266206,30.291799179338344L311.24221066743826,29.201532803757384L312.41516500048226,33.433104412037885L312.9162148750965,36.191219131972474L312.92679723910106,38.420396967537144L313.5472651668596,32.53309891439907L324.3469222704475,30.184062378866866L326.2290132040895,34.869839897001356L327.62436740692516,40.594513856702854L328.2517342038002,42.44149621305326L328.2920966073495,43.48178424641805L331.6497275028935,40.300977603268144L332.460370630787,39.74394435314488L332.57474338348766,46.27554147577116L335.16977735339503,37.6368189853007L336.55814757426697,30.76258602317702L340.5789021195023,39.99222320305921L342.37833429301696,47.18625038871619L343.031386255787,45.40065122893121L346.65702332175925,42.976093223736115L346.8901001253858,40.87080229973288L347.2730228250386,31.825840321222L349.10960202787425,30.343666458126688L352.00324969376925,30.161554940006585L354.3418953968943,32.12340759963583L358.7942666473765,40.26549351589309L359.57080316599155,37.86085796427673L360.04843755063655,42.27467867626997L362.0265688753858,37.09310410530729L364.22397926552856,34.897467859247854L366.73037766203703,35.96076741198917L366.9400909891011,30.887578879837413L366.9973672067901,34.30876007656223L367.25973701533565,30.790099036433787L370.854586873071,29.337225366431213L373.40156991222995,30.075858147348963L373.5306388165509,25.20080670231884L378.8328051046489,25.031021186428017L380.3586467592593,28.049882061017342L380.48967798755785,23.960083366104268L381.71055558207945,17.10164350710499L384.21281654851464,27.127509369585457L388.4451285325039,26.3324409317357L389.5597238233024,27.296916741378045L391.81506296296294,23.5062527404883L391.94194257571377,29.745211480631422L395.47430541811343,26.89883496436106L397.8212874517747,29.6758246634029L398.25130119839895,30.35762773090988L398.3839684847608,30.24088694244083L398.9075732638889,34.097098122158364L399.22306767457565,47.366118090724115L400.4771345510224,36.86843498356147L400.67099797453704,41.18872108813889L400.73492245129245,37.737916922708656L402.0392484640239,37.92268620465257L403.9137785397377,31.194761525060706L405.30013915171685,35.63141701820382L407.2983334659529,42.64140756381006L409.0909471547068,38.4664841560311L414.97163019386574,37.13258037470694L417.1166867259838,38.080793000189225L420.9368161048418,37.874066138084295L421.70245817901235,34.61420351938898L422.39313474874615,39.59565265487475L423.28833749035493,37.16364638557502L423.555133166956,23.74265126572958L425.1271107132523,38.18548276917619L425.68670404128085,35.41065378494709L428.21541146074463,37.78220721203064L430.46832488425923,40.86539795742572L430.85233986545137,40.48292050489523L431.2605883656443,39.979238948441015L431.91446308593754,36.9981366691242L434.19199303626544,38.254394453938104L435.55119792148923,33.12433020795768L437.9307829041281,44.41245607187179L439.2333120900849,50.09959084758675L440.0664770230517,50.50618533532012L441.2405661940586,56.456021932389234L441.43411280864194,49.9606556061415L442.3466880280671,55.862111671666334L444.2205513864776,52.92623499418392L446.60679408516586,51.971444815106786L447.75266361882717,57.1075848563876L448.15201782648535,55.78174246834515L448.2712089120371,55.09013845981845L448.3786922526042,53.41603180093648L449.0227411675347,54.06617848099098L450.1219735894097,46.034772673599555L450.36996405526617,42.58020211829188L451.1341402970679,42.51545371942574L454.6529985677083,42.54669046340349L456.5360919415509,50.53926931978312L457.68713917341825,39.34817402421215L458.0672862485532,45.73994893707045L459.85807001109185,48.1548597019573L462.72154990113813,49.66551860650348L463.8429022063079,49.328453226122804L464.13915165653935,44.742592065275126L464.48463888888887,47.18499403386437L464.5485397231867,45.07343273102942L465.66474270109956,52.03148964160392L465.748990234375,49.39891514309059L465.8783239342207,48.02440025774456L466.6696700882523,50.58330316015845L466.759946448206,45.38140162675385L467.70573459201387,41.79744920194561L467.7861473186728,38.60139013498211L470.2898883029514,30.07256718237336L470.43399853877315,31.422521060555027L470.6875213396991,30.315593283929346L472.9433096860533,72.74316355981722L473.13997237654314,82.68709588991666L473.70812427420907,97.2376200422139L473.71874446614584,115.40694158950372L474.4300750868056,118.79408304769288L474.475043041088,126.94952847911517L475.21547279851467,124.90639183788656L477.60460933400844,122.79657430803093L477.76176074942134,125.7794736763636L480.4143546465085,129.43633570733067L483.91896124373073,146.41916009590534L484.5464746238426,164.5716577251402L487.21555677083336,166.6299739205792L488.8622161120756,161.34219330037715L490.0142137707369,151.18825326731655L490.74982519531244,159.75974824642773L491.88174095052085,161.64462314504198L492.2540434582369,153.04049918872167L493.4312912615741,155.49333280992528L494.43709341965666,156.8422465729773L495.6665768687307,153.4340903596674L496.918340969811,151.24649095028198L497.024060583044,154.8371655111049L497.39237697241515,152.53496908488881L497.65127606819055,157.78231540986044L497.6683364655671,159.44032812204773L500.8052508342978,172.14262029975953L501.2102461323302,185.2458634162315L501.5589250964506,191.96558616114453L502.14402390769675,194.8230686291243L502.7598626422647,202.31561918158025L504.81021221788194,211.39836235868634L505.94508328028553,224.11553715899967L506.39527350019296,219.70214581619788L507.21340655864196,215.04725498640911L507.82322119502317,218.07988155627L509.0734721788195,222.20903110408403L510.21606013937117,217.39466154026715L511.115490152392,215.0354079194546L511.502919104456,216.14708366237858L511.7144623577354,214.2804888638927L515.8607063392169,214.2982401112467L517.4089232156637,210.66980017644562L518.3837253833913,212.77891344742991L518.4870571084105,214.4783150352979L518.9996586877894,218.5525380645016L520.4720447458527,217.66428306176047L521.1924587987075,218.67006013268625L522.9602857349537,210.31288624516876L524.5901400173611,204.88455524015555L525.5800922718944,214.57194437907245L527.987197075135,218.34051641031542L528.1374354359568,219.44712623226314L528.3014242500965,215.91748886151535L529.5441663893712,218.72558957225175L529.7626132402585,225.19145127667028L530.9094426576967,224.6371588602493L532.8097335551697,224.49583492182813L534.1728016179591,234.13724617730762L534.2010212553048,240.78560919577538L535.4142670645255,243.76835337685125L538.8362338155864,246.03488071333157L544.6433557122879,249.2470150192433L545.9949288122107,254.91407865009745L546.0883638044946,260.91012271488495L546.247855823206,265.49476508141925L546.5122494261188,270.12659067916235L549.5220950424383,271.4373313663732L549.6258523316936,274.82062370459937L550.5324270953897,280.39753822712765L552.9224951437114,283.19760132019655L554.6121884862075,282.677333120952L558.670903361304,275.03494979533843L563.5943553071952,277.3144632487345L564.5530096764082,277.4695430248421L567.3397887056327,279.1897899719509L575.3684221137154,278.7272494593589L575.3735383415316,279.4616134675342L575.397407766686,279.8131251526297L575.5548807195216,279.7727485908325L577.520803079186,287.6791414039373L581.5346398413387,284.56004017498293L581.9519244888116,286.0104942220623L582.2518858048804,284.20317697253194L583.4575376567323,280.91097287661063L584.0714944516783,281.1135942122958L584.1783536313657,279.56109182433755L587.0356108265818,279.7765205740067L587.1056539713542,280.61120660981476L587.978642259838,281.51760316015543L588.6826957320601,281.6282080827078L589.4866480444637,280.1074853452403L592.1031020809221,280.2013071516649L593.8138513961227,279.2266282745807L593.83216484375,279.99202124059497L595.8783107904128,277.8308306124233L596.219282313368,276.1446158013861L597.8563806447723,273.51898294796496L598.9921312065973,273.332417916039L599.5806629026813,277.6487535702846L600.5623308400849,275.15858795037803L601.4998583092207,274.5995253049859L602.7077514660493,273.99039834698857L605.0179978491512,274.29385070568657L605.2692840735918,275.7740033728579L606.2624848017939,275.99024513861536L606.8164039400077,275.637786460336L607.1442775414738,272.2734714842972L609.6234918402778,272.40928497380963L609.702292151331,272.76433691295927L610.7508351441936,271.9432256742369L611.3768495924961,272.4831261697457L611.3801311656057,273.39695481928266L611.4843660325039,273.2553048348663L611.6318334972993,275.2592729714197L614.5160667365933,280.26715471177283L619.4691805097416,280.3749820706515L620.8198599247685,278.6321302288056L622.970633203125,277.36637637533227L624.7478934799383,283.46943522918735L630.3261043740355,277.00076452279507L631.6151431737076,277.07879633296324L632.6000453993056,274.5533831729917L634.051621366223,276.0293344377614L635.5103420838157,278.80751631995935L636.4408761140047,280.0402498182641L642.2386876109182,278.3882745309123L643.5659089795524,283.32530572027525L652.4964832296489,282.68261179613074L652.9200945987654,283.70109940185665L653.3642654489777,280.9219625954417L654.1319076750578,279.7056117159562L657.0126702015818,280.8509004195907L657.6218512201003,280.09022987408565L658.0228556712963,280.30577761489525L660.8965774739584,280.53228176093995L663.5435491946374,281.59172521661435L663.8179766565394,281.7136127273263L665.716224845679,280.8558159881786L665.8183460768711,280.4268989972074L666.204417951871,280.1608010507129L668.4436423924576,279.9850287097064L669.9747374011381,277.14453429187313L670.0483789279514,278.8378049653504L670.4725435305749,278.3523581924438L670.8386848138503,279.5757695740963L672.9662648413387,281.5225799116528L673.4685393952547,280.0426482901854L673.4889806640625,277.9276415187999L675.2473033323688,279.6582652732931L676.7333547309028,280.64640852843235L678.2260496600117,282.0509646583288L678.574931949267,278.68965282366435L678.9996214144483,279.9103904509145L681.7224948808835,284.9318788906007L686.1287538821374,286.0449949115351L687.9858358241705,282.2820278876784L693.8130159818674,281.69094287017134L694.2007759283372,279.8729357464144L695.2861396846065,280.75011827045176L696.7098506510417,279.3882318889907L697.9538836684992,281.77844039137483L698.0613717375578,282.319119808802L701.6926026089892,282.5298788476252L702.5592168909144,284.0786958241126L705.3804524377894,283.30206857028634L706.4793680507331,281.81066405811055L708.7376246696566,285.72531316891286L709.0129931013696,282.52472455387704L714.976207231385,278.63656470916425L715.4149166739004,279.0724275331472L715.6325029393325,280.4239952708129L716.9876082224151,280.0239842899986L718.411555613426,280.43133653942107L719.8306373866706,280.2645824537346L725.9428982976466,284.76924291021015L726.0688605830439,288.0175809285528L729.6710065031829,288.11929543481386L732.142423519483,288.2102626242822L732.6028509235147,285.4185846609791L733.0196579933448,286.9427277574234L733.4823456163194,286.1880424367888L738.2216228178047,284.4490583610994L739.1360610628858,288.5867053327454L741.5229326509452,288.61044940071514L744.2535041015625,285.0945069078414L746.7648579571759,284.5449696194906L747.3702278115355,284.09290948700465L751.3995125554591,284.25565193356556L751.8064938199267,283.9713036859864L752.0838955029899,283.03908067405L754.0522341218172,283.4819521852355L755.0464372902198,284.272850382719L755.1791376760224,285.67802741956535L755.3373199025849,286.00786729609865L755.8380293258102,285.0858013693019L757.4085504967206,286.40675155793133L761.8138212432484,286.66194933208226L762.5872038580247,285.90936572350296L762.73498340326,284.66059854010274L766.2408619646991,284.13322202635845L768.3932334731867,285.15562719927937L768.8500104817708,285.78860962266106L769.1481182291667,287.1193171395115L772.4926322892553,287.2740521675819L772.7805595944252,285.7311257824794L773.2924235291281,285.446505719556L773.5129651017554,286.05646490341877L773.6321751012732,285.8051795537022L774.3818490596066,286.05604262679407L776.983408347801,286.16849079158766L777.4249879846644,286.62549372264124L777.6244641276041,285.33378524825457L778.1188279152199,285.8567373130356L778.1840479986497,285.9923709862545L780.5290535228587,286.59407104010415L782.7937125192901,287.2767558101807L784.4236046296296,285.96957160375337L785.1585256944445,285.32029572183285L787.0530289183064,284.77994179946296L787.221022764757,286.6619537527657L790.8326587673612,285.14193771153555L791.43758887201,284.91878084322303L792.0786919367284,282.78186528338694L792.5771931544174,283.0731565944313L792.9897729528357,285.4564854687798L793.4326576533565,285.1956652020272L793.7143953631365,284.8172492958615L793.9257447482639,283.3877705241072L794.8177321156443,284.74102709671723L800.7753524402005,285.6522858823298L800.8305008367091,284.938211688954L801.7145301528743,284.2531069580212L801.8850868417246,286.4914535781504L802.1114681013696,285.8275864206373L803.5131868537809,285.5487059123076L804.469415506848,284.4073014830195L809.245135192419,284.9472340239749L809.2903064718364,286.5578739349559L809.6495347005208,288.7126755903476L811.3831935570987,289.06144867306426L812.2763583188657,288.7575487812451L812.5361274570795,285.97641802668363L816.9367690104167,284.4999071120508L817.0825815031828,286.0510565502262L817.5251446662809,286.7029691780244L818.6017843557099,287.0759411972659L821.3680417317709,286.51559605310996L823.1223309968171,287.75088387219705L828.6259404803241,287.84456404376374L829.2343460262346,286.60043514452L829.7065521026234,286.78652996208183L830.8397634645062,285.3480170070612L831.3994135344328,286.10821154593674L835.040508039159,286.0575728145857L835.8710864872685,286.5319780129984L841.8908959321951,286.67757485766316L844.4226012152777,292.3745614627057L845.2510234712577,297.3417033998207L847.7817972415123,300.525819586652L848.435317324942,303.4212311663891L848.9407599681713,304.37036079003275L849.2923611400463,306.0219408624868L849.3901463445217,307.74542240826094L849.5289039279513,308.9111680059352L853.1577185402199,303.9347706265562L856.9507111062885,300.7877209795928L856.9704241874035,296.9598858761523L858.8498766227816,295.37433622022434L858.9686468725887,293.8689801400168L859.9433828414352,292.7243822828815L859.968197964892,290.4490476246899L860.5060591459297,290.1701850081519L863.3898951919367,289.5792087899522L864.0156022882909,291.9197031599662L864.5102261429398,295.2428631753336L865.4929721764081,292.87395331999073L868.5343095461998,294.93343530686025L868.992802997203,298.02627010817406L870.5429018132717,300.28155911428297L871.5198980010609,298.9406820942084L872.5781060305749,297.48158367395627L876.1965179615162,296.27925798115393L879.0675114245756,296.25911114897735L880.089934230324,297.4065116457069L880.5571517481674,297.55451296899474L880.9873782769098,297.48167692451887L881.4881917269483,299.8665699622413L883.8518984350887,299.6686823424452L886.1434625482253,297.55069803230924L890.5319613353588,298.29910382681146L893.655895994888,297.86078992342203L894.9846115668403,297.89472751720353L897.5763592351466,298.6456300486823L899.5974110773534,299.4725205455754L900.8401815875771,298.6184376763736L900.9476554711612,301.53048990689615L901.752458912037,301.50277484391233L904.5190141830633,301.6892786779233L904.7728065080054,301.12891328542725L907.1884225959684,301.61009455864604L909.5095586950231,302.00162382736187L910.2581971137153,301.42386200390666L910.8999243393133,302.96722462646375L914.0480830608603,302.1051866602976L915.1783438440393,303.35267671864665L916.8038242717978,303.5050238082865L916.8134467520255,302.0864040210359L918.476055295139,301.4389106114149L922.7393956404321,300.7352938794418L924.9681748432678,301.1598197708347L926.1520898196374,301.61928501287537L927.0385448519484,301.36197106665173L927.3495046392746,300.4254965049475L928.10340586902,299.8983133692277L929.6198992959105,301.14849477356734L930.6667116608797,300.62811368285327L933.5510489269868,300.2469457919247L934.0306267216436,303.50900794415145L934.9998870973186,304.25920176204863L935.6819436270254,306.3276940905242L937.0761109784916,307.5810840961223L939.7968093388309,308.3413071571075L940.6015607663,308.9546998737071L941.8513578149112,309.2203744983013L943.6109146195023,310.0733276542585L944.0017528139468,307.9329239725602L945.0094416401428,308.7913554327083L946.0650868272569,309.1411495993653L946.0990326678241,309.5752857858268L947.6133178891782,310.25185554594856L948.0844174985532,310.44666550437523L950.1331924864969,310.5995816935385L951.1089639949845,310.8705732129835L951.2251052035108,310.6509628309354L951.5852838589893,310.98090183787474L952.8320452160493,311.4842860291303L955.475016632909,311.79840450050494L955.7826097342785,312.2324472169767L957.6733348934221,312.04967249788757L959.2750215518905,312.03557547874357L960.107113117284,311.94375068711594L961.510103833912,312.12095514191753L963.4998483338155,312.0023799053604L964.2973367983218,311.88304184867707L964.5138922526041,312.13895567467506L966.2559630955826,312.03650031669844L970.433750843943,311.7430051901121L970.6693526620371,311.6379247176334L972.6056841218171,312.0349340811289L973.89816526331,311.832160522583L977.8618989293982,311.946929237829L982.178193651138,312.3546384224696L983.3341396002121,312.5420597440524L986.8330247227045,311.4543615655284L987.2101928481867,310.9375554066174L988.3530597897377,309.3390207630841L991.6423970823688,309.74483758631084L992.3811813247493,310.2448158367974L992.5260575761961,310.5282819692469L998.2095956187308,309.56821935329424L998.7856299117477,308.5946923928323L1001.2870539351852,308.36118439375895L1002.7485266348378,308.16617799531406L1007.87852381848,309.1894672209668L1008.8715543209876,310.05262038623835L1009.8595300660686,310.63431708748715L1010.6034778211805,311.14005062031487L1011.525405996817,310.57526049546084L1011.9810576244213,309.8702004733158L1013.6562108555169,309.23924207960505L1016.6501309124229,310.14710842501665L1016.8717458526236,310.4852161689352L1018.6608841001158,309.1644360059513L1020.9973594256365,308.16935786905634L1023.6521378858025,308.31172944108687L1024.6525826630016,309.19396738807905L1030.2975078438465,308.82445434083337L1031.1803172092013,309.27174424742725L1033.220434329186,308.78751942351806L1035.1918937524113,307.24230101500484L1036.0978632691938,307.3126433321962L1041.4688243803048,307.0168662130482L1041.7237799141587,307.06903847442055L1042.8097725597993,306.9244728008759L1043.44794395978,306.8766948189643L1044.446946547068,307.0082158146769L1045.7871807243441,307.10385939655686L1047.6737448109568,306.5476503656765L1051.8552586106289,305.8970167505662L1054.9035846908757,305.92634116035134L1056.6906802300346,306.53255723268956L1061.3225970317324,306.5217565528272L1062.5804892578124,307.0260253178174L1062.5954643904322,307.0266650822698L1065.8374411120758,306.61564910977L1067.9072295163,306.34809397581444L1070.1914928385418,305.8384424148847L1071.0795271870177,305.5981554185563L1071.1915640649113,305.7351920970282L1072.7946456283757,307.6288566507754L1072.9687014009453,308.94868097014484L1074.2032632499036,309.91875836818906L1075.0583683834877,310.65700172658296L1076.1909697699652,311.1390190153062L1077.292017932581,311.71971975345417L1078.1410469545717,311.82436280466493L1085.2799721281829,310.6430401891438L1088.1463269410688,309.3231544750998L1090.8045430145642,308.51322951370094L1091.6975848355517,307.8529290268796L1093.1743589337384,307.83041145723655L1093.6732195167824,307.16008523171575L1094.2620822072722,307.57721831279696L1095.0893932677468,307.93837800684827L1095.5521376326196,307.52611110271744L1096.1903846884645,307.26693526708306L1098.4331744116512,306.81888471363845L1100.947918595679,305.5305676148571L1102.4120297935956,306.04024616351353L1106.7810046392747,305.29450705085657L1108.226017459973,305.71151690053676L1108.2889111255788,306.45345223837245L1108.847837736304,306.3758819060447L1109.536466869213,305.73241870925744L1110.449945230517,305.87651265336103L1110.7217909360531,306.20790964307616L1111.9274758873457,306.1329846778621L1117.6707111352239,306.37721851246386L1117.9464767602237,304.6814344223075L1121.2017027150848,305.3946293417616L1122.224622012442,305.47661190405046L1122.844602905575,305.9188150345967L1123.3217076991705,305.2227125901054L1123.3769884934413,305.98828653515943L1124.7221875868056,305.91846975074645L1134.0634407817322,305.74879322209125L1134.8154411578896,305.80629095874684L1134.9757748480904,305.8760499375057L1141.51817244647,305.9722453498496L1145.2119423466436,306.01070503745115L1145.5259661964699,306.40657209239356L1145.8343962408371,306.5317678745868L1145.8787967761382,306.8053042032815L1147.9922906274112,308.06406581908817L1148.7335715133102,307.8484331180682L1151.0129739462768,307.5929597529399L1151.130368205054,306.946384574116L1151.7379084370177,306.5469416872239L1153.5034798828126,306.1326668568582L1156.32566112799,308.0225752705197L1156.7641577883874,307.8019039295114L1158.4616484133874,307.6139702367416L1158.5923675612462,307.86856167483916L1158.9715216531636,309.03936894395054L1160.4843977840471,308.9133769956483L1161.7042965808255,308.7868615174869L1168.007640562307,310.00454973997927L1169.4927793619793,310.7467093895178L1170.345326381655,311.55614650847684L1171.1137724512923,311.8708188749088L1171.761504861111,312.06464779936465L1172.483975807774,312.5680814713944L1173.12438378424,312.92464743707484L1174.8855293619793,313.0360933635902L1175.466103006848,313.1398154046977L1175.616908786651,313.1904393640165L1175.821728125,312.6581586850587L1175.9383752821182,312.834277577293L1176.4433592616706,313.04241570433095L1177.999907740162,312.9682340919695L1186.1908040629824,312.46190665798156L1186.6802596764082,311.45296591795966L1186.8681368296682,310.9990465570336L1189.3161903694058,311.5816225560127L1189.32617694348,311.9400230433593L1189.6065670331789,312.35135315539446L1190.478401569734,312.4016680301841L1192.84509668451,312.60079572593986L1193.048313064236,312.74661451502897L1193.4486791690779,312.8843814316851L1193.7052707609953,312.83522102436234L1195.1870334177277,312.9324215566985L1195.7730542848187,312.97367457779296L1198.683289498939,313.00872433094287L1198.7015414761765,313.0272061918115L1199.2771407479745,313.07771070925634L1201.5739298442322,311.89549309430566L1202.0251319613233,311.19307826684053L1204.8120670307678,309.69527859140874L1205.0319277006172,308.9802961028449L1208.2752662278165,309.83824423567876L1208.288572202932,310.7260884279212L1209.8661530116706,311.315968402134L1211.942069540895,312.04047688998605L1214.549355032311,312.53446070993124L1215.0402764781059,312.82779979794844L1215.2888107204863,312.72454882200645L1215.646492732446,312.585329912024L1216.487062483121,312.6188204362251L1216.8559037350503,312.79297951592054L1217.1232952015819,312.78276676117235L1218.2180828414353,313.0886028488978L1218.527392385224,313.3549068712424L1218.772262046682,313.48247413444363L1220.2313799575616,313.6036336428449L1220.593856659915,313.5083736551519L1221.2494430941358,313.8159517726792L1222.837062490355,313.9664244269254L1223.511184611304,313.91982257784645L1223.6220157238618,313.85488210583225L1225.354345874325,313.8205119540144L1228.9208673394098,313.8371105981335L1229.9837140190973,313.86685865836006L1230.5683919945989,313.9204463167785L1230.9716708502121,314.0546039987848L1231.0597579185958,313.9055385755469L1231.967949826389,313.9649870248183L1234.4662625024112,314.07982992425866L1237.0047768132715,314.11880245682823L1240.2730865041474,314.1982107555333L1243.2680421006944,314.28107347399674L1247.6699839891976,314.28084103477494L1248.0181522762346,314.3458818076429L1248.0464286554784,314.40345782805025L1249.2769571011768,314.3897498662686L1252.9333151765045,314.1156877624161L1253.4063912953318,314.07576455291024L1253.7919855926891,314.07071961509985L1256.2806521460263,313.9905648198508L1256.506182277199,314.20653197400424L1261.8041071084106,314.12829842506653L1262.6553348789546,314.15140862531706L1264.502775426794,314.19829923736114L1264.6689677179784,313.9788758841521L1268.6691864245756,313.5267958326996L1270.2799896146798,313.4969756389208L1270.2897303071952,313.244203884119L1274.2937790919175,311.166879371186L1275.832865251254,310.77709135094955L1275.889578778453,310.58453164212733L1278.2800156491128,310.0255934107921L1279.2461363064235,309.64645587354846L1281.2609418113427,308.7730481439618L1283.5029891613617,307.70203402954365L1283.5214633777007,307.03609187901236L1283.5763564356673,307.2499966028368L1284.9667504509066,307.1934807917643L1288.7467964072146,307.256743170129L1289.7001926938658,307.8957719850608L1290.8399482880016,308.407806839283L1297.2028192491318,309.71211355451294L1297.2628190779321,310.458585680755L1298.186005032311,311.22393708963057L1300.2719648775078,311.75994838575815L1300.7071421368635,312.01331899001127L1301.5368127146028,312.09679873646775L1302.1726435112846,312.32815577227694L1302.9776833767362,312.7194961072307L1303.1016880666475,312.91826853260903L1304.1875766854746,313.0657330562822L1305.2344363353589,313.1215012470446L1308.9946935546875,313.11279108842615L1309.711745650077,313.27178596573475L1309.8290878954476,313.60965952928717L1310.3798673152971,313.56266464667124L1312.842706847994,313.6952739244745L1314.5822148485727,313.9345815388372L1314.9894750940393,313.99351327100993L1315.0746399546683,314.12128053088L1315.2400000313464,314.1652598855095L1315.902092869888,314.0620772102585L1316.5179978033373,314.03654541722494L1322.1772408564814,314.0772200791129L1324.403499773341,314.12540909135L1325.4321169029706,314.10994205952085L1325.5230930796681,314.0115760690104L1328.0413978178046,314.0783080850947L1329.8210317973571,314.2627078049091L1330.014672981771,314.23730340066606L1335.201761971933,314.10730927307577L1337.9920117139275,314.01038730953576L1339.3249923852236,313.99491037501826L1340.6893465977046,313.9942133622017L1340.731841550926,313.8032406904913L1340.8166186752508,313.839017517378L1343.7542318552275,313.74684034882085L1343.9275736255788,313.75669351097423L1344.6961993778934,313.91522898299525L1345.3622736062887,314.012802115667L1345.9662911120756,314.28989582340836L1346.3207672067902,314.21370789476236L1346.4489802541475,314.14315960333437L1348.0462836009838,314.16026256925034L1348.225559628183,314.12407508636176L1351.5780033685378,314.27673575246735L1353.1688097680362,314.3144456900046L1359.465335264757,314.1018991839057L1360.2918235677082,314.19481084929225L1360.5782235701197,314.2008706176394L1361.9447954451196,314.1979207098067L1364.512215024595,314.2296568683977L1367.2866952473958,314.33233814486704L1369.0338066623265,314.42287952685234L1370.891049373071,314.48261178199147L1372.1042289834106,314.2311020163832L1373.2088235146605,314.01619319067015L1375.7838275945217,313.89587517096476L1377.32907970679,313.643878387879L1379.1784920355904,313.61972609745743L1380.0778085648149,313.64116786338263L1380.4054977551118,313.7141531467353L1383.5435611472801,313.6867790981273L1383.912898890818,313.7898249387711L1384.7307766107253,313.67833600526643L1384.928314072145,313.89641059385605L1386.0343082368827,314.0627076469749L1389.0113002941744,314.11051938563423L1389.3965825110918,314.1498462313295L1390.8828987051504,314.19888325085554L1391.7201348693095,314.2456356855782L1392.8109032913774,313.9841387462096L1394.0757511284723,314.15794688299815L1394.5682897183642,314.0142981318723L1394.9533307822146,314.1085635422273L1396.6879778935186,314.0924815852052L1397.2755686197916,313.97975209465795L1399.647063153453,314.1139644137456L1399.827899582851,314.0979917243273L1400.3709715615355,314.22956546645173L1401.6168723331405,314.1964339653642L1405.397627563175,314.1343285331342L1407.9730146508489,314.2676976756994L1408.2098695191937,314.3023550476776L1412.7991826123648,314.25779910364366L1412.8237140263311,314.4220256937695L1413.5906138792438,314.36411207777036L1416.391010964024,314.3966996154002L1416.819095486111,314.1437197979542L1417.0419729335456,314.08862991409677L1418.6347416570216,313.91131052223665L1419.7591296537423,313.8274279856685L1419.8836497492284,314.0622222882505L1420.0368717881943,313.81372781037413L1420.2458758415316,314.11261547117164L1423.7907928288964,314.1489792522174L1429.3793307484566,313.88347626118684L1432.4429014853395,313.8408882075741L1433.534194769965,314.00176310552393L1434.4689418860917,314.07107896541356L1436.8216737654323,314.1201389150952L1437.5182420355902,314.29282573306466L1437.5457902271412,314.26255871636215L1440.7997536747685,314.40458628198115L1440.8834716169947,314.21017341354445L1442.3993361545138,314.1481833690304L1443.7275836058063,314.2746508706303L1444.983716833044,314.2296038298574L1454.2395167293596,314.1804049800426L1457.649950689622,314.2118340703916L1457.7148539641203,314.32528791247523L1461.8054625144675,314.20772191073354L1463.3681769458913,314.204594230412L1464.4019150318288,314.24297739815387L1466.9575322964893,314.0914560788845L1467.7394451099537,314.2094341887379L1468.4516315875771,314.0967780733173L1468.5678768229168,314.2116347465625L1473.683333895158,314.1555161690061L1475.087549291088,314.2272183963445L1476.2846000168788,314.1417964524214L1477.6625580994405,314.26800839649894L1479.254683748071,314.21908556283586L1480.1740017963928,314.1548863767457L1480.9170936945409,314.1305740841812L1484.0523861906827,314.18486175666925L1485.7848865668402,314.2006695048606L1486.7228774281443,314.2968752519834L1487.8465230516977,314.33542853623374L1488.845587109375,314.2408409966291L1489.842561173804,314.19482025535234L1489.8717312379435,314.16593078955964L1491.5533908733603,314.1379409374034L1491.7358964602624,314.2094499076867L1495.4217272231867,314.2157559531839L1500.9951150559414,314.2089082728896L1501.0431565297067,314.28691033858917L1501.6665135657793,314.49392223694485L1502.5040381679205,314.40791145767537L1504.7701866391783,314.4012646883999L1509.4199109399112,314.68213807635345L1509.5638604070216,314.6944004356705L1512.7062881968557,314.6496848823173L1513.0372826027199,314.5854542311255L1513.4505149329668,314.5552809433609L1515.5429528115353,314.54865946347786L1518.7330768952547,314.4247694880549L1520.6268708453895,314.38049983711335L1520.6680512779708,314.48133800141403L1521.2735771725502,314.3451593008026L1521.5073774353782,314.2684917666339L1522.139912473476,314.33610106787785L1522.4616343074847,314.45649512895056L1524.0159272955248,314.5102575086221L1524.0737945746528,314.46687667403444L1526.2529529875578,314.1697165621016L1529.9462736810378,314.06379711886115L1530.5381436921298,314.140648178253L1530.8660314790702,314.1962083386639L1532.0482394700039,314.41124754920367L1532.7107295018325,314.2732986183414L1534.6627973813659,314.1391396402937L1534.7113968171298,314.27386474256207L1536.6991506221063,314.1903096544408L1536.9552599078895,314.203765316742L1537.3249097318674,314.129045199955L1539.1275052662038,314.04513251929853L1540.5442511646413,314.06644741598643L1543.7694653838735,313.68044757085147L1543.774335730131,313.6913444765996L1544.3925387104553,313.81722519765106L1544.6661906997492,314.0328201532286L1545.1559536651234,314.003403641723L1545.3341184968172,314.10883277012493L1545.592402888696,314.1582717690383L1546.7461500892168,314.17224399814666L1547.7322486231674,314.1814183553791L1548.8485650848766,314.3089789232667L1551.4623853515625,314.1151739219485L1552.2144897545331,314.1301493618134L1552.7390024040317,313.9768781861355L1553.6848236472802,314.00825675752606L1554.5956824242862,314.2326928222957L1554.695585992959,314.28057468100286L1555.2077099946953,314.18141110266464L1556.8357438078704,314.1783374596756L1557.9233583260996,313.9341862800385L1558.0220419439622,314.1161856043169L1561.2763363859954,314.13712136678726L1562.1476318745176,314.17841623800007L1562.8959723982446,314.17255003595176L1565.271935356385,314.3725848026185L1566.1329511043596,314.295308396986L1567.0754245756173,314.469807628632L1567.2165133053627,314.3458779965397L1568.4821460720486,314.1278450258077L1569.2061868778935,314.157425422096L1571.959998864294,314.26739401211364L1573.2898161747685,314.35443343818145L1577.85599275897,314.4350510563782L1578.165770423418,314.53457827502945L1579.5078250699269,314.3921962635122L1582.0162141613619,314.5653686070142L1584.9899388310184,314.4967139237202L1585.7325153235918,314.49817686274537L1587.2257965856481,314.34472112752803L1587.730775836709,314.34843375080044L1588.4425887635032,314.381867342752L1589.3352286627123,314.4202309154555L1592.1510595437887,314.5241879363181L1598.8669549527392,314.37443328439485L1600.7157194782023,314.43375747355947L1603.2065564091436,314.34916687235784L1603.8029752290702,314.1965565206976L1606.3230767939815,314.18093920497853L1607.2064961347417,314.2323575650165L1608.410871293885,314.2492839991036L1608.579375817419,314.18897841339066L1611.2533661385996,314.23838830870363L1611.2559289809992,314.29359279249394L1611.2913170114775,314.47314661578054L1613.1225104624807,314.6138847797786L1615.3557580897955,314.5042410134232L1615.8441923490548,314.4137001506237L1615.864940969811,314.4222023517338L1618.7728119381752,314.316894519515L1618.8729850308641,314.2751864072723L1619.1212024643132,314.39169390802954L1619.4968669294947,314.3098440750061L1621.3020962336034,314.4884991102845L1621.5592930724342,314.28349992453343L1623.8180981963735,314.27534211009424L1625.2938036554783,314.38776299404617L1625.7284513237846,314.44269182174304L1625.8499782841436,314.41638428751884L1630.8046902874228,314.4009905988642L1632.2237247757523,314.44895333553217L1633.860723808835,314.3982551854113L1633.8873452160492,314.48580341642787L1634.3367268639083,314.5147029475051L1634.383330876254,314.4942283351127L1635.5987092351465,314.1455261191551L1635.9993306785302,314.22042058790146L1637.8341934389468,314.33647210166055L1640.0600409770448,314.4563778506251L1640.734985855517,314.49872433778097" style="fill: none;" fill="none"></path></g></g></g></g><g opacity="0.2"><g><g><g><path stroke="rgb(255, 112, 67)" stroke-width="2px" d="M203.15995463686343,43.07304793596268L203.3780279369213,5.27429336309433L203.86155875048226,16.54945397377014L204.0415251374421,31.852218449115753L204.4077940899884,26.94835038483143L205.3056968002508,5.524108946323395L207.44313100405094,35.078868582844734L208.16679353057484,2.354829251766205L208.76525033034335,24.753023326396942L209.6720662471065,47.119102865457535L209.9228276089892,17.294220715761185L211.67018490547838,19.754640623927116L212.21449102044753,-0.40704770386219025L213.2930646629051,43.28569242358208L214.99011080970294,6.803526222705841L220.97542118055554,10.00516252219677L221.21305625,-0.45941537618637085L222.8887485291281,29.377462655305862L224.5499385247878,10.027432903647423L226.27510028211805,54.03023698925972L228.12934985773535,26.25713476538658L231.77655830198688,15.241284236311913L233.80467451051308,11.614681720733643L233.90922618634258,23.87963706254959L235.67041432050542,17.61100882291794L238.02447963445218,3.978603646159172L239.28395117669754,46.58076749742031L241.46773878279322,23.01493839919567L241.94001105806328,30.58700257539749L242.89859922839506,70.92221373319626L243.1490154103974,44.17371043562889L243.37910853587962,-6.244389027357101L244.1434360894097,-8.077983766794205L245.03635496961803,105.05233985930681L245.62336409143518,16.445175871253014L246.55146767698687,30.75809182226658L246.74503320553626,25.403329223394394L248.28252586323305,29.613964423537254L248.93353511766975,9.808306336402893L249.63632608265817,63.60082583129406L250.18056127025463,19.861500799655914L251.16226703559028,68.73272323608398L252.46481513551313,-8.126263156533241L252.5640094304591,45.67814463376999L253.05050973668983,23.257545694708824L255.73821741174766,9.10178655385971L255.96720879870756,44.55553451180458L255.98328094135803,17.583170846104622L256.104495821277,56.898489981889725L256.29192849633483,46.7015870064497L257.4652043668017,-7.734056994318962L258.61433183111495,62.080038502812386L260.4749033998842,61.00092017650604L262.1324950135031,15.077403277158737L262.21099270109954,46.727165669202805L262.63273158757715,-26.99495142698288L264.75489276379244,21.366607412695885L266.15458772183644,22.483300283551216L266.5710117838542,30.930391415953636L266.76181114486883,33.03959557414055L267.18527593074845,25.470651403069496L267.81178214216817,16.90863111615181L268.3997700617284,35.18193633854389L269.6748456259645,56.94313833117485L272.81950999228394,27.8331139087677L274.4626938922646,19.871613919734955L278.49352958140435,-6.0353217869997025L279.6535940465856,0.4412171393632889L280.6663754581404,57.35242383182049L280.67959632040896,31.671849876642227L282.15464451919365,22.51716309785843L282.3302843364197,31.573300749063492L282.9163477599344,35.299151703715324L283.0828332175926,0.057967543601989746L283.4084655140818,17.45842443406582L285.32489002459494,18.64303120970726L286.4531317418981,-1.5878351628780365L291.89537486255784,20.845754832029343L295.06195105854556,85.0638252645731L295.5218205005787,83.81665700674057L296.44011719473383,53.887792617082596L301.4891531467014,103.2053909599781L302.43823232060186,40.20369218289852L304.5756097825038,25.381623670458794L305.3445807146991,24.808188244700432L305.57975224006555,60.377833634614944L305.8783848500193,34.959313213825226L306.16237805025077,-0.08143751323223114L307.47590097897375,44.250715389847755L308.6304520230517,-8.945883125066757L309.77953220244984,51.76570498943329L310.2714655454282,26.570453211665154L310.29724055266206,28.072009474039078L311.24221066743826,25.31341390311718L312.41516500048226,48.52377758920193L312.9162148750965,46.02723555266857L312.92679723910106,46.37011335790157L313.5472651668596,11.537757456302643L324.3469222704475,21.806904688477516L326.2290132040895,51.5803067535162L327.62436740692516,61.00990363955498L328.2517342038002,49.02822324633598L328.2920966073495,47.19166988134384L331.6497275028935,28.95755299925804L332.460370630787,37.75744678080082L332.57474338348766,69.56858874857426L335.16977735339503,6.829320058226585L336.55814757426697,6.247627377510071L340.5789021195023,72.90704803168774L342.37833429301696,72.84166240692139L343.031386255787,39.03282956779003L346.65702332175925,34.329610109329224L346.8901001253858,33.36289265751839L347.2730228250386,-0.4303939491510391L349.10960202787425,25.057923138141632L352.00324969376925,29.512107014656067L354.3418953968943,39.11978626251221L358.7942666473765,69.30188210308552L359.57080316599155,29.28542250394821L360.04843755063655,58.015290439128876L362.0265688753858,18.61452081799507L364.22397926552856,27.06736782193184L366.73037766203703,39.7527169585228L366.9400909891011,12.795522972941399L366.9973672067901,46.509410828351974L367.25973701533565,18.24181468784809L370.854586873071,24.155972689390182L373.40156991222995,32.70997779071331L373.5306388165509,7.815349265933037L378.8328051046489,24.42553037405014L380.3586467592593,38.81577403843403L380.48967798755785,9.375002175569534L381.71055558207945,-7.356993615627289L384.21281654851464,62.88185292482376L388.4451285325039,23.497059881687164L389.5597238233024,30.736440062522888L391.81506296296294,9.987948700785637L391.94194257571377,51.994648814201355L395.47430541811343,16.748058438301086L397.8212874517747,39.57915322482586L398.25130119839895,32.78908067941666L398.3839684847608,29.824564769864082L398.9075732638889,47.84915716946125L399.22306767457565,94.68623039871454L400.4771345510224,-0.568507969379425L400.67099797453704,56.59576879441738L400.73492245129245,25.431624442338943L402.0392484640239,38.58161227405071L403.9137785397377,7.2015689462423325L405.30013915171685,51.45346240699291L407.2983334659529,67.64050626754761L409.0909471547068,23.577830359339714L414.97163019386574,32.375599309802055L417.1166867259838,41.462318390607834L420.9368161048418,37.13683472573757L421.70245817901235,22.988848701119423L422.39313474874615,57.360546603798866L423.28833749035493,28.49060119688511L423.555133166956,-24.119436353445053L425.1271107132523,89.69165356457233L425.68670404128085,25.515030786395073L428.21541146074463,46.23966486752033L430.46832488425923,51.86070376634598L430.85233986545137,39.11892557144165L431.2605883656443,38.18300472199917L431.91446308593754,26.366899773478508L434.19199303626544,42.73447358608246L435.55119792148923,14.82944355905056L437.9307829041281,84.66828392446041L439.2333120900849,70.38110801577568L440.0664770230517,51.956186681985855L441.2405661940586,77.67438897490501L441.43411280864194,26.79681496322155L442.3466880280671,76.90794357657433L444.2205513864776,42.45628209412098L446.60679408516586,48.566462486982346L447.75266361882717,75.42413906753063L448.15201782648535,51.05351002514362L448.2712089120371,52.623733296990395L448.3786922526042,47.445815816521645L449.0227411675347,56.384738102555275L450.1219735894097,17.39309260249138L450.36996405526617,30.260477900505066L451.1341402970679,42.284547328948975L454.6529985677083,42.65808725357056L456.5360919415509,79.04248432815075L457.68713917341825,-0.5616224408149719L458.0672862485532,68.53436084091663L459.85807001109185,56.76693873107433L462.72154990113813,55.05284556746483L463.8429022063079,48.12640728056431L464.13915165653935,28.388447925448418L464.48463888888887,55.895112469792366L464.5485397231867,37.54316160082817L465.66474270109956,76.84538209438324L465.748990234375,40.01060152053833L465.8783239342207,43.122591465711594L466.6696700882523,59.70888839662075L466.759946448206,26.83032812178135L467.70573459201387,29.016322061419487L467.7861473186728,27.203572183847427L470.2898883029514,-0.3430069088935852L470.43399853877315,36.23674014210701L470.6875213396991,26.36805632710457L472.9433096860533,224.04879089072347L473.13997237654314,118.1492472589016L473.70812427420907,149.1278454437852L473.71874446614584,180.2025586143136L474.4300750868056,130.87334094196558L474.475043041088,156.03355990350246L475.21547279851467,117.6201374232769L477.60460933400844,115.2725218385458L477.76176074942134,136.4171193689108L480.4143546465085,142.4774738177657L483.91896124373073,206.9834790341556L484.5464746238426,229.3072771243751L487.21555677083336,173.97036181390285L488.8622161120756,142.48485693335533L490.0142137707369,114.9771703183651L490.74982519531244,190.3274997472763L491.88174095052085,168.36648294329643L492.2540434582369,122.35638590157032L493.4312912615741,164.24065271019936L494.43709341965666,161.6527563855052L495.6665768687307,141.27988943457603L496.918340969811,143.4450519606471L497.024060583044,167.64226520061493L497.39237697241515,144.3248530626297L497.65127606819055,176.49545458704233L497.6683364655671,165.35314971208572L500.8052508342978,217.44166226685047L501.2102461323302,231.97478064894676L501.5589250964506,215.92952891811728L502.14402390769675,205.0134513117373L502.7598626422647,229.03562822937965L504.81021221788194,243.78933231905103L505.94508328028553,269.46765368431807L506.39527350019296,203.96306527405977L507.21340655864196,198.4469365477562L507.82322119502317,228.8948648944497L509.0734721788195,236.93444570153952L510.21606013937117,200.2256084382534L511.115490152392,206.6218139566481L511.502919104456,220.11155286431313L511.7144623577354,207.62381974235177L515.8607063392169,214.36154478788376L517.4089232156637,197.73002123087645L518.3837253833913,220.30045438185334L518.4870571084105,220.53873804956675L518.9996586877894,233.08207315951586L520.4720447458527,214.4965791478753L521.1924587987075,222.25687242671847L522.9602857349537,180.50944877415895L524.5901400173611,185.52598667889833L525.5800922718944,249.11920884251595L527.987197075135,231.78003584593534L528.1374354359568,223.39352929592133L528.3014242500965,203.3300606124103L529.5441663893712,228.73986653611064L529.7626132402585,248.25007224082947L530.9094426576967,222.6604356765747L532.8097335551697,223.99184407293797L534.1728016179591,268.52054385095835L534.2010212553048,264.4950681794435L535.4142670645255,254.40544563904405L538.8362338155864,254.11779326945543L544.6433557122879,260.7021606490016L545.9949288122107,275.12401789985597L546.0883638044946,282.2932752929628L546.247855823206,281.84456274472177L546.5122494261188,286.6446536555886L549.5220950424383,276.11170797236264L549.6258523316936,286.88615482859313L550.5324270953897,300.28598682116717L552.9224951437114,293.18321445118636L554.6121884862075,280.8219474423677L558.670903361304,247.78060560673475L563.5943553071952,285.4436870254576L564.5530096764082,278.02259008027613L567.3397887056327,285.3245519157499L575.3684221137154,277.07773283682764L575.3735383415316,282.0805097706616L575.397407766686,281.06668965518475L575.5548807195216,279.6287572905421L577.520803079186,315.8749988789821L581.5346398413387,273.4366700388491L581.9519244888116,291.1831180155277L582.2518858048804,277.7579040415585L583.4575376567323,269.17028155736625L584.0714944516783,281.8361844550818L584.1783536313657,274.02454221248627L587.0356108265818,280.54478474520147L587.1056539713542,283.5878723356873L587.978642259838,284.7500036433339L588.6826957320601,282.0226484686136L589.4866480444637,274.6842686422169L592.1031020809221,280.5358954202384L593.8138513961227,275.7507186718285L593.83216484375,282.72157332487404L595.8783107904128,270.1235708836466L596.219282313368,270.1312196031213L597.8563806447723,264.15542468987405L598.9921312065973,272.6670878250152L599.5806629026813,293.0417131409049L600.5623308400849,266.2781343013048L601.4998583092207,272.605790482834L602.7077514660493,271.8181236702949L605.0179978491512,275.37602555565536L605.2692840735918,281.052538683638L606.2624848017939,276.7614086959511L606.8164039400077,274.38084478117526L607.1442775414738,260.2756176199764L609.6234918402778,272.8936244044453L609.702292151331,274.03052670508623L610.7508351441936,269.0149705260992L611.3768495924961,274.40852474048734L611.3801311656057,276.6558597292751L611.4843660325039,272.7501512374729L611.6318334972993,282.405844271183L614.5160667365933,298.12631288170815L619.4691805097416,280.75951708108187L620.8198599247685,272.416754482314L622.970633203125,272.85243226774037L624.7478934799383,305.2342250230722L630.3261043740355,253.9321260675788L631.6151431737076,277.3570741582662L632.6000453993056,265.547229392454L634.051621366223,281.2928866650909L635.5103420838157,288.71509645693004L636.4408761140047,284.43643640354276L642.2386876109182,272.49698366597295L643.5659089795524,300.9317959435284L652.4964832296489,280.3906302675605L652.9200945987654,287.3332401327789L653.3642654489777,271.01097699813545L654.1319076750578,275.3678489904851L657.0126702015818,284.9352404996753L657.6218512201003,277.3775189332664L658.0228556712963,281.0744661334902L660.8965774739584,281.34004312194884L663.5435491946374,285.3699231110513L663.8179766565394,282.1482891924679L665.716224845679,277.7967326398939L665.8183460768711,278.8972909152508L666.204417951871,279.2118398807943L668.4436423924576,279.35818762145936L669.9747374011381,267.01473456434906L670.0483789279514,284.87636385113L670.4725435305749,276.6211530342698L670.8386848138503,283.93871153332293L672.9662648413387,288.4653144944459L673.4685393952547,274.7649012748152L673.4889806640625,270.38508312404156L675.2473033323688,285.8300330918282L676.7333547309028,284.170334931463L678.2260496600117,287.05990683846176L678.574931949267,266.70250879228115L678.9996214144483,284.26379724033177L681.7224948808835,302.83956140838563L686.1287538821374,290.01460044737905L687.9858358241705,268.8624970857054L693.8130159818674,279.58300954289734L694.2007759283372,273.38954047858715L695.2861396846065,283.8783353995532L696.7098506510417,274.5314589943737L697.9538836684992,290.3024259638041L698.0613717375578,284.24729617871344L701.6926026089892,283.2814898490906L702.5592168909144,289.60210248455405L705.3804524377894,280.53245265595615L706.4793680507331,276.4920023046434L708.7376246696566,299.68577415309846L709.0129931013696,271.1107532829046L714.976207231385,264.77057001180947L715.4149166739004,280.6268059145659L715.6325029393325,285.24396971426904L716.9876082224151,278.5974611118436L718.411555613426,281.88404022343457L719.8306373866706,279.6699023582041L725.9428982976466,300.83380828239024L726.0688605830439,299.6018366012722L729.6710065031829,288.4820307288319L732.142423519483,288.5346707291901L732.6028509235147,275.4628746639937L733.0196579933448,292.37814217898995L733.4823456163194,283.4966760650277L738.2216228178047,278.2474758811295L739.1360610628858,303.34242352843285L741.5229326509452,288.69512573443353L744.2535041015625,272.5559174697846L746.7648579571759,282.58520422130823L747.3702278115355,282.48076810128987L751.3995125554591,284.83602568134665L751.8064938199267,282.9572581090033L752.0838955029899,279.7145776040852L754.0522341218172,285.06132501736283L755.0464372902198,287.09335947968066L755.1791376760224,290.6891838843003L755.3373199025849,287.1841455772519L755.8380293258102,281.79752059839666L757.4085504967206,291.1175373904407L761.8138212432484,287.5720381978899L762.5872038580247,283.225494498387L762.73498340326,280.20723246596754L766.2408619646991,282.2524866051972L768.3932334731867,288.801738797687L768.8500104817708,288.0459578996524L769.1481182291667,291.8648996539414L772.4926322892553,287.8258697791025L772.7805595944252,280.22872620821L773.2924235291281,284.43149079196155L773.5129651017554,288.2317074723542L773.6321751012732,284.9090432152152L774.3818490596066,286.95067303813994L776.983408347801,286.56950456649065L777.4249879846644,288.2552621662617L777.6244641276041,280.7272815108299L778.1188279152199,287.72169421985745L778.1840479986497,286.47606915421784L780.5290535228587,288.73985981661826L782.7937125192901,289.71135309524834L784.4236046296296,281.3078781552613L785.1585256944445,283.004841549322L787.0530289183064,282.85292621329427L787.221022764757,293.37360368669033L790.8326587673612,279.72124123573303L791.43758887201,284.12295657768846L792.0786919367284,275.16117554716766L792.5771931544174,284.1119625940919L792.9897729528357,293.955936842598L793.4326576533565,284.26552534662187L793.7143953631365,283.46773868985474L793.9257447482639,278.2899489682168L794.8177321156443,289.5670242803171L800.7753524402005,288.9020261177793L800.8305008367091,282.3916731271893L801.7145301528743,281.80987958423793L801.8850868417246,294.47386778052896L802.1114681013696,283.46009669452906L803.5131868537809,284.55415944196284L804.469415506848,280.33681354112923L809.245135192419,286.8727468755096L809.2903064718364,292.3017541654408L809.6495347005208,296.3971509002149L811.3831935570987,290.3052467443049L812.2763583188657,287.6737779341638L812.5361274570795,276.05832159146667L816.9367690104167,279.2343590557575L817.0825815031828,291.5827812589705L817.5251446662809,289.0278265401721L818.6017843557099,288.4060377590358L821.3680417317709,284.51728757098317L823.1223309968171,292.1561797019094L828.6259404803241,288.17864721268415L829.2343460262346,282.16361016593874L829.7065521026234,287.4501831699163L830.8397634645062,280.2179776560515L831.3994135344328,288.81922494713217L835.040508039159,285.876984462142L835.8710864872685,288.2238065972924L841.8908959321951,287.1968037877232L844.4226012152777,312.69121232361067L845.2510234712577,315.0555748741899L847.7817972415123,311.88104671868496L848.435317324942,313.746877028374L848.9407599681713,307.7551563885063L849.2923611400463,311.9118223080877L849.3901463445217,313.8917196103139L849.5289039279513,313.0684616670478L853.1577185402199,286.1878923010081L856.9507111062885,289.56468091439456L856.9704241874035,283.3090218771249L858.8498766227816,289.71993310935795L858.9686468725887,288.50056416448206L859.9433828414352,288.6425059065223L859.968197964892,282.3347263094038L860.5060591459297,289.17570234369487L863.3898951919367,287.47166346386075L864.0156022882909,300.26639769412577L864.5102261429398,307.0939498054795L865.4929721764081,284.4259231965989L868.5343095461998,302.2779806572944L868.992802997203,309.0559686461929L870.5429018132717,308.3243934237398L871.5198980010609,294.158832995221L872.5781060305749,292.2781322300434L876.1965179615162,291.99151201732457L879.0675114245756,296.1872633136809L880.089934230324,301.49838282354176L880.5571517481674,298.0823167748749L880.9873782769098,297.2219282910228L881.4881917269483,308.37159947119653L883.8518984350887,298.96297352481633L886.1434625482253,289.9975211089477L890.5319613353588,300.9680760893971L893.655895994888,296.29767047800124L894.9846115668403,298.0157561050728L897.5763592351466,301.3235061997548L899.5974110773534,302.4213857422583L900.8401815875771,295.57259876839817L900.9476554711612,311.9154798248783L901.752458912037,301.4039371078834L904.5190141830633,302.35439052432775L904.7728065080054,299.13053259346634L907.1884225959684,303.32608804898337L909.5095586950231,303.39789943862706L910.2581971137153,299.3634419851005L910.8999243393133,308.4711799151264L914.0480830608603,299.0309782056138L915.1783438440393,307.80148829659447L916.8038242717978,304.0483255297877L916.8134467520255,297.02730788476765L918.476055295139,299.12981310952455L922.7393956404321,298.2260488215834L924.9681748432678,302.6737682693638L926.1520898196374,303.2578345746733L927.0385448519484,300.4443354867399L927.3495046392746,297.085831515491L928.10340586902,298.0182675747201L929.6198992959105,305.60690425662324L930.6667116608797,298.7723254095763L933.5510489269868,298.88762103021145L934.0306267216436,315.1422067609965L934.9998870973186,306.9345504916273L935.6819436270254,313.7043722117087L937.0761109784916,312.05093612521887L939.7968093388309,311.0524222741369L940.6015607663,311.1421871415805L941.8513578149112,310.16782601340674L943.6109146195023,313.11513776751235L944.0017528139468,300.2997948611155L945.0094416401428,311.8527023294009L946.0650868272569,310.3885890704114L946.0990326678241,311.1235066151712L947.6133178891782,312.6646454210859L948.0844174985532,311.1413987351116L950.1331924864969,311.1449129434768L951.1089639949845,311.8369858919177L951.2251052035108,309.86778608034365L951.5852838589893,312.1575336388778L952.8320452160493,313.27945978881326L955.475016632909,312.9186169486493L955.7826097342785,313.78033471270464L957.6733348934221,311.39785945857875L959.2750215518905,311.98530254745856L960.107113117284,311.6162841927726L961.510103833912,312.75290344876703L963.4998483338155,311.5795157055836L964.2973367983218,311.45745727210306L964.5138922526041,313.05159813177306L966.2559630955826,311.6711229898501L970.433750843943,310.6963399213273L970.6693526620371,311.2631856810767L972.6056841218171,313.45075286144856L973.89816526331,311.1090274211019L977.8618989293982,312.35621858306695L982.178193651138,313.8086150124436L983.3341396002121,313.2104435438523L986.8330247227045,307.575401394628L987.2101928481867,309.0945160910487L988.3530597897377,303.6383104589768L991.6423970823688,311.1920656180009L992.3811813247493,312.02784329629503L992.5260575761961,311.5391817383934L998.2095956187308,306.14443440781906L998.7856299117477,305.12289076671004L1001.2870539351852,307.5284458217211L1002.7485266348378,307.4707442182116L1007.87852381848,312.8387315371074L1008.8715543209876,313.1308058751747L1009.8595300660686,312.7087697070092L1010.6034778211805,312.94360262551345L1011.525405996817,308.56110027851537L1011.9810576244213,307.35580833954737L1013.6562108555169,306.98911191755906L1016.6501309124229,313.38475050614215L1016.8717458526236,311.6909794018138L1018.6608841001158,304.4542565206066L1020.9973594256365,304.6207002210431L1023.6521378858025,308.81945637147874L1024.6525826630016,312.3402132173069L1030.2975078438465,307.5066931997426L1031.1803172092013,310.8668740056455L1033.220434329186,307.0606719921343L1035.1918937524113,301.73172760382295L1036.0978632691938,307.5634988103993L1041.4688243803048,305.9620628794655L1041.7237799141587,307.2550957170315L1042.8097725597993,306.4089212436229L1043.44794395978,306.70630849990994L1044.446946547068,307.47724731080234L1045.7871807243441,307.4449444990605L1047.6737448109568,304.5640921322629L1051.8552586106289,303.57672061631456L1054.9035846908757,306.03091816511005L1056.6906802300346,308.69445107970387L1061.3225970317324,306.48323905980214L1062.5804892578124,308.8243536532391L1062.5954643904322,307.0289466166869L1065.8374411120758,305.14987981971353L1067.9072295163,305.39393616933376L1070.1914928385418,304.02091789850965L1071.0795271870177,304.74124151840806L1071.1915640649113,306.2238936764188L1072.7946456283757,314.3820622054627L1072.9687014009453,313.6554517163895L1074.2032632499036,313.3782581301639L1075.0583683834877,313.2897326074308L1076.1909697699652,312.85799391253386L1077.292017932581,313.79062055936083L1078.1410469545717,312.1975419051014L1085.2799721281829,306.4301956105046L1088.1463269410688,304.6161647825502L1090.8045430145642,305.624866980128L1091.6975848355517,305.4981587976217L1093.1743589337384,307.75010907417163L1093.6732195167824,304.7695611123927L1094.2620822072722,309.06480249692686L1095.0893932677468,309.2263493358623L1095.5521376326196,306.05588072771206L1096.1903846884645,306.34265979845077L1098.4331744116512,305.2210423289798L1100.947918595679,300.93615823518485L1102.4120297935956,307.8578669237904L1106.7810046392747,302.63504473585635L1108.226017459973,307.1986616156064L1108.2889111255788,309.0993494933937L1108.847837736304,306.0992498076521L1109.536466869213,303.43769379286095L1110.449945230517,306.39038192434236L1110.7217909360531,307.38974091690034L1111.9274758873457,305.865786514245L1117.6707111352239,307.2482076669112L1117.9464767602237,298.6339121647179L1121.2017027150848,307.938032228034L1122.224622012442,305.7689789412543L1122.844602905575,307.49580428097397L1123.3217076991705,302.7402650597505L1123.3769884934413,308.7184840287082L1124.7221875868056,305.66948843281716L1134.0634407817322,305.14369108108804L1134.8154411578896,306.01133996481076L1134.9757748480904,306.1248251083307L1141.51817244647,306.315298395697L1145.2119423466436,306.1478603617288L1145.5259661964699,307.818317160476L1145.8343962408371,306.9782423307188L1145.8787967761382,307.7807922065258L1147.9922906274112,312.55307413847186L1148.7335715133102,307.0794416135177L1151.0129739462768,306.68188807182014L1151.130368205054,304.6405616761185L1151.7379084370177,305.1224444513209L1153.5034798828126,304.6552757951431L1156.32566112799,314.7623856407008L1156.7641577883874,307.01494357641786L1158.4616484133874,306.94375921366736L1158.5923675612462,308.77648821892217L1158.9715216531636,313.2147135885898L1160.4843977840471,308.4640632439405L1161.7042965808255,308.335680748336L1168.007640562307,314.3470817115158L1169.4927793619793,313.3934065871872L1170.345326381655,314.4427692934405L1171.1137724512923,312.99300662917085L1171.761504861111,312.7558824568987L1172.483975807774,314.3634316899115L1173.12438378424,314.19623656582553L1174.8855293619793,313.4335329462774L1175.466103006848,313.50970998965204L1175.616908786651,313.3709750362905L1175.821728125,310.7599339806475L1175.9383752821182,313.46235454001L1176.4433592616706,313.78467998385895L1177.999907740162,312.7036868807627L1186.1908040629824,310.65623667649925L1186.6802596764082,307.85487131541595L1186.8681368296682,309.3802747721784L1189.3161903694058,313.6592109359335L1189.32617694348,313.2181544617051L1189.6065670331789,313.81824273301754L1190.478401569734,312.58110144210514L1192.84509668451,313.3109269149136L1193.048313064236,313.26663494552486L1193.4486791690779,313.375687193824L1193.7052707609953,312.6599046859192L1195.1870334177277,313.27905907155946L1195.7730542848187,313.12079151603393L1198.683289498939,313.13371911272407L1198.7015414761765,313.09311638970394L1199.2771407479745,313.25782042671926L1201.5739298442322,307.67945675970986L1202.0251319613233,308.68811945291236L1204.8120670307678,304.3538103424944L1205.0319277006172,306.43051836965606L1208.2752662278165,312.897867485648L1208.288572202932,313.89232730527874L1209.8661530116706,313.4196042919066L1211.942069540895,314.6242263375316L1214.549355032311,314.29611077101436L1215.0402764781059,313.8739086004207L1215.2888107204863,312.3563341543777L1215.646492732446,312.08884603669867L1216.487062483121,312.73825468006544L1216.8559037350503,313.4140673754737L1217.1232952015819,312.74634593259543L1218.2180828414353,314.17927857727045L1218.527392385224,314.3046029509278L1218.772262046682,313.9374057899695L1220.2313799575616,314.0357138988329L1220.593856659915,313.16865653009154L1221.2494430941358,314.9128399452311L1222.837062490355,314.5030415180954L1223.511184611304,313.75363059551455L1223.6220157238618,313.6232907421654L1225.354345874325,313.69794077333063L1228.9208673394098,313.8963048495352L1229.9837140190973,313.97294648957904L1230.5683919945989,314.11155116255395L1230.9716708502121,314.53303847205825L1231.0597579185958,313.3739399657352L1231.967949826389,314.17699268180877L1234.4662625024112,314.48938382591587L1237.0047768132715,314.2577866939828L1240.2730865041474,314.48139742808416L1243.2680421006944,314.57657933299197L1247.6699839891976,314.28001210768707L1248.0181522762346,314.5778308652225L1248.0464286554784,314.6087860104162L1249.2769571011768,314.3408643952571L1252.9333151765045,313.13832473452203L1253.4063912953318,313.93339000211563L1253.7919855926891,314.0527283072006L1256.2806521460263,313.70471598382574L1256.506182277199,314.97671620867914L1261.8041071084106,313.84930115693714L1262.6553348789546,314.23382445360767L1264.502775426794,314.3655210090801L1264.6689677179784,313.1963661176851L1268.6691864245756,311.9145834117662L1270.2799896146798,313.39063056430314L1270.2897303071952,312.34276671288535L1274.2937790919175,303.758703825064L1275.832865251254,309.38702539750375L1275.889578778453,309.8978232741356L1278.2800156491128,308.0323022753L1279.2461363064235,308.2943717795424L1281.2609418113427,305.65829272475094L1283.5029891613617,303.8825727356598L1283.5214633777007,304.66120229195803L1283.5763564356673,308.0128257777542L1284.9667504509066,306.99193353857845L1288.7467964072146,307.48235009936616L1289.7001926938658,310.174682964338L1290.8399482880016,310.23383068013936L1297.2028192491318,314.36354526499053L1297.2628190779321,313.1206620761659L1298.186005032311,313.9533409724245L1300.2719648775078,313.67147725459654L1300.7071421368635,312.91689178417437L1301.5368127146028,312.3945050468901L1302.1726435112846,313.15322355751414L1302.9776833767362,314.11509794101585L1303.1016880666475,313.62713275279384L1304.1875766854746,313.5916225219844L1305.2344363353589,313.32038232916966L1308.9946935546875,313.0817288332619L1309.711745650077,313.8387950944016L1309.8290878954476,314.8145876257913L1310.3798673152971,313.39507102419157L1312.842706847994,314.1681864631246L1314.5822148485727,314.78800275718095L1314.9894750940393,314.2036762062926L1315.0746399546683,314.57692541653523L1315.2400000313464,314.32209950179094L1315.902092869888,313.69410611724015L1316.5179978033373,313.945493680425L1322.1772408564814,314.2222744669416L1324.403499773341,314.2972612308804L1325.4321169029706,314.0547833752353L1325.5230930796681,313.6607822855003L1328.0413978178046,314.3162884712219L1329.8210317973571,314.9203159381286L1330.014672981771,314.14670595905045L1335.201761971933,313.64372290938627L1337.9920117139275,313.664743229514L1339.3249923852236,313.93971637566574L1340.6893465977046,313.9917276680935L1340.731841550926,313.1221920301905L1340.8166186752508,313.96660519682337L1343.7542318552275,313.4181172043318L1343.9275736255788,313.7918319568271L1344.6961993778934,314.4805997759104L1345.3622736062887,314.36076840158785L1345.9662911120756,315.2780701875454L1346.3207672067902,313.94200573826674L1346.4489802541475,313.8915695777396L1348.0462836009838,314.2212553381105L1348.225559628183,313.9950229213573L1351.5780033685378,314.82115575351054L1353.1688097680362,314.4489272480714L1359.465335264757,313.34391369868536L1360.2918235677082,314.5261533637531L1360.5782235701197,314.22248102439335L1361.9447954451196,314.18740071885986L1364.512215024595,314.3428346759756L1367.2866952473958,314.6985211445135L1369.0338066623265,314.74576911283657L1370.891049373071,314.6956295503187L1372.1042289834106,313.33416536368895L1373.2088235146605,313.24978317751084L1375.7838275945217,313.46679584041703L1377.32907970679,312.7452049285639L1379.1784920355904,313.53359395673033L1380.0778085648149,313.71763370442204L1380.4054977551118,313.97443399741314L1383.5435611472801,313.58915749099106L1383.912898890818,314.15730805083876L1384.7307766107253,313.2807430506218L1384.928314072145,314.6741103823879L1386.0343082368827,314.65575786837144L1389.0113002941744,314.2810260883416L1389.3965825110918,314.2900940235122L1390.8828987051504,314.3737595624989L1391.7201348693095,314.4123646879452L1392.8109032913774,313.05158573412336L1394.0757511284723,314.7777832064312L1394.5682897183642,313.50201651256066L1394.9533307822146,314.4447337955935L1396.6879778935186,314.03512994851917L1397.2755686197916,313.5777350530261L1399.647063153453,314.59259373432724L1399.827899582851,314.0410297588678L1400.3709715615355,314.6987850673613L1401.6168723331405,314.07828007335775L1405.397627563175,313.9128475168254L1407.9730146508489,314.7433200516971L1408.2098695191937,314.42595051578246L1412.7991826123648,314.0989032484358L1412.8237140263311,315.0076922092412L1413.5906138792438,314.1575799586135L1416.391010964024,314.51291361945914L1416.819095486111,313.2415406316286L1417.0419729335456,313.8921678168699L1418.6347416570216,313.27895232569426L1419.7591296537423,313.52828524110373L1419.8836497492284,314.89954808878247L1420.0368717881943,312.9275443070801L1420.2458758415316,315.1785116496321L1423.7907928288964,314.278660133481L1429.3793307484566,312.93663682742044L1432.4429014853395,313.689010262955L1433.534194769965,314.5754767826875L1434.4689418860917,314.3182738812757L1436.8216737654323,314.2950970004895L1437.5182420355902,314.9086631980608L1437.5457902271412,314.15462017734535L1440.7997536747685,314.91108641325263L1440.8834716169947,313.51685628911946L1442.3993361545138,313.9271138495533L1443.7275836058063,314.7256605452858L1444.983716833044,314.06895662052557L1454.2395167293596,314.00495154759847L1457.649950689622,314.32391680812L1457.7148539641203,314.7298881438328L1461.8054625144675,313.78845685429405L1463.3681769458913,314.1934402654297L1464.4019150318288,314.37985983653925L1466.9575322964893,313.5510992279742L1467.7394451099537,314.6301689092652L1468.4516315875771,313.6950227027992L1468.5678768229168,314.6212377685006L1473.683333895158,313.95538553397637L1475.087549291088,314.48292359977495L1476.2846000168788,313.83716385788284L1477.6625580994405,314.71810669935076L1479.254683748071,314.0446164619643L1480.1740017963928,313.92593859438784L1480.9170936945409,314.0438713422045L1484.0523861906827,314.3784629996517L1485.7848865668402,314.2570432552602L1486.7228774281443,314.63996515382314L1487.8465230516977,314.4729176458204L1488.845587109375,313.9035219626967L1489.842561173804,314.0307006255025L1489.8717312379435,314.0629048864357L1491.5533908733603,314.03812324546743L1491.7358964602624,314.46446591586573L1495.4217272231867,314.2382446359843L1500.9951150559414,314.18448800663464L1501.0431565297067,314.56508208886953L1501.6665135657793,315.2321701484325L1502.5040381679205,314.1011789526092L1504.7701866391783,314.3775609130389L1509.4199109399112,315.6837915740325L1509.5638604070216,314.7381305846502L1512.7062881968557,314.49021982675185L1513.0372826027199,314.35639423760585L1513.4505149329668,314.44767666142434L1515.5429528115353,314.5250458754017L1518.7330768952547,313.9829518131446L1520.6268708453895,314.22262496320764L1520.6680512779708,314.8409480759292L1521.2735771725502,313.85951745067723L1521.5073774353782,313.9950792361051L1522.139912473476,314.57721003715415L1522.4616343074847,314.8858456389862L1524.0159272955248,314.70198544708546L1524.0737945746528,314.31217150593875L1526.2529529875578,313.1099811857566L1529.9462736810378,313.6860661363462L1530.5381436921298,314.4147151982761L1530.8660314790702,314.3943475408596L1532.0482394700039,315.1781225420418L1532.7107295018325,313.78134375531226L1534.6627973813659,313.6607005450642L1534.7113968171298,314.75432275567437L1536.6991506221063,313.8923346598167L1536.9552599078895,314.2517510348116L1537.3249097318674,313.86257756885607L1539.1275052662038,313.745882274583L1540.5442511646413,314.1424608146772L1543.7694653838735,312.30389104550704L1543.774335730131,313.73020513134543L1544.3925387104553,314.2661422896199L1544.6661906997492,314.8016770496033L1545.1559536651234,313.8984981828835L1545.3341184968172,314.48481518693734L1545.592402888696,314.3345816236106L1546.7461500892168,314.2220719019533L1547.7322486231674,314.21413604030386L1548.8485650848766,314.7638867018977L1551.4623853515625,313.42402457934804L1552.2144897545331,314.1835549258976L1552.7390024040317,313.43028097972274L1553.6848236472802,314.12015933403745L1554.5956824242862,315.03307897108607L1554.695585992959,314.45133144652937L1555.2077099946953,313.8277729534311L1556.8357438078704,314.16737620317144L1557.9233583260996,313.0634918905562L1558.0220419439622,314.76523342286237L1561.2763363859954,314.21178269322263L1562.1476318745176,314.32568242255365L1562.8959723982446,314.1516299272771L1565.271935356385,315.08595079698716L1566.1329511043596,314.0197245029267L1567.0754245756173,315.0921085414884L1567.2165133053627,313.9039188976167L1568.4821460720486,313.3502936552977L1569.2061868778935,314.2629153284943L1571.959998864294,314.6595651025418L1573.2898161747685,314.6648343137931L1577.85599275897,314.72255041624885L1578.165770423418,314.88951324200025L1579.5078250699269,313.8844321037177L1582.0162141613619,315.1829375580419L1584.9899388310184,314.2518769024755L1585.7325153235918,314.5033940105932L1587.2257965856481,313.79746574303135L1587.730775836709,314.3616737452103L1588.4425887635032,314.50109855423216L1589.3352286627123,314.55704347381834L1592.1510595437887,314.89492050843546L1598.8669549527392,313.8403767403215L1600.7157194782023,314.6453199929092L1603.2065564091436,314.0474990205839L1603.8029752290702,313.65231595153455L1606.3230767939815,314.125244576775L1607.2064961347417,314.41572623711545L1608.410871293885,314.30964721838245L1608.579375817419,313.97391602781136L1611.2533661385996,314.41459437372396L1611.2559289809992,314.4904635771527L1611.2913170114775,315.11347326412215L1613.1225104624807,315.11578663403634L1615.3557580897955,314.1132283124025L1615.8441923490548,314.09081241616514L1615.864940969811,314.45252298674313L1618.7728119381752,313.9413446703693L1618.8729850308641,314.12644651840674L1619.1212024643132,314.8071841276251L1619.4968669294947,314.01795037824195L1621.3020962336034,315.1256204918027L1621.5592930724342,313.55242976895534L1623.8180981963735,314.24624963029055L1625.2938036554783,314.78867947973777L1625.7284513237846,314.63857955887215L1625.8499782841436,314.32256609469187L1630.8046902874228,314.3460934717441L1632.2237247757523,314.6199985288549L1633.860723808835,314.21745493315393L1633.8873452160492,314.79801879735896L1634.3367268639083,314.6177647455479L1634.383330876254,314.42121156671783L1635.5987092351465,312.9019807736622L1635.9993306785302,314.4875099947094L1637.8341934389468,314.7503361758427L1640.0600409770448,314.88398693711497L1640.734985855517,314.6497408056748" style="fill: none;" fill="none"></path></g></g></g></g></g></g><g transform="translate(51, 361)" clip-path="url(#clip_1)"><clipPath id="clip_1"><rect width="1838" height="38"></rect></clipPath><g><g visibility="inherit"><g><g transform="translate(0,0)" style="visibility: inherit;"><text transform="translate(3,16)" style="text-anchor: start; font-family: Roboto, sans-serif; font-size: 12px; font-weight: 200;" fill="rgb(33, 33, 33)" stroke="none" stroke-width="1px">12 PM</text></g><g transform="translate(102.13541666666666,0)" style="visibility: inherit;"><text transform="translate(3,16)" style="text-anchor: start; font-family: Roboto, sans-serif; font-size: 12px; font-weight: 200;" fill="rgb(33, 33, 33)" stroke="none" stroke-width="1px">06 PM</text></g><g transform="translate(204.27083333333331,0)" style="visibility: inherit;"><text transform="translate(3,16)" style="text-anchor: start; font-family: Roboto, sans-serif; font-size: 12px; font-weight: 200;" fill="rgb(33, 33, 33)" stroke="none" stroke-width="1px">12 AM</text></g><g transform="translate(306.40625,0)" style="visibility: inherit;"><text transform="translate(3,16)" style="text-anchor: start; font-family: Roboto, sans-serif; font-size: 12px; font-weight: 200;" fill="rgb(33, 33, 33)" stroke="none" stroke-width="1px">06 AM</text></g><g transform="translate(408.54166666666663,0)" style="visibility: inherit;"><text transform="translate(3,16)" style="text-anchor: start; font-family: Roboto, sans-serif; font-size: 12px; font-weight: 200;" fill="rgb(33, 33, 33)" stroke="none" stroke-width="1px">12 PM</text></g><g transform="translate(510.67708333333337,0)" style="visibility: inherit;"><text transform="translate(3,16)" style="text-anchor: start; font-family: Roboto, sans-serif; font-size: 12px; font-weight: 200;" fill="rgb(33, 33, 33)" stroke="none" stroke-width="1px">06 PM</text></g><g transform="translate(612.8125,0)" style="visibility: inherit;"><text transform="translate(3,16)" style="text-anchor: start; font-family: Roboto, sans-serif; font-size: 12px; font-weight: 200;" fill="rgb(33, 33, 33)" stroke="none" stroke-width="1px">12 AM</text></g><g transform="translate(714.9479166666666,0)" style="visibility: inherit;"><text transform="translate(3,16)" style="text-anchor: start; font-family: Roboto, sans-serif; font-size: 12px; font-weight: 200;" fill="rgb(33, 33, 33)" stroke="none" stroke-width="1px">06 AM</text></g><g transform="translate(817.0833333333333,0)" style="visibility: inherit;"><text transform="translate(3,16)" style="text-anchor: start; font-family: Roboto, sans-serif; font-size: 12px; font-weight: 200;" fill="rgb(33, 33, 33)" stroke="none" stroke-width="1px">12 PM</text></g><g transform="translate(919.21875,0)" style="visibility: inherit;"><text transform="translate(3,16)" style="text-anchor: start; font-family: Roboto, sans-serif; font-size: 12px; font-weight: 200;" fill="rgb(33, 33, 33)" stroke="none" stroke-width="1px">06 PM</text></g><g transform="translate(1021.3541666666667,0)" style="visibility: inherit;"><text transform="translate(3,16)" style="text-anchor: start; font-family: Roboto, sans-serif; font-size: 12px; font-weight: 200;" fill="rgb(33, 33, 33)" stroke="none" stroke-width="1px">12 AM</text></g><g transform="translate(1123.4895833333335,0)" style="visibility: inherit;"><text transform="translate(3,16)" style="text-anchor: start; font-family: Roboto, sans-serif; font-size: 12px; font-weight: 200;" fill="rgb(33, 33, 33)" stroke="none" stroke-width="1px">06 AM</text></g><g transform="translate(1225.625,0)" style="visibility: inherit;"><text transform="translate(3,16)" style="text-anchor: start; font-family: Roboto, sans-serif; font-size: 12px; font-weight: 200;" fill="rgb(33, 33, 33)" stroke="none" stroke-width="1px">12 PM</text></g><g transform="translate(1327.7604166666667,0)" style="visibility: inherit;"><text transform="translate(3,16)" style="text-anchor: start; font-family: Roboto, sans-serif; font-size: 12px; font-weight: 200;" fill="rgb(33, 33, 33)" stroke="none" stroke-width="1px">06 PM</text></g><g transform="translate(1429.8958333333333,0)" style="visibility: inherit;"><text transform="translate(3,16)" style="text-anchor: start; font-family: Roboto, sans-serif; font-size: 12px; font-weight: 200;" fill="rgb(33, 33, 33)" stroke="none" stroke-width="1px">12 AM</text></g><g transform="translate(1532.03125,0)" style="visibility: inherit;"><text transform="translate(3,16)" style="text-anchor: start; font-family: Roboto, sans-serif; font-size: 12px; font-weight: 200;" fill="rgb(33, 33, 33)" stroke="none" stroke-width="1px">06 AM</text></g><g transform="translate(1634.1666666666665,0)" style="visibility: inherit;"><text transform="translate(3,16)" style="text-anchor: start; font-family: Roboto, sans-serif; font-size: 12px; font-weight: 200;" fill="rgb(33, 33, 33)" stroke="none" stroke-width="1px">12 PM</text></g><g transform="translate(1736.3020833333333,0)" style="visibility: inherit;"><text transform="translate(3,16)" style="text-anchor: start; font-family: Roboto, sans-serif; font-size: 12px; font-weight: 200;" fill="rgb(33, 33, 33)" stroke="none" stroke-width="1px">06 PM</text></g><g transform="translate(1838.4375,0)" style="visibility: hidden;"><text transform="translate(3,16)" style="text-anchor: start; font-family: Roboto, sans-serif; font-size: 12px; font-weight: 200;" fill="rgb(33, 33, 33)" stroke="none" stroke-width="1px">12 AM</text></g></g><g><line x1="0" y1="0" x2="0" y2="19" fill="rgb(0, 0, 0)" stroke="rgb(204, 204, 204)" stroke-width="1px"></line><line x1="102.13541666666666" y1="0" x2="102.13541666666666" y2="19" fill="rgb(0, 0, 0)" stroke="rgb(204, 204, 204)" stroke-width="1px"></line><line x1="204.27083333333331" y1="0" x2="204.27083333333331" y2="19" fill="rgb(0, 0, 0)" stroke="rgb(204, 204, 204)" stroke-width="1px"></line><line x1="306.40625" y1="0" x2="306.40625" y2="19" fill="rgb(0, 0, 0)" stroke="rgb(204, 204, 204)" stroke-width="1px"></line><line x1="408.54166666666663" y1="0" x2="408.54166666666663" y2="19" fill="rgb(0, 0, 0)" stroke="rgb(204, 204, 204)" stroke-width="1px"></line><line x1="510.67708333333337" y1="0" x2="510.67708333333337" y2="19" fill="rgb(0, 0, 0)" stroke="rgb(204, 204, 204)" stroke-width="1px"></line><line x1="612.8125" y1="0" x2="612.8125" y2="19" fill="rgb(0, 0, 0)" stroke="rgb(204, 204, 204)" stroke-width="1px"></line><line x1="714.9479166666666" y1="0" x2="714.9479166666666" y2="19" fill="rgb(0, 0, 0)" stroke="rgb(204, 204, 204)" stroke-width="1px"></line><line x1="817.0833333333333" y1="0" x2="817.0833333333333" y2="19" fill="rgb(0, 0, 0)" stroke="rgb(204, 204, 204)" stroke-width="1px"></line><line x1="919.21875" y1="0" x2="919.21875" y2="19" fill="rgb(0, 0, 0)" stroke="rgb(204, 204, 204)" stroke-width="1px"></line><line x1="1021.3541666666667" y1="0" x2="1021.3541666666667" y2="19" fill="rgb(0, 0, 0)" stroke="rgb(204, 204, 204)" stroke-width="1px"></line><line x1="1123.4895833333335" y1="0" x2="1123.4895833333335" y2="19" fill="rgb(0, 0, 0)" stroke="rgb(204, 204, 204)" stroke-width="1px"></line><line x1="1225.625" y1="0" x2="1225.625" y2="19" fill="rgb(0, 0, 0)" stroke="rgb(204, 204, 204)" stroke-width="1px"></line><line x1="1327.7604166666667" y1="0" x2="1327.7604166666667" y2="19" fill="rgb(0, 0, 0)" stroke="rgb(204, 204, 204)" stroke-width="1px"></line><line x1="1429.8958333333333" y1="0" x2="1429.8958333333333" y2="19" fill="rgb(0, 0, 0)" stroke="rgb(204, 204, 204)" stroke-width="1px"></line><line x1="1532.03125" y1="0" x2="1532.03125" y2="19" fill="rgb(0, 0, 0)" stroke="rgb(204, 204, 204)" stroke-width="1px"></line><line x1="1634.1666666666665" y1="0" x2="1634.1666666666665" y2="19" fill="rgb(0, 0, 0)" stroke="rgb(204, 204, 204)" stroke-width="1px"></line><line x1="1736.3020833333333" y1="0" x2="1736.3020833333333" y2="19" fill="rgb(0, 0, 0)" stroke="rgb(204, 204, 204)" stroke-width="1px"></line><line x1="1838.4375" y1="0" x2="1838.4375" y2="19" fill="rgb(0, 0, 0)" stroke="rgb(204, 204, 204)" stroke-width="1px"></line></g><line x1="0" y1="0" x2="1838.4375" y2="0" style="visibility: inherit;" fill="rgb(0, 0, 0)" stroke="rgb(204, 204, 204)" stroke-width="1px"></line></g><g visibility="inherit"><g><g transform="translate(102.13541666666666,0)" style="visibility: inherit;"><text transform="translate(0,35)" style="text-anchor: middle; font-family: Roboto, sans-serif; font-size: 12px; font-weight: 200;" fill="rgb(33, 33, 33)" stroke="none" stroke-width="1px">December 14, 2021</text></g><g transform="translate(408.54166666666663,0)" style="visibility: inherit;"><text transform="translate(0,35)" style="text-anchor: middle; font-family: Roboto, sans-serif; font-size: 12px; font-weight: 200;" fill="rgb(33, 33, 33)" stroke="none" stroke-width="1px">December 15, 2021</text></g><g transform="translate(817.0833333333333,0)" style="visibility: inherit;"><text transform="translate(0,35)" style="text-anchor: middle; font-family: Roboto, sans-serif; font-size: 12px; font-weight: 200;" fill="rgb(33, 33, 33)" stroke="none" stroke-width="1px">December 16, 2021</text></g><g transform="translate(1225.625,0)" style="visibility: inherit;"><text transform="translate(0,35)" style="text-anchor: middle; font-family: Roboto, sans-serif; font-size: 12px; font-weight: 200;" fill="rgb(33, 33, 33)" stroke="none" stroke-width="1px">December 17, 2021</text></g><g transform="translate(1634.1666666666665,0)" style="visibility: inherit;"><text transform="translate(0,35)" style="text-anchor: middle; font-family: Roboto, sans-serif; font-size: 12px; font-weight: 200;" fill="rgb(33, 33, 33)" stroke="none" stroke-width="1px">December 18, 2021</text></g></g><g><line x1="0" y1="19" x2="0" y2="38" fill="rgb(0, 0, 0)" stroke="rgb(204, 204, 204)" stroke-width="1px"></line><line x1="204.27083333333331" y1="19" x2="204.27083333333331" y2="38" fill="rgb(0, 0, 0)" stroke="rgb(204, 204, 204)" stroke-width="1px"></line><line x1="612.8125" y1="19" x2="612.8125" y2="38" fill="rgb(0, 0, 0)" stroke="rgb(204, 204, 204)" stroke-width="1px"></line><line x1="1021.3541666666667" y1="19" x2="1021.3541666666667" y2="38" fill="rgb(0, 0, 0)" stroke="rgb(204, 204, 204)" stroke-width="1px"></line><line x1="1429.8958333333333" y1="19" x2="1429.8958333333333" y2="38" fill="rgb(0, 0, 0)" stroke="rgb(204, 204, 204)" stroke-width="1px"></line><line x1="1838.4375" y1="19" x2="1838.4375" y2="38" fill="rgb(0, 0, 0)" stroke="rgb(204, 204, 204)" stroke-width="1px"></line></g><line x1="0" y1="19" x2="1838.4375" y2="19" style="visibility: inherit;" fill="rgb(0, 0, 0)" stroke="rgb(204, 204, 204)" stroke-width="1px"></line></g></g></g></g></g></svg>