<svg viewBox="0 0 1890 400" xmlns="http://www.w3.org/2000/svg"><g><g><g><g><g><line x1="41.171875" y1="361" x2="36.171875" y2="361" style="visibility: inherit;" fill="rgb(0, 0, 0)" stroke="rgb(204, 204, 204)" stroke-width="1px"></line><line x1="41.171875" y1="328.1818181818182" x2="36.171875" y2="328.1818181818182" style="visibility: inherit;" fill="rgb(0, 0, 0)" stroke="rgb(204, 204, 204)" stroke-width="1px"></line><line x1="41.171875" y1="295.3636363636363" x2="36.171875" y2="295.3636363636363" style="visibility: inherit;" fill="rgb(0, 0, 0)" stroke="rgb(204, 204, 204)" stroke-width="1px"></line><line x1="41.171875" y1="262.54545454545456" x2="36.171875" y2="262.54545454545456" style="visibility: inherit;" fill="rgb(0, 0, 0)" stroke="rgb(204, 204, 204)" stroke-width="1px"></line><line x1="41.171875" y1="229.72727272727272" x2="36.171875" y2="229.72727272727272" style="visibility: inherit;" fill="rgb(0, 0, 0)" stroke="rgb(204, 204, 204)" stroke-width="1px"></line><line x1="41.171875" y1="196.9090909090909" x2="36.171875" y2="196.9090909090909" style="visibility: inherit;" fill="rgb(0, 0, 0)" stroke="rgb(204, 204, 204)" stroke-width="1px"></line><line x1="41.171875" y1="164.0909090909091" x2="36.171875" y2="164.0909090909091" style="visibility: inherit;" fill="rgb(0, 0, 0)" stroke="rgb(204, 204, 204)" stroke-width="1px"></line><line x1="41.171875" y1="131.27272727272728" x2="36.171875" y2="131.27272727272728" style="visibility: inherit;" fill="rgb(0, 0, 0)" stroke="rgb(204, 204, 204)" stroke-width="1px"></line><line x1="41.171875" y1="98.45454545454545" x2="36.171875" y2="98.45454545454545" style="visibility: inherit;" fill="rgb(0, 0, 0)" stroke="rgb(204, 204, 204)" stroke-width="1px"></line><line x1="41.171875" y1="65.63636363636361" x2="36.171875" y2="65.63636363636361" style="visibility: inherit;" fill="rgb(0, 0, 0)" stroke="rgb(204, 204, 204)" stroke-width="1px"></line><line x1="41.171875" y1="32.81818181818183" x2="36.171875" y2="32.81818181818183" style="visibility: inherit;" fill="rgb(0, 0, 0)" stroke="rgb(204, 204, 204)" stroke-width="1px"></line><line x1="41.171875" y1="0" x2="36.171875" y2="0" style="visibility: inherit;" fill="rgb(0, 0, 0)" stroke="rgb(204, 204, 204)" stroke-width="1px"></line></g><g transform="translate(31.171875, 0)"><text x="0" y="361" dx="0em" dy="0.3em" style="text-anchor: end; visibility: hidden; font-family: Roboto, sans-serif; font-size: 12px; font-weight: 200;" fill="rgb(33, 33, 33)" stroke="none" stroke-width="1px">-45</text><text x="0" y="328.1818181818182" dx="0em" dy="0.3em" style="text-anchor: end; visibility: inherit; font-family: Roboto, sans-serif; font-size: 12px; font-weight: 200;" fill="rgb(33, 33, 33)" stroke="none" stroke-width="1px">-40</text><text x="0" y="295.3636363636363" dx="0em" dy="0.3em" style="text-anchor: end; visibility: inherit; font-family: Roboto, sans-serif; font-size: 12px; font-weight: 200;" fill="rgb(33, 33, 33)" stroke="none" stroke-width="1px">-35</text><text x="0" y="262.54545454545456" dx="0em" dy="0.3em" style="text-anchor: end; visibility: inherit; font-family: Roboto, sans-serif; font-size: 12px; font-weight: 200;" fill="rgb(33, 33, 33)" stroke="none" stroke-width="1px">-30</text><text x="0" y="229.72727272727272" dx="0em" dy="0.3em" style="text-anchor: end; visibility: inherit; font-family: Roboto, sans-serif; font-size: 12px; font-weight: 200;" fill="rgb(33, 33, 33)" stroke="none" stroke-width="1px">-25</text><text x="0" y="196.9090909090909" dx="0em" dy="0.3em" style="text-anchor: end; visibility: inherit; font-family: Roboto, sans-serif; font-size: 12px; font-weight: 200;" fill="rgb(33, 33, 33)" stroke="none" stroke-width="1px">-20</text><text x="0" y="164.0909090909091" dx="0em" dy="0.3em" style="text-anchor: end; visibility: inherit; font-family: Roboto, sans-serif; font-size: 12px; font-weight: 200;" fill="rgb(33, 33, 33)" stroke="none" stroke-width="1px">-15</text><text x="0" y="131.27272727272728" dx="0em" dy="0.3em" style="text-anchor: end; visibility: inherit; font-family: Roboto, sans-serif; font-size: 12px; font-weight: 200;" fill="rgb(33, 33, 33)" stroke="none" stroke-width="1px">-10</text><text x="0" y="98.45454545454545" dx="0em" dy="0.3em" style="text-anchor: end; visibility: inherit; font-family: Roboto, sans-serif; font-size: 12px; font-weight: 200;" fill="rgb(33, 33, 33)" stroke="none" stroke-width="1px">-5</text><text x="0" y="65.63636363636361" dx="0em" dy="0.3em" style="text-anchor: end; visibility: inherit; font-family: Roboto, sans-serif; font-size: 12px; font-weight: 200;" fill="rgb(33, 33, 33)" stroke="none" stroke-width="1px">0</text><text x="0" y="32.81818181818183" dx="0em" dy="0.3em" style="text-anchor: end; visibility: inherit; font-family: Roboto, sans-serif; font-size: 12px; font-weight: 200;" fill="rgb(33, 33, 33)" stroke="none" stroke-width="1px">5</text><text x="0" y="0" dx="0em" dy="0.3em" style="text-anchor: end; visibility: hidden; font-family: Roboto, sans-serif; font-size: 12px; font-weight: 200;" fill="rgb(33, 33, 33)" stroke="none" stroke-width="1px">10</text></g><line x1="41.171875" y1="0" x2="41.171875" y2="361" fill="rgb(0, 0, 0)" stroke="rgb(204, 204, 204)" stroke-width="1px"></line></g></g><g transform="translate(41, 0)" clip-path="url(#clip_0)"><clipPath id="clip_0"><rect width="1848" height="360"></rect></clipPath><g><g><g><line x1="0" y1="0" x2="0" y2="361" fill="rgb(0, 0, 0)" stroke="rgb(66, 66, 66)" stroke-width="1px" opacity="0.25"></line><line x1="205.4253472222222" y1="0" x2="205.4253472222222" y2="361" fill="rgb(0, 0, 0)" stroke="rgb(66, 66, 66)" stroke-width="1px" opacity="0.25"></line><line x1="410.8506944444444" y1="0" x2="410.8506944444444" y2="361" fill="rgb(0, 0, 0)" stroke="rgb(66, 66, 66)" stroke-width="1px" opacity="0.25"></line><line x1="616.2760416666666" y1="0" x2="616.2760416666666" y2="361" fill="rgb(0, 0, 0)" stroke="rgb(66, 66, 66)" stroke-width="1px" opacity="0.25"></line><line x1="821.7013888888888" y1="0" x2="821.7013888888888" y2="361" fill="rgb(0, 0, 0)" stroke="rgb(66, 66, 66)" stroke-width="1px" opacity="0.25"></line><line x1="1027.126736111111" y1="0" x2="1027.126736111111" y2="361" fill="rgb(0, 0, 0)" stroke="rgb(66, 66, 66)" stroke-width="1px" opacity="0.25"></line><line x1="1232.5520833333333" y1="0" x2="1232.5520833333333" y2="361" fill="rgb(0, 0, 0)" stroke="rgb(66, 66, 66)" stroke-width="1px" opacity="0.25"></line><line x1="1437.9774305555557" y1="0" x2="1437.9774305555557" y2="361" fill="rgb(0, 0, 0)" stroke="rgb(66, 66, 66)" stroke-width="1px" opacity="0.25"></line><line x1="1643.4027777777776" y1="0" x2="1643.4027777777776" y2="361" fill="rgb(0, 0, 0)" stroke="rgb(66, 66, 66)" stroke-width="1px" opacity="0.25"></line><line x1="1848.828125" y1="0" x2="1848.828125" y2="361" fill="rgb(0, 0, 0)" stroke="rgb(66, 66, 66)" stroke-width="1px" opacity="0.25"></line></g><g><line x1="0" y1="361" x2="1848.828125" y2="361" fill="rgb(0, 0, 0)" stroke="rgb(66, 66, 66)" stroke-width="1px" opacity="0.25"></line><line x1="0" y1="328.1818181818182" x2="1848.828125" y2="328.1818181818182" fill="rgb(0, 0, 0)" stroke="rgb(66, 66, 66)" stroke-width="1px" opacity="0.25"></line><line x1="0" y1="295.3636363636363" x2="1848.828125" y2="295.3636363636363" fill="rgb(0, 0, 0)" stroke="rgb(66, 66, 66)" stroke-width="1px" opacity="0.25"></line><line x1="0" y1="262.54545454545456" x2="1848.828125" y2="262.54545454545456" fill="rgb(0, 0, 0)" stroke="rgb(66, 66, 66)" stroke-width="1px" opacity="0.25"></line><line x1="0" y1="229.72727272727272" x2="1848.828125" y2="229.72727272727272" fill="rgb(0, 0, 0)" stroke="rgb(66, 66, 66)" stroke-width="1px" opacity="0.25"></line><line x1="0" y1="196.9090909090909" x2="1848.828125" y2="196.9090909090909" fill="rgb(0, 0, 0)" stroke="rgb(66, 66, 66)" stroke-width="1px" opacity="0.25"></line><line x1="0" y1="164.0909090909091" x2="1848.828125" y2="164.0909090909091" fill="rgb(0, 0, 0)" stroke="rgb(66, 66, 66)" stroke-width="1px" opacity="0.25"></line><line x1="0" y1="131.27272727272728" x2="1848.828125" y2="131.27272727272728" fill="rgb(0, 0, 0)" stroke="rgb(66, 66, 66)" stroke-width="1px" opacity="0.25"></line><line x1="0" y1="98.45454545454545" x2="1848.828125" y2="98.45454545454545" fill="rgb(0, 0, 0)" stroke="rgb(66, 66, 66)" stroke-width="1px" opacity="0.25"></line><line x1="0" y1="65.63636363636361" x2="1848.828125" y2="65.63636363636361" fill="rgb(0, 0, 0)" stroke="rgb(66, 66, 66)" stroke-width="1px" opacity="0.25"></line><line x1="0" y1="32.81818181818183" x2="1848.828125" y2="32.81818181818183" fill="rgb(0, 0, 0)" stroke="rgb(66, 66, 66)" stroke-width="1px" opacity="0.25"></line><line x1="0" y1="0" x2="1848.828125" y2="0" fill="rgb(0, 0, 0)" stroke="rgb(66, 66, 66)" stroke-width="1px" opacity="0.25"></line></g></g></g><g><g><line x1="0" y1="65.63636363636361" x2="1848.828125" y2="65.63636363636361" fill="rgb(0, 0, 0)" stroke="rgb(153, 153, 153)" stroke-width="1.5px"></line></g></g><g><g><line x1="-7795960.402199074" y1="0" x2="-7795960.402199074" y2="361" fill="rgb(0, 0, 0)" stroke="rgb(153, 153, 153)" stroke-width="1.5px"></line></g></g><g><g><g><g><g><path stroke="rgb(255, 112, 67)" stroke-width="2px" d="M204.30818997456115,143.2006598559293L204.52749579836998,91.86817717084621L205.0137594692403,37.76014708653039L205.19474300431617,56.04610854956934L205.56308206440488,48.40715983935674L206.46605961150496,30.293161963969833L208.6155743332851,69.72712597850202L209.34332691233442,51.03748797379689L209.94516611709906,63.87009452453314L210.85710724705828,90.35224186715402L211.109285881639,780.5788137328628L225.8190674481176,400.40731364197916L227.55397960973667,304.7411626865934L229.41870917828092,251.13142153531356L233.08653120077,197.3594508030765L235.12611007527164,162.11821069589786L235.2312526644483,138.75424281706142L237.00239481959716,117.74030608737431L239.36976502419304,110.3627400995109L240.63635494630915,83.02080694601665L242.8324850541731,82.2053536187142L243.30742655486432,83.1227660621516L244.27143254886832,439.67098415561014L244.75465763647762,365.0357657342537L245.52330507631655,288.33369882499164L246.42127062536167,562.3563158283075L247.94494656535335,362.47564827139627L248.13960610271187,278.69006533736626L249.68578848178691,223.5125889962068L250.34047716129757,185.74259686349686L251.04724021528583,568.4378081102384L253.9914704730501,361.2478464484774L254.48072041980134,290.91363995882324L257.1836186915268,239.38815595949288L257.413904309936,211.73825519031112L257.43006729038063,189.45629017107473L257.55196726204827,147.47707374421046L257.74045928377376,125.73540899622472L258.92036636666506,114.61949714958531L260.0759885595502,94.62394857053316L261.94707585238234,80.91267402365993L263.6140359720615,82.09193155534528L263.6929773190345,74.00121262603298L264.1170998223701,57.3025214953293L266.25125519527234,373.05269226369006L267.65886105886705,295.3487905445694L268.07763869900174,263.2611904367999L268.2695164347833,202.0558742489172L268.69537459209425,196.92183719083368L269.325421740371,207.456756081127L269.91673289609054,178.37635438298642L271.1990150322306,159.65746526385377L274.361452658822,154.7347759283521L276.01392363421905,144.88489985512768L280.0675411160944,125.04737999772746L281.2341621244454,88.2676289682401L282.2526676532761,136.5627904257797L282.26596323824907,130.57254714522657L283.74934822993026,151.92656279449363L283.92598074202675,126.21761624833115L284.51535652468334,101.0183300632229L284.6827829378858,102.58756124065849L285.0102556684832,90.58717282167056L286.9375115770882,78.16098481618852L288.07212997926314,65.4456956136052L293.5451319956838,55.19684985303253L296.729605294938,262.32405886667294L297.19207386308835,235.89382460937804L298.115560658396,229.600870897438L303.1931331470631,243.30281446490415L304.14757640094524,207.91642974583996L306.2970340601289,216.3312793767779L307.0703511224441,181.33499728977236L307.30685180865,162.42178704315606L307.6071722537696,150.42713576949618L307.892770549005,118.17830494863594L309.21371734945666,111.83994588106222L310.37479377551927,105.11513363097883L311.53036841624066,93.15300501223751L312.02508210660204,131.4932513398857L312.05100279103976,148.70541193942418L313.0013137618956,143.02257121271995L314.1808974900736,97.42305444054576L314.6847792375981,91.52076005035947L314.6954214118361,109.61008833802956L315.31939614880724,84.22540979692666L326.180091599955,67.98241081990024L328.072819882491,76.72267964130918L329.4760604574572,78.04586591479854L330.1069730551135,74.73160925368758L330.14756358205534,107.81981014995911L333.5241713987751,101.37328864806742L334.3393961829668,74.8846166959466L334.4544153565458,134.18003209384756L337.0641161426183,111.71128055599975L338.46033326300477,87.8870119276995L342.50381262357735,90.16820200457451L344.3134149687339,113.4967896126687L344.9701579017168,89.65687329990803L348.61628662712195,67.5898162142452L348.85068075247557,67.73112852751207L349.2357676846226,61.965535556225696L351.08272700958884,70.24280999156981L353.9927292199154,98.33782401361822L356.3445926639259,63.9995934319138L360.8221281748328,73.37839398381996L361.60305358334136,49.10338369713822L362.0833874993972,59.8074739437184L364.0726989816422,51.13490327758616L366.28252886787067,31.979107563333862L368.80309312307094,56.06125605505402L369.0139917243361,94.9906717580227L369.0715916602366,65.43795740032634L369.33544435100794,64.96063963876637L372.95061186262217,61.71015544052195L375.51199013993374,81.25316250910063L375.64178852599343,83.27543389886921L380.9739220126431,81.62641904779402L382.5083875385803,694.6480632351612L390.64057312262895,374.83139943189565L391.7614679703575,333.4309110349307L394.02955401234567,433.31641612751736L394.15715073322565,368.6864325224617L397.70947806049867,304.2915079527544L400.06972495097096,300.10277348967395L400.50216908295556,223.92007122172953L400.6355861886735,161.8836511815327L401.16215031828705,167.08132296865801L401.4794278649852,164.0301558572214L402.7405825747894,122.53526778634212L402.9355416907793,117.3790354680028L402.99982746089734,124.05617827634426L404.31152536550763,97.6282473012937L406.1966500570666,97.0882669588654L407.59084621049544,56.49577762202678L409.60033407580215,47.76672424632758L411.4030793989519,62.85925077353722L417.31699934293016,59.02945262431802L419.4741794735002,45.00442631134888L423.3158997586725,50.07855025895877L424.08586914866254,60.081421761786636L424.7804493383086,91.51132073951398L425.68071165686086,67.93864292091064L425.9490152301553,49.966605414009216L427.5298774022232,34.304912587565845L428.09263348363555,29.162070619567025L430.6356328496737,25.418369741942392L432.90127946566355,25.42175852912533L433.28746485279225,67.61065091742672L433.69802072382174,58.85247812128073L434.35559106445317,56.02560691433071L436.6459933368698,31.12693361212371L438.01288028268067,57.0533915581128L440.4059143900302,47.03974800040708L441.7158053124196,58.862896739315524L442.5536791921859,52.54592949046995L443.73440417229295,47.173534577237824L443.929044688786,60.11567606791369L444.8467776722849,58.154099223763296L446.7312318783356,23.20230377404645L449.1309613303353,59.702170641774394L450.28330717914093,49.68490582992635L450.6849184881768,83.74129803865083L450.8047832272377,62.90196907691318L450.91287405056426,75.823606136936L451.56056305157693,48.768827336682314L452.6660082013166,55.32519473693848L452.91540027910395,92.3910379590086L453.683895552019,153.7936736427148L457.2226419813368,165.87381167854085L459.1163783697435,148.33954319987663L460.2739311804752,167.24666294536502L460.65622680061244,144.94959507414626L462.4571318550267,132.20533474133532L465.3367957849071,164.37939934043413L466.4644858368297,138.38369287276723L466.7624096528984,148.30006654091324L467.109849537037,114.00552433924251L467.1741115310732,114.90496114539114L468.2966231523679,141.25463932726333L468.38134684244795,160.99227150028796L468.5114115206244,137.25983171187514L469.30723026680647,141.4365888730727L469.3980168577594,84.40599622944433L470.34915048104745,128.34820999306226L470.4300176906507,58.04440301173106L472.94790951425057,41.65962537563469L473.092834243586,29.627973533937286L473.34778992452743,49.49765471754771L475.6163277120708,312.72742803205875L475.8141019161522,171.74210607718155L476.38546493919586,238.0260926995614L476.39614515516496,223.95400494428083L477.11149612991903,203.00026030829258L477.1567182376061,192.98197430774212L477.9013328139066,105.54356468378619L480.3039724583253,151.60828753801772L480.4620120744117,164.52256504433137L483.12959810936695,171.5110024850393L486.6540123165429,137.14143235407712L487.28507232590664,72.477757581831L489.9692398003472,64.45798720708125L491.6252058597769,77.03012949006065L492.7837144689992,61.87745286500398L493.5234834798177,53.87075193242868L494.66179668511285,24.290665930866L495.03620340129083,31.34904870488574L496.22010486593365,-35.557260603973596L504.043025442869,-43.28848844385414L504.3936750980581,23.149771947982305L504.98208081657503,146.25388871682472L505.6014001967191,172.30091590298818L507.6633380985967,170.4905785707928L508.80462331412366,259.2472328569421L509.2573579543628,222.27666194168143L510.080115001286,226.84020998848408L510.69337623577354,143.2915568729876L511.95069348596644,199.75715320430513L513.0997392146106,133.24509232657766L514.0042526965985,133.19001054676622L514.393871349947,68.0296463576965L514.6066102199476,14.638331524615891L518.7762882677871,46.25049630803605L520.3332554775914,123.06071087527093L521.3135671085311,131.42285523427896L521.417482851884,88.92550658858447L521.9329815930025,-13.868122122620523L523.4136893978668,2.700500649188206L524.1381751432693,185.20333743257527L525.9159936222029,368.8824316485886L527.5550596426505,333.47056606001235L528.5506069868426,283.62537447902696L530.9713164534706,256.62015388472867L531.1224039432227,178.51580902483227L531.2873196021814,126.19718791333261L532.5370855687773,179.6142264521435L532.7567670546795,182.8271814494034L533.9100782124083,102.36782417325728L535.8211093227559,226.62589267985211L537.1918812803417,117.21990417530459L537.2202604116432,169.86513587254117L538.4403633385175,191.60427773627225L541.8816706291796,154.07301733868206L547.7216136720759,170.8331491862819L549.0808256986642,52.61267627304776L549.1747887741528,324.1915039145894L549.3351822223428,218.85371517874322L549.6010701457208,146.0845424167339L552.6279270431455,86.13488449236368L552.7322707559719,161.77530636107915L553.6439693698961,168.61284827221422L556.0475457919399,185.21659985187742L557.7467890755611,175.28180774969363L561.8284433131591,112.19119965495383L566.7797220102318,83.86539630881691L567.743794577265,99.76535209770735L570.5463241423932,164.5443899039699L578.6203344093606,126.1905467682437L578.6254795534738,105.98847972210845L578.6494838857141,142.0709126931236L578.8078468565136,119.79898469122698L580.784880370089,70.04389604097824L584.8214028491111,47.46567918020956L585.2410459386252,83.61321399734418L585.5427025995451,-0.738625633621554L590.3534646528582,408.3154713590343L590.42390367296,337.19416983453715L591.301825985002,210.48947743190016L592.0098586817611,229.9259655041302L592.8183548347881,203.94266502452382L595.4495967510207,175.93059027739935L597.1700150131413,124.08689951918052L597.1884319661459,55.29920331098177L599.2461424806697,49.617628838481814L599.5890411331742,-41.415187825299135L601.235392145102,63.13994606566296L602.3775618308739,55.470798121752864L602.9694198364759,59.0956729409539L603.9566360415863,49.06046272525459L604.8994623018745,57.93247345201466L606.1141823238169,-2.724702428534453L608.4374859383038,55.50518942523592L608.6901924019016,52.323383896120454L609.6890065797405,29.035430025524814L610.2460564015079,64.6240308905649L610.575783104665,46.45492190310449L613.069009620949,2.356586189871212L613.1482553017698,26.901640853928264L614.2027245320136,-30.243310133068913L614.8322771377877,36.932497042404194L614.8355772579491,36.312981713603726L614.9404012476289,86.48396417997223L615.0887021805877,94.80756697131068L617.9892367551199,67.94689280626797L622.9703449244872,66.83239945977189L624.3286582151813,61.959227015966285L626.4915874023437,40.98156089590243L628.2788925379373,-16.460412012216292L647.2032651708784,375.77854996529294L656.1843139397264,258.73544818463967L656.6103195087449,243.18445013514497L657.057000758544,218.9118576131439L657.8289816050587,200.06305681340814L660.7260258507748,199.46280315893043L661.3386498862686,145.66298512063202L661.7419207658179,131.8559641519029L664.6318844943577,114.50568208915921L667.293816577048,107.81228057149106L667.5697950695651,115.01542697072128L669.4787719264403,72.12115583385096L669.5814703344023,58.828704792107146L669.9697242406523,101.94093571534216L672.2216045052486,89.28549218608397L673.7613530765738,103.62675164251677L673.8354108163339,91.57252852638753L674.2619727456677,131.52341154730405L674.6301834149144,90.62800572547074L676.7697882657777,96.94467771319475L677.2749016143423,68.9583238260791L677.2954584147136,42.69502710771666L679.0637189087416,63.71772058141963L680.5581692889178,163.65037747869516L682.0593007480951,167.95627276468508L682.4101548775881,127.10570271541307L682.8372446359391,120.83242831061717L685.5755074518148,97.95097746106721L690.006670092673,102.51655542018003L691.8742480358234,56.77771212558589L697.7343627065651,123.84311472118007L698.1243142250595,93.41043912398405L699.2158123251833,175.6923079346357L700.6475699327257,135.179056543186L701.8986340733909,98.6743422830733L702.0067296519338,134.94544009168902L705.6584837983057,99.59327086243256L706.5299960786796,62.39763988401118L709.3671769055026,58.86630072196998L710.4723034557453,63.27520510866554L712.7433234662342,-3.0583402415397707L713.020248246809,21.752295912536592L719.0171657373248,29.360833934055044L719.4583547122154,28.33098893469883L719.677170748738,21.663976128176053L721.0399349219554,175.29332137902696L722.4719302903164,103.2638322383059L723.8990325410317,104.27291924515644L730.0458392067741,86.62309104225724L730.1725134156779,120.38486570186862L733.7950182261526,126.84130440650407L736.280403390641,110.08179013893071L736.7434330743232,71.73253588832478L737.1625958869839,95.91709110087525L737.6278985640914,344.83107274029317L742.3939615835181,302.45555985153135L743.3135681222673,256.9870420918222L745.7139300180443,230.14608041435983L748.4599343261718,182.52228260676074L750.9854820481288,123.83429965163786L751.5942733792278,108.77568906917033L755.6463311501334,106.54120797783406L756.0556126231754,81.18660312125401L756.3345821467898,69.88904964720723L758.3140455759308,76.63850133882659L759.3138678596403,66.95704670895573L759.4473182518727,64.36505914356185L759.6063945051279,99.39133462650642L760.1099338770737,84.16556781720304L761.6893314424993,66.44815263585798L766.1195002431359,85.14001726097392L766.8972539223251,87.99384552850333L767.0458686995644,104.57793601947999L770.5715620599441,100.57734790973483L772.7360985102398,73.67029205426368L773.1954571668837,59.778017970755975L773.4952497829862,72.44704152275469L776.858666629493,50.45836069355577L777.1482212647489,58.50019738262413L777.6629781921137,67.27700033786368L777.884766238868,60.69193255018017L778.0046499987944,62.04007251483307L778.7585610231,50.06100716779891L781.3748240077643,71.62174034907396L781.8188993989921,69.29584259071372L782.0195029568142,70.33868781189516L782.5166608283902,44.95217533876197L782.5822495277939,48.80368646135483L784.940508737823,59.68930242079295L787.2179673112784,49.30078062510208L788.8570713734568,50.264186577421725L789.5961461226852,75.72399139699718L791.5013568481947,115.430702780794L791.6703001754196,119.15427198592477L795.3023487051505,100.37200470190348L795.9106978011268,108.06264160142264L796.5554243023406,95.63880939085874L797.056742988241,91.97004078563498L797.4716546374663,78.91229918196636L797.9170424684124,72.4573185987612L798.2003725254389,60.001647396743294L798.4129164315683,56.712572882637225L799.3099452029884,84.78101951483444L805.3012372725373,102.31180419484046L805.3566973610709,75.90653195020148L806.2457231033388,52.43310947380312L806.4172437578367,52.85212325197874L806.6449044968091,51.1938062184122L808.0545455930106,51.71555661535874L809.0161787340455,55.9358630411008L813.8188902060426,85.45310973412566L813.8643167880338,102.17553933699982L814.2255753309462,99.04995747185619L815.9690326163837,93.86733808751964L816.8672454366802,89.76019226515943L817.1284827584475,76.31471589930726L821.5539962022569,62.079302786142655L821.7006328094859,75.325571755309L822.1456972857188,66.02992466411034L823.2284220116384,93.08734929148486L826.010313937717,95.16530841719971L827.7745182321808,81.92078616597114L833.3092334466628,81.95275592947814L833.9210776266717,74.72000835007839L834.3959525543338,73.28553405040442L835.5355686889146,89.9724878913173L836.0983818329235,214.63940473401453L839.760055360645,276.1849563866608L840.5953281370563,243.42160153898766L846.6491608123151,195.54035269278378L849.1951749855324,288.385062997925L850.0282793832787,264.4271940500608L852.5733567788709,210.84499268040918L853.2305704782744,232.36556791277192L853.7388698218075,186.97418414451306L854.0924582007137,172.5246727381467L854.1907960752637,196.99861532205014L854.3303378996673,324.9248284698914L857.9796621304736,275.95830919268406L861.7940922288934,226.7441787643441L861.8139167259436,207.67033413527054L863.7039915977447,172.4294291126002L863.8234331225485,161.33864343273376L864.8036781804591,130.90933645341755L864.8286335559735,116.66278095444486L865.3695346629453,97.43228401206082L868.2696697993024,648.54039777449L870.3846331189316,379.0113545346968L873.4431597573865,339.30623244664497L873.9042445575731,382.3524892762812L875.4631043434929,314.340121240877L876.4456223948285,244.95681251741087L877.5098112873345,216.64235298572248L881.1486740421248,201.08375222171006L884.0358940108185,172.88310556515194L885.0640954258295,165.58164399168007L885.5339536002202,132.43226773885547L885.9666117169415,115.79896945779227L886.4702557036475,125.93348492566133L888.8473217944236,111.07878538271936L891.1518375490291,109.8107351262432L895.5651395971981,108.1029685708362L898.7067303552195,120.68842161865199L900.042955665871,120.89917881461336L902.6493515765657,145.8177589876869L904.6818261578094,137.0263854909213L905.9316206557035,161.26657299581098L906.0397019685972,132.3818869722996L906.849054060571,112.68961231664946L909.631245565281,94.97296260789949L909.8864722935555,87.41078896106225L912.3157411496512,80.36903560759357L914.6499960274401,83.50917239294694L915.4028656593606,54.49956932754151L916.0482198491352,76.06088644166621L919.2141715806247,69.20248801884853L920.35082046019,57.94013575960821L921.9854879054944,59.44137826738935L921.9951647708092,72.45897439698211L923.6671701750579,91.81159109579065L927.9546064011059,143.0724791001832L930.195982392739,140.27740957925946L931.3865887124647,114.46769604763537L932.2780538807308,99.18756135811044L932.5907711749293,85.35112157302106L933.3489333626703,85.03661556630632L934.8739978258423,74.47908586711347L935.9267266468944,82.36902832442993L938.8273658361866,73.52148980388914L939.3096541461709,157.41039878445977L940.2843926635239,169.16835072107796L940.9703040937259,146.37593442474164L942.3723511093831,113.47518275442468L945.1084265257282,104.92722778881756L945.9177263103218,89.93500856975876L947.1745870597431,77.13757937492534L948.944088665244,84.65562765447812L949.3371358295959,81.49414323607304L950.3505199903951,75.10998482669677L951.4121315556279,53.20460561607043L951.4462692539545,49.820499610307266L952.9691130310813,34.75620807507709L953.4428752381124,36.61862620072614L955.5032296529386,90.98457286100988L956.4845161032342,80.73585198986171L956.6013137277359,103.23799257094791L956.9635280691391,94.0411614469512L958.2173359696502,95.2546264871924L960.8752451392908,81.92149337306658L961.1845767194332,96.77734678454239L963.0859880270624,89.06082688867765L964.6967272235886,118.56709026737295L965.5335216692388,164.57310548526843L966.9444419186439,133.5834841933028L968.9454322122957,101.59753559955303L969.7474279845438,91.77671744631404L969.9652073838975,76.02217662822763L971.717124199259,58.458546091367026L975.9185242955086,53.616394311597524L976.1554577064044,52.46147406857172L978.1027330759308,72.01799945538889L979.4025191635319,58.01840124657878L983.3886553698882,107.12925792649274L987.7293452640737,150.3643309337549L988.8918244789656,165.73340006008155L992.410484874333,127.33967938132963L992.7897847081565,116.91253413820343L993.9391109945666,106.2108506248209L997.2470392212416,80.67414168030984L997.9899989822451,97.5013816501656L998.1356940566327,79.9596821351371L1003.8513547644595,77.87465700026942L1004.4306447331935,57.483004262880556L1006.9462065007716,50.93646442709877L1008.4159392662518,58.256939768204596L1013.5749305696213,76.72105071028281L1014.5735735596706,105.7953895538858L1015.5671332234198,102.22482907802706L1016.3152856807002,92.15662821946665L1017.2424244821807,108.1229225091614L1017.7006513973283,83.86532719795699L1019.3852723906089,78.65218094432936L1022.3961137192966,55.21756286466811L1022.6189812001672,49.27457694043264L1024.4182314392845,47.8117191248464L1026.7679122389804,53.96546579706103L1029.4376951838992,70.70529069733632L1030.4437943532182,69.88234606255523L1036.1206239641604,77.44318915651574L1037.0084228606047,79.90695300941327L1039.0600704742558,86.0868275600813L1041.0426723462015,84.31004344975658L1041.9537622924304,81.04852117335389L1047.3550794220598,64.04517270903568L1047.6114759335615,54.48450206578525L1048.7036064774627,48.3427042198267L1049.3453847445264,69.7821039221241L1050.3500335728525,58.37633683859987L1051.6978425905832,53.05671162666015L1053.5950693078062,58.68586328367933L1057.800216514556,52.47476859481985L1060.865771362807,59.58981055766166L1062.662967348452,72.88986973768702L1067.3210631801778,64.40119442130066L1068.586064860026,63.39659160329738L1068.6011246302726,119.41462838516509L1071.861424609777,115.01567934205505L1073.942911206155,93.8102938640271L1076.2400849066842,83.37285300873836L1077.133138317218,67.811660132007L1077.2458084139098,74.3954513477127L1078.8579503992653,119.1105564784769L1079.0329899138776,122.35385206610582L1080.274529356152,113.57963344060174L1081.134467439879,88.71786820169233L1082.273470151548,93.38270236723895L1083.380741304374,119.2143431432239L1084.2345689350645,119.82620432336643L1091.4138424449027,107.3812241915206L1094.2963975463365,103.92938953106199L1096.9696375335568,84.37567360249648L1097.8677267182275,76.9307405601958L1099.352847363884,67.31080432609637L1099.8545274462288,78.10555234699578L1100.4467183169768,92.42606975002194L1101.278705238876,91.22128239055405L1101.7440649785801,71.13692433575717L1102.3859193291055,75.22166100085008L1104.6413850268455,63.16684580395827L1107.1703422389403,64.2969179704634L1108.6427284151555,71.4536644081316L1113.0363961749292,47.513413158774554L1114.4895760322224,68.47171671158003L1114.5528251651717,56.26581670548074L1115.1149107610756,54.32048420372696L1115.8074319420332,60.03015603791166L1116.726073171859,73.52115003439827L1116.9994553162373,69.7093866914874L1118.2119546521349,75.34081481516733L1123.987649966644,89.25376129334951L1124.264974185394,178.71792554950937L1127.5385982811695,157.51502623744543L1128.5672989938996,147.84049885021125L1129.1907839435844,102.7053429169037L1129.6705852754067,88.45188637420938L1129.7261785099986,895.9307468422418L1141.3905197934753,379.30628621194535L1147.9698942268278,307.95778019271L1151.684540864921,230.98926050405584L1152.0003395393278,190.18422340803897L1152.310512792768,165.76938513578497L1152.3551642744903,162.18553063161312L1154.4806033357847,174.41698812183304L1155.226073851032,162.76411415493584L1157.5183591891316,126.5188209703451L1157.6364169459716,98.3587582630786L1158.2473909213847,100.88226189802917L1160.0229411621094,117.3819515582022L1162.8610730322066,107.97191093047265L1163.3020480223604,85.43866995288388L1165.0091326577772,65.35902247125193L1165.1405906143502,49.76529631060613L1165.5218876390497,38.98790800525816L1167.0433143616979,38.34492942458628L1168.270107878006,51.109281592755934L1174.6090775925122,47.104963276342026L1176.102610215929,52.32397420915899L1176.9599757275992,59.61860758479095L1177.7327649608972,105.57952095360625L1178.3841582754628,97.32712122653663L1179.1107125399867,92.30482065469197L1179.754740024394,87.14113789775296L1181.5258393825954,82.0981017742927L1182.1096943590455,79.78393237983853L1182.261352474762,136.47687331868372L1182.4673294270833,192.9755428634168L1182.5846358597366,170.34217952938766L1183.0924739472819,136.71111329870243L1184.6578198483312,135.13136495190855L1192.895010120282,121.83265870413473L1193.387232077265,128.45114969279396L1193.5761710893294,105.66103561769566L1196.0380607297293,119.01592657051503L1196.0481037467046,101.4122352361004L1196.3300785670654,82.42543870072075L1197.2068406063127,55.992467420483045L1199.5869119938352,53.926801714982346L1199.7912769278066,68.33837987510094L1200.193905853146,63.60474562327349L1200.4519476695118,64.42748930157978L1201.9420850684398,120.94437230775011L1202.5314180541488,95.97993424629912L1205.4581015635047,102.91360736619234L1205.4764566986962,90.41664496533211L1206.055309187524,92.68643727652329L1208.3650794562195,85.66186453433338L1208.818831712762,70.11704596393787L1211.6215182000306,82.75825162465945L1211.8426214956276,83.0001118679895L1215.1042909774467,88.03108895250199L1215.1176721563143,80.90180365960641L1216.7041692597818,63.91729049407279L1218.7918186165768,48.30906405925721L1221.4138401682662,91.1676978336163L1221.907536242324,82.96489345083394L1222.1574751699943,76.08882512238142L1222.5171787571535,49.7337205025501L1223.3624993057565,42.45612351308981L1223.7334252035512,74.30379830466966L1224.0023279341083,53.02804818804557L1225.103303180459,72.06428366581395L1225.4143609041441,97.52180320417511L1225.6606145391268,116.73641696674105L1227.1279792068544,94.88006116057436L1227.4925045834136,77.5733349040973L1228.1517963123715,73.26649689005465L1229.7483887401943,82.56340943950238L1230.4263209173257,62.79447141756565L1230.5377784338427,79.38408468661738L1232.2798995034802,97.42033898618783L1235.8665785138166,99.63900687446251L1236.9354322735821,88.69563494125781L1237.5234147778422,91.57477940081476L1237.9289729164657,103.59503201411314L1238.017557842239,103.01199372632124L1238.9308827401621,102.10380921764447L1241.4433155753682,63.018469678760766L1243.9961772601594,56.06087519239767L1247.2829590396332,51.708779310087984L1250.294841760706,80.55165089003708L1254.7216628890176,64.1891451469614L1255.0717989808386,64.40155994172969L1255.1002351747363,79.00924637809162L1256.3377184174462,57.60794528014022L1260.0147417836129,69.30960824152487L1260.4904916710873,79.02768601025294L1260.878265300484,69.13186939401237L1263.3809974942933,61.317834958384225L1263.607802294319,67.74982592301727L1268.935670351884,53.73635960482329L1269.7917091581871,52.19041085041297L1271.6495912151572,57.021618919252L1271.8167228049447,74.03447689018195L1275.8395502608184,85.77547046205338L1277.459457514508,113.596987584811L1277.4692532602317,114.43332356259616L1281.495932441366,107.86684445526166L1283.043717328358,83.96883968612077L1283.1007513935103,87.45907625472796L1285.5046987224312,86.06604055482795L1286.476279776114,90.77172476187431L1288.5024727165317,133.03840926404663L1290.7571918453011,178.7206928910548L1290.7757704756623,166.88080830518405L1290.8309737825118,136.0754721040066L1292.229226135505,125.55644200330411L1296.0306364515016,116.3800077099294L1296.9894212179302,116.78697844026425L1298.1356185719683,105.59444512906153L1304.5344517053675,86.91589446672407L1304.5947906458975,94.04806859393675L1305.523194334933,93.48785413622026L1307.6209437712996,94.905319315956L1308.0585805995613,71.57433069529517L1308.8929403744294,61.45200623631395L1309.5323648093895,42.177492017080255L1310.3419546621817,77.8070693046893L1310.4666602115083,64.63624374187492L1311.5586861406491,110.37284253839222L1312.6114625138648,77.4560580146774L1316.392972249349,62.51133688639439L1317.1140770359118,52.25565269572631L1317.2320824853716,71.87723989993924L1317.7859748434687,56.498375938120134L1320.2627340454603,62.557762140643106L1322.0120735335488,46.90709283268481L1322.4216355643566,45.118944870871715L1322.5072817664127,49.24534648478172L1322.673576438119,83.94051455057895L1323.339411344803,102.77043526107332L1323.9587972979762,104.73465904959696L1329.6500257040893,101.45578737885278L1331.8888671653967,84.24632413811469L1332.9232979138535,63.779639659000345L1333.0147882768292,72.08501804537667L1335.5473261668515,71.4083314380698L1337.3370184210632,128.4798548824599L1337.5317540418837,94.93067980514536L1342.748159827715,82.092987230555L1345.5541797216595,77.29523867845096L1346.8946942374773,74.04110822232394L1348.2667596139163,82.02497662982877L1348.3094947434415,84.0767473507884L1348.394751017755,102.1745732749932L1351.348967229898,105.72539881197461L1351.5232887068385,111.82027439159543L1352.2962586383585,99.68038324270107L1352.9660974372268,80.1986387528849L1353.5735287764435,76.06947094887862L1353.9300083269031,82.33662970710392L1354.0589460188,124.45389407891511L1355.6652771297502,115.82854120303206L1355.8455664032358,151.15088600913015L1359.2169577475968,116.58013935069968L1360.8167551912536,103.76064762912014L1367.148867883753,95.43058172561773L1367.9800273980034,75.22478442390722L1368.2680460983715,57.06100932840383L1369.6423416712882,68.06351257626703L1372.2242719937549,81.54578160943194L1375.0144332411023,67.68756611488487L1376.7714191171153,69.13871925109319L1378.6391587376222,75.53629021812255L1379.8591950914674,77.60070541069321L1380.9700326565714,97.00514966424832L1383.559590346097,86.53615975198618L1385.1135760352365,91.75602359589799L1386.9734410174335,85.71592576278057L1387.8778403742285,75.96249440112929L1388.207381623947,81.82740725030905L1391.3631809684848,97.26142566124975L1391.7346061639983,91.00914688190977L1392.5571064292376,89.81492086851489L1392.7557603483474,80.80368153374708L1393.8680054574975,75.27478847782304L1396.8618231115775,61.55534535459182L1397.2492828966933,54.67362916662204L1398.7439995689863,70.47735000424628L1399.585967690048,101.84355245689301L1400.6829010024835,93.40935664530329L1401.9548976056135,77.91586970362964L1402.4502199636704,75.8069376463271L1402.8374372327514,64.29147422385628L1404.5818883584107,62.50512070832078L1405.1728000759547,52.075827171692254L1407.557698008094,59.13758437954593L1407.739556502982,79.14893552241313L1408.2856978583943,66.95698210984835L1409.538640309526,45.30136938292462L1413.340763907978,43.58730592988442L1415.9307067700297,51.121533005982506L1416.1689003132635,32.772869528413096L1420.7841516454876,35.99536673986518L1420.8088217080199,25.25803026329977L1421.5800559855645,45.78929522953972L1424.396280573841,43.444681946011706L1424.8267845775463,62.09800444396248L1425.050921701188,42.0920565301191L1426.6526925596386,51.43567862500037L1427.7834354604713,51.79851843288951L1427.908659328382,59.242549869214606L1428.0627473596642,58.77078541443079L1428.2729326784738,69.20104830970165L1431.8378851052114,58.16767533739212L1437.458008760931,75.37039462169194L1440.5388944267618,53.759917512476285L1441.6363555682146,90.13390483804578L1442.5763857612767,117.41918644037683L1444.942414994856,106.25909772854568L1445.6429201841001,105.97309610903535L1445.6706240746769,120.3901415017361L1448.9429785276814,103.89383588082161L1449.0271696335278,96.30733595415917L1450.5516016529225,96.69399434549844L1451.8873561971532,96.75165892268656L1453.1505889365112,95.25170132015144L1462.458701487349,104.445792942901L1465.8884108052823,98.96708629759199L1465.953680905189,115.55525796386432L1470.0674090772086,89.01571333760293L1471.6389557804061,113.5195276526259L1472.6785364281925,110.17264662479195L1475.2485977305973,115.87371427878293L1476.0349298201195,103.49472904923321L1476.7511414890366,116.06512184483613L1476.8680437282987,104.10986300608266L1482.0124127413274,101.0580781788224L1483.4245645917729,90.80160386344497L1484.6283809025767,102.2159464928887L1486.0141270365145,108.92309647841601L1487.615251185539,111.19458168928554L1488.5397651075828,95.4621730097375L1489.2870568706999,122.84599195565748L1492.4400696584441,116.95841068853495L1494.182361915871,137.07615439574496L1495.1256541873634,141.17948688981656L1496.2556505192258,137.25571149382083L1497.2603611653644,116.73692350789818L1498.2629700058674,120.91448303411099L1498.2923049356593,133.71177440406933L1499.9834691066662,106.18102087175772L1500.1670061929333,126.00355785497264L1503.8736688227398,126.29206885481365L1509.478556765207,119.242134521226L1509.5268697635352,157.7403188813678L1510.153749937709,140.05432098181467L1510.9960081269692,115.76489651555275L1513.2749645935812,105.52714558584428L1517.9509685701598,93.4455866427884L1518.0957316221386,101.85273235248054L1521.2559200313867,84.90156657140076L1521.5887851773487,68.71809705504216L1522.004353046433,71.81941932263958L1524.1086171292277,64.88626461333547L1527.316771406009,59.40072450041165L1529.2212688490627,71.84964725645682L1529.262682028437,63.79004623768114L1529.871630281676,77.57011527468089L1530.1067519551343,95.75134109328185L1530.742862004284,74.09437288775239L1531.0664021709426,74.2191355531641L1532.6294798337835,86.34108698172979L1532.6876741717304,67.57296509200009L1534.8791489227672,91.54423813001978L1538.593343815305,144.11649820598862L1539.1885590036652,101.07089701703177L1539.5182999724714,82.9981369661654L1540.7071896590874,79.840170137362L1541.3734240039464,83.9922444145663L1543.3365247335553,74.3997909129942L1543.3853988474152,96.3712106466201L1545.3843871949748,69.13401928160769L1545.641943979271,50.91735186202021L1546.0136830190652,66.27910420146293L1547.8264666039738,76.5723043233796L1549.251219777802,159.37693441932402L1552.4946625152713,140.74092255308864L1552.4995603881332,115.59320066376364L1553.1212573764628,97.18443642538804L1553.396456013495,112.49026768069967L1553.8889870595422,92.50589145351597L1554.0681588571808,104.69224931777798L1554.3279030410076,93.70339545640549L1555.488171080287,100.04109766147592L1556.4798429231369,73.10563766022877L1557.6024686696246,64.55374223837303L1560.2310619303387,40.45207448014075L1560.9874171358588,40.46801171047094L1561.5148942670155,57.01039151787459L1562.4660611768181,23.427793658261454L1563.3820680167744,28.467594294212283L1563.4825362282584,76.07043439936035L1563.9975546925236,80.08234779886844L1565.6347899546683,66.81798816502031L1566.7285515377844,45.30793602928219L1566.827792903445,43.76986378220303L1570.1004802215953,39.5456113437222L1570.9767001661762,38.60236387176585L1571.7292702194654,51.21587151754844L1574.1186618310749,77.23611421467855L1574.9845439352657,88.03472964204786L1575.9323441518775,67.71867643333623L1576.074230297952,77.95433068191487L1577.3470162669994,72.26483481924193L1578.0751492633585,75.7060630901472L1580.844525459949,81.38713487906062L1582.1818587360146,78.79108166546914L1586.7738427945362,55.937016744669336L1587.0853712846417,67.00020711050651L1588.4350110606756,62.624065547178105L1590.9575772619678,85.46462378220163L1593.9481090615354,125.10968807862638L1594.6948825060683,100.90389345780541L1596.1966036120757,104.87608679499742L1596.7044369444043,78.01005828209065L1597.420272951228,78.94298642740024L1598.3179579425075,101.81857272068497L1601.1497035570185,114.31605149128966L1607.9035563894515,97.56523094689508L1609.7627699070056,62.23019490257142L1612.2676847451294,61.41962066021089L1612.867474451638,51.545726720980724L1615.4018193238812,55.83120743367548L1616.2902316432373,62.78173237048325L1617.5014137841997,46.56794627913929L1617.6708706747927,42.04597122998471L1620.3599740638263,36.489991871680765L1620.3625513910993,40.754187982816575L1620.398139430419,49.302956681802634L1622.2396825639387,37.281021343545014L1624.485552235042,51.934295315664684L1624.9767470652891,18.261327860112115L1624.9976129547244,22.87593216481698L1627.9219188558948,23.832459986619348L1628.022658114712,13.714114526707576L1628.2722784428852,35.0504729843958L1628.6500661179027,48.88498582904964L1630.4654983583303,79.37746799941978L1630.7241488423915,100.12658027431209L1632.9957204579798,71.44330062131253L1634.4797664247362,91.58405421250015L1634.9168706687644,79.95540246420768L1635.0390844847127,68.45434055713382L1640.0217999172132,49.43381623934688L1641.4488546157647,39.99941946005699L1643.0951057681489,58.421152720720215L1643.1218776363169,62.033986907430716L1643.5737991345568,48.769345076191435L1643.620666547108,61.817608209828826L1644.8429140765656,56.24551220844939L1645.245799783589,75.54451136678374L1647.0910329650126,121.73511785716114L1649.3294607224955,127.99498133681557L1650.0082203072757,113.8801501895378" style="fill: none;" fill="none"></path></g></g></g></g><g opacity="0.2"><g><g><g><path stroke="rgb(255, 112, 67)" stroke-width="2px" d="M204.30818997456115,143.2006598559293L204.52749579836998,51.77750819379632L205.0137594692403,-37.50201254757971L205.19474300431617,90.19222572066569L205.56308206440488,31.30055185664785L206.46605961150496,-15.534635040976813L208.6155743332851,178.44275429465554L209.34332691233442,-3.8005551251498444L209.94516611709906,103.29910632913764L210.85710724705828,174.58329034285111L211.109285881639,3034.241415682706L212.866519028903,55.16289254968819L213.41390149578834,-49.17220101789991L214.49857110520352,4061.9811179421167L216.20520875028132,32.40990753173826L222.22434736689814,295.6297432639382L222.46332552083334,61.94087267897348L224.1484886087802,1.3445434223521942L225.8190674481176,-19.83143020976676L227.55397960973667,-33.31030932339753L229.41870917828092,61.310747053406466L233.08653120077,6.66497256539085L235.12611007527164,36.98703447688709L235.2312526644483,55.71638732823458L237.00239481959716,42.998958474939535L239.36976502419304,84.10729008154433L240.63635494630915,-14.328522040627208L242.8324850541731,79.30095015005632L243.30742655486432,86.39122303615918L244.27143254886832,1710.2168684525925L244.523264052654,476.383781710538L244.75465763647762,70.32332689003512L245.52330507631655,14.898443499478425L246.42127062536167,1539.298319313743L247.01159745129243,112.46565401770852L247.94494656535335,1.1484811262650836L248.13960610271187,-20.06610780195759L249.68578848178691,26.759110728177156L250.34047716129757,51.05809408534657L251.04724021528583,1933.120507257635L251.59455135392554,1007.9097806063564L252.58180560076678,227.4740773981268L253.89171554402168,43.84849968390033L253.9914704730501,30.70618364160713L254.48072041980134,40.09182884909891L257.1836186915268,55.6401707865975L257.413904309936,113.13403853503142L257.43006729038063,109.9948384284973L257.55196726204827,-2.228576434742347L257.74045928377376,48.200491753491505L258.92036636666506,74.9779907551679L260.0759885595502,23.315861329165383L261.94707585238234,32.01551697470925L263.6140359720615,86.29740301478992L263.6929773190345,45.14805556644092L264.1170998223701,-2.2484443144364703L266.25125519527234,1499.0830266779121L267.65886105886705,18.240566392378373L268.07763869900174,148.8301365592263L268.2695164347833,-16.21503793543034L268.69537459209425,178.612789292769L269.325421740371,245.02647902748802L269.91673289609054,74.6695566329089L271.1990150322306,92.90198636488482L274.361452658822,137.17943413474342L276.01392363421905,109.75817655216565L280.0675411160944,54.30262321775611L281.2341621244454,-42.89668020768602L282.2526676532761,308.793471735174L282.26596323824907,109.21008221886376L283.74934822993026,228.07946558865635L283.92598074202675,34.53411500237206L284.51535652468334,11.152384203130552L284.6827829378858,108.18376914804632L285.0102556684832,47.79126757708463L286.9375115770882,33.84658871563999L288.07212997926314,20.100303840637192L293.5451319956838,18.6473133433949L296.729605294938,1000.9831892533736L297.19207386308835,141.6380580035123L298.115560658396,207.15887621099296L303.1931331470631,292.16682316173205L304.14757640094524,81.7211492798545L306.2970340601289,246.34040062644266L307.0703511224441,56.53090467019515L307.30685180865,94.97330671657215L307.6071722537696,107.65168992822821L307.892770549005,3.1722005670721014L309.21371734945666,89.23602610934864L310.37479377551927,81.13304063623603L311.53036841624066,50.493541773882775L312.02508210660204,268.22262292341753L312.05100279103976,210.08759196888317L313.0013137618956,122.75636752735485L314.1808974900736,-65.19440033652563L314.6847792375981,70.47193850495597L314.6954214118361,174.12043259360573L315.31939614880724,-6.301685818758895L326.180091599955,10.056464698097935L328.072819882491,107.89231411327015L329.4760604574572,82.76462609551172L330.1069730551135,62.91227385510098L330.14756358205534,225.8192845778032L333.5241713987751,78.3836389086463L334.3393961829668,-19.57955131530765L334.4544153565458,345.63993814641776L337.0641161426183,31.58299310857599L338.46033326300477,2.9246658151800116L342.50381262357735,98.30340497277001L344.3134149687339,196.69143309159713L344.9701579017168,4.63872425772925L348.61628662712195,-11.10594444274904L348.85068075247557,68.23507791865956L349.2357676846226,41.40421998284079L351.08272700958884,99.76130923357879L353.9927292199154,198.5305452520197L356.3445926639259,-58.457749418778874L360.8221281748328,106.82516672827983L361.60305358334136,-37.46640184575859L362.0833874993972,97.98050811073998L364.0726989816422,20.20669464631515L366.28252886787067,-36.33448354547674L368.80309312307094,141.94325592734597L369.0139917243361,233.82114510969686L369.0715916602366,-39.95322941866786L369.33544435100794,63.258424242518146L372.95061186262217,50.11824603947726L375.51199013993374,150.94763063950973L375.64178852599343,90.48727844411677L380.9739220126431,75.74568572044373L382.5083875385803,2880.8120089444246L383.86793718553076,-13.380178191445127L386.3843406264066,323.75454850630325L390.64057312262895,289.5365262118253L391.7614679703575,185.78807341835716L394.02955401234567,789.5291078047319L394.15715073322565,138.20233573913575L397.70947806049867,74.64568106261167L400.06972495097096,285.16486656882546L400.50216908295556,-47.7634469118985L400.6355861886735,-59.35125316273085L401.16215031828705,185.61731230995872L401.4794278649852,153.1490530534224L402.7405825747894,-25.444218895652043L402.9355416907793,98.9908279765736L402.99982746089734,147.86827203577218L404.31152536550763,3.3806943720037337L406.1966500570666,95.16258363723756L407.59084621049544,-88.26556562943891L409.60033407580215,16.6370864087885L411.4030793989519,116.68237048929389L417.31699934293016,45.37158799171448L419.4741794735002,-5.01176341663708L423.3158997586725,68.17394205385988L424.08586914866254,95.75376260063865L424.7804493383086,203.59694220803001L425.68071165686086,-16.12647751894864L427.5298774022232,-21.547973702170612L428.09263348363555,10.821615930037057L430.6356328496737,12.067546064203425L432.90127946566355,25.43384365601974L433.28746485279225,218.06510276794432L433.69802072382174,27.618994314020327L434.35559106445317,45.94439041831277L436.6459933368698,-57.66696524186567L438.01288028268067,149.51258633353493L440.4059143900302,11.32899175123735L441.7158053124196,101.02672854336824L442.5536791921859,30.018297429518256L443.73440417229295,28.014445868405442L443.929044688786,106.27007106434215L444.8467776722849,51.158704176816066L446.7312318783356,-101.4431402726607L449.1309613303353,189.86836253079503L450.28330717914093,13.961235427856453L450.6849184881768,205.19354605241256L450.8047832272377,-11.415455211292592L450.91287405056426,121.9048780267889L451.56056305157693,-47.71419660394842L452.6660082013166,78.70657802278346L452.91540027910395,224.57562040849166L453.683895552019,372.76836984807795L457.2226419813368,208.95412129488858L459.1163783697435,85.80865880792793L460.2739311804752,234.67342331626196L460.65622680061244,65.43356764299627L462.4571318550267,86.75662551793187L465.3367957849071,279.1188717235218L466.4644858368297,45.677543323690244L466.7624096528984,183.66393793279477L467.109849537037,-8.296016571738498L467.1741115310732,118.11254171891646L468.2966231523679,235.22312635941935L468.38134684244795,231.38081363331187L468.5114115206244,52.62496653036639L469.30723026680647,156.3317822196267L469.3980168577594,-118.97707616632634L470.34915048104745,285.0553741455078L470.4300176906507,-192.67373969338152L473.092834243586,-13.279424129832913L473.34778992452743,120.35711135864258L475.6163277120708,1251.4600899436257L476.38546493919586,474.40871165882453L476.39614515516496,173.76998422796078L477.11149612991903,128.27480569319295L477.1567182376061,157.25466213226318L477.9013328139066,-206.28017009388319L480.3039724583253,315.88476493141866L480.4620120744117,210.57759121981533L483.12959810936695,196.43323828957298L486.6540123165429,14.572326087951668L487.28507232590664,-158.12648898038L489.9692398003472,35.857801532745356L491.6252058597769,121.86502959511498L492.7837144689992,7.839825266057781L493.5234834798177,25.317174634066497L494.66179668511285,-81.19813391945581L495.03620340129083,56.52072425972332L496.22010486593365,-274.1592129794034L498.4680240352929,-136.60084942904385L499.72686295472454,222.03683839277787L499.83318008234477,-304.7027666958896L500.2035781511221,-152.27409016002306L500.46394051307703,168.65531971671365L500.4810973337432,5.993070168928674L503.63574116070276,-101.18179064663977L504.043025442869,-53.34192688681861L504.3936750980581,260.0825635736639L504.98208081657503,585.2690266002309L505.6014001967191,265.1900859139182L507.6633380985967,164.0345353906805L508.80462331412366,575.772104991566L509.2573579543628,90.43184054981576L510.080115001286,243.11478087685327L510.69337623577354,-154.6604891690341L513.0997392146106,-103.95088733326307L514.0042526965985,132.99357735026967L514.393871349947,-164.34589899236508L514.6066102199476,-175.76631178422411L518.7762882677871,158.9861159237948L520.3332554775914,396.9820696744051L521.3135671085311,161.2440184506503L521.417482851884,-62.628965065696036L521.9329815930025,-380.45179346258L523.4136893978668,61.787689620798275L524.1381751432693,836.046787331321L525.9159936222029,1023.920662619851L527.5550596426505,207.18441526239567L528.5506069868426,105.86695153496484L530.9713164534706,160.3138649160212L531.1224039432227,-100.0206902243874L532.5370855687773,370.11060589877036L532.7567670546795,194.28525383689185L533.9100782124083,-184.5671440124512L537.1918812803417,-272.94483108520507L537.2202604116432,357.6090900074352L538.4403633385175,269.13062383478336L541.8816706291796,20.22865948243573L547.7216136720759,230.60329974781385L549.0808256986642,-368.98636183305223L552.7322707559719,431.5249386874112L553.6439693698961,192.99695892333983L556.0475457919399,244.42906553095034L557.7467890755611,139.85225235332143L561.8284433131591,-112.80316071943805L566.7797220102318,-17.15036813562567L567.743794577265,156.46793415763162L570.5463241423932,395.5600452769886L578.6203344093606,-10.587313912131533L578.6254795534738,33.943665279041625L578.6494838857141,270.7484476262873L578.8078468565136,40.37261131460014L580.784880370089,-107.39320092634723L584.8214028491111,-33.05298460180111L585.2410459386252,212.5229157881303L585.5427025995451,-301.5550034956499L587.4800585877218,-28.231468339399896L590.3534646528582,38.60137481689451L590.42390367296,83.56066987731239L591.301825985002,-241.36606944691053L592.0098586817611,299.2405645197088L592.8183548347881,111.28075783469458L595.4495967510207,76.03364791436628L597.1700150131413,-60.798591266978896L597.1884319661459,-190.01216992464933L599.2461424806697,29.35594087947499L599.5890411331742,-366.057333096591L601.235392145102,436.0055148731579L602.3775618308739,28.12100568251178L602.9694198364759,72.02273793545635L603.9566360415863,13.27279524369674L604.8994623018745,89.57192723100836L606.1141823238169,-219.04093239524153L608.4374859383038,263.16521471196955L608.6901924019016,40.976397054845634L609.6890065797405,-54.014305010708924L610.2460564015079,191.54045680652965L610.575783104665,-18.33993708870627L613.069009620949,-154.90734162764113L613.1482553017698,114.43446136821399L614.2027245320136,-234.03420840176665L614.8322771377877,276.4955354170366L614.8355772579491,34.103659924593835L614.9404012476289,265.4042258522727L615.0887021805877,124.491282861883L617.9892367551199,-27.843913234363896L622.9703449244872,62.857882091673936L624.3286582151813,44.58047049262305L626.4915874023437,-33.82920275601471L633.8886308011027,-17.527732658386245L635.184955091186,23.546398214860382L636.175423864294,3085.4178688742895L639.1021691914625,591.294289744984L640.0379624867381,66.99713362834672L645.8685425086002,330.80502929687503L647.2032651708784,105.3465276371349L656.1843139397264,-158.66483716097744L656.6103195087449,187.726324670965L657.057000758544,132.35069432692097L657.8289816050587,132.84427405270665L660.7260258507748,197.32217254638672L661.3386498862686,-46.19846642234109L661.7419207658179,82.61722727255388L664.6318844943577,52.63093190193178L667.293816577048,83.94220483953303L667.5697950695651,140.70336002003063L669.4787719264403,-80.84882479580969L669.5814703344023,11.425032355568622L669.9697242406523,255.6882067246871L672.2216045052486,44.15352233973418L673.7613530765738,154.77069518349387L673.8354108163339,48.58463695699516L674.2619727456677,273.9966519095681L674.6301834149144,-55.21360133777963L676.7697882657777,119.47125681096857L677.2749016143423,-30.846892547607407L677.2954584147136,-50.96540548151193L679.0637189087416,138.6890612342141L680.5581692889178,520.0312223954635L682.0593007480951,183.31199978915126L682.4101548775881,-18.576010565324225L682.8372446359391,98.46061410903931L685.5755074518148,16.350917582078424L690.006670092673,118.79836540222169L691.8742480358234,-106.33661030856044L701.8986340733909,-31.509136425365075L702.0067296519338,264.2957934639671L705.6584837983057,-26.479990178888524L706.5299960786796,-70.24979296597566L709.3671769055026,46.27280352765864L710.4723034557453,78.99828422286294L712.7433234662342,-239.61769603382456L713.020248246809,110.23223580447109L719.0171657373248,56.494478659196325L719.4583547122154,24.658345352519625L719.677170748738,-2.111991917003275L722.4719302903164,-153.60845551924268L723.8990325410317,107.87153546593407L730.0458392067741,23.680096400867797L730.1725134156779,240.78644565235484L733.7950182261526,149.8663209741766L736.280403390641,50.3138419974934L736.7434330743232,-65.0289598638361L737.1625958869839,182.16429484974256L737.6278985640914,1232.510614568537L742.3939615835181,151.3355800975453L743.3135681222673,94.83675729578191L745.7139300180443,134.4255732449618L748.4599343261718,12.68581645271996L750.9854820481288,-85.4593747225675L751.5942733792278,55.07352073626084L755.6463311501334,98.57257906306873L756.0556126231754,-9.233243422074745L756.3345821467898,29.59960095665673L758.3140455759308,100.70846376419067L759.3138678596403,32.43094595128839L759.4473182518727,55.121487049622985L759.6063945051279,224.3023901159113L760.1099338770737,29.86728526895696L761.6893314424993,3.264128632978975L766.1195002431359,151.79913265921851L766.8972539223251,98.17119656476109L767.0458686995644,163.72028612657027L770.5715620599441,86.31041040420533L772.7360985102398,-22.285920836708797L773.1954571668837,10.235250577059668L773.4952497829862,117.62744058262216L776.858666629493,-27.957893770391294L777.1482212647489,87.17907616875387L777.6629781921137,98.57692320563575L777.884766238868,37.20819765437733L778.0046499987944,66.84782279973682L778.7585610231,7.341143989562997L781.3748240077643,148.5118436119773L781.8188993989921,61.00120263966647L782.0195029568142,74.05769291574303L782.5166608283902,-45.581460467251844L782.5822495277939,62.538984117724674L784.940508737823,98.50969540856102L787.2179673112784,12.253129837729709L788.8570713734568,53.69989456263455L789.5961461226852,166.51900310516356L791.5013568481947,257.033175797896L791.6703001754196,132.43330189098012L795.3023487051505,33.390494433316334L795.9106978011268,135.4890681700273L796.5554243023406,51.332814155925405L797.056742988241,78.88644133047625L797.4716546374663,32.34564990130338L797.9170424684124,49.437501998381165L798.2003725254389,15.582107630642993L798.4129164315683,44.98304230950097L799.3099452029884,184.87899586070668L805.3012372725373,164.83026462901722L805.3566973610709,-18.26021518707272L806.2457231033388,-31.278045567599197L806.4172437578367,54.34641439697961L806.6449044968091,45.279899354414496L808.0545455930106,53.57622812227769L809.0161787340455,70.98636221235448L813.8188902060426,190.7178114110773L813.8643167880338,161.81123577464712L814.2255753309462,87.90347602584147L815.9690326163837,75.38502877625551L816.8672454366802,75.11324757445942L817.1284827584475,28.36532301469284L821.5539962022569,11.312829537825158L821.7006328094859,122.56454922069202L822.1456972857188,32.87969462654809L823.2284220116384,189.57980880737304L826.010313937717,102.575747125799L827.7745182321808,34.68803786364467L833.3092334466628,82.06676682125439L833.9210776266717,48.92651127468457L834.3959525543338,68.16989739266307L835.5355686889146,149.48167031028052L836.0983818329235,659.2278159401634L839.760055360645,495.6693209561434L840.5953281370563,126.58059635162354L846.6491608123151,24.78576205860486L849.1951749855324,619.488801574707L850.0282793832787,178.98840113553135L852.5733567788709,19.759607887268057L853.2305704782744,309.11245949485084L853.7388698218075,25.098975363644694L854.0924582007137,120.99468000585382L854.1907960752637,284.2778352217241L854.3303378996673,781.136574901234L857.9796621304736,101.33341624520043L861.7940922288934,51.23625244227322L861.8139167259436,139.6489978096702L863.7039915977447,46.75295960252934L863.8234331225485,121.78657212690875L864.8036781804591,22.392036221244123L864.8286335559735,65.85657161792572L865.3695346629453,28.85229263305663L868.2696697993024,2613.9076893199576L869.3963327244888,389.26572071422225L870.3846331189316,31.389347007057864L873.4431597573865,197.7094271919944L873.9042445575731,535.8644828102806L875.4631043434929,71.79373112375085L876.4456223948285,-2.478640053489019L877.5098112873345,115.66704296632246L881.1486740421248,145.59851388064297L884.0358940108185,72.313676164367L885.0640954258295,139.54309838034888L885.5339536002202,14.214629138599753L885.9666117169415,56.481134035370566L886.4702557036475,162.0752957950939L888.8473217944236,58.1038066473874L891.1518375490291,105.2886015631936L895.5651395971981,102.01271432529796L898.7067303552195,165.5707907069813L900.042955665871,121.65078324404631L902.6493515765657,234.68264992453834L904.6818261578094,105.67450101158838L905.9316206557035,247.71217318448154L906.0397019685972,29.373029509457673L906.849054060571,42.46282461773264L909.631245565281,31.79166844107889L909.8864722935555,60.44248933467L912.3157411496512,55.256664059378885L914.6499960274401,94.70755974162708L915.4028656593606,-48.95476854497738L916.0482198491352,152.9530721317638L919.2141715806247,44.74399866624312L920.35082046019,17.77622199492022L921.9854879054944,64.79512437961318L921.9951647708092,118.88245648470793L923.6671701750579,160.8270871769298L927.9546064011059,325.87957285100765L930.195982392739,130.30960457541724L931.3865887124647,22.4248363754966L932.2780538807308,44.69539152925663L932.5907711749293,36.007471015236575L933.3489333626703,83.91502108573914L934.8739978258423,36.828717396476065L935.9267266468944,110.50622037540782L938.8273658361866,41.969309052554046L939.3096541461709,456.57586871060465L940.2843926635239,211.09967703385783L940.9703040937259,65.09339046383447L942.3723511093831,-3.855808362093808L945.1084265257282,74.44342492060228L945.9177263103218,36.46960578398271L947.1745870597431,31.499258821660835L948.944088665244,111.46656695279206L949.3371358295959,70.21962574395265L950.3505199903951,52.34273497408087L951.4121315556279,-24.914577778902956L951.4462692539545,37.75206677696923L952.9691130310813,-18.966219728643214L953.4428752381124,43.26040042963894L955.5032296529386,284.8649579828436L956.4845161032342,44.186760663986206L956.6013137277359,183.48535236011853L956.9635280691391,61.24332990429618L958.2173359696502,99.58209770376031L960.8752451392908,34.37274012132123L961.1845767194332,149.75644045743076L963.0859880270624,61.54209611849351L964.6967272235886,223.79262313842773L965.5335216692388,328.640219116211L966.9444419186439,23.06798543063076L968.9454322122957,-12.471075595508884L969.7474279845438,56.75361709161239L969.9652073838975,19.838174897974184L971.717124199259,-4.177049567482708L975.9185242955086,36.34826399196277L976.1554577064044,48.34278589595448L978.1027330759308,141.76067674810238L979.4025191635319,8.092893479087131L983.3886553698882,282.26888836947353L987.7293452640737,304.5496826171875L988.8918244789656,220.5427287708629L992.410484874333,-9.580392993580205L992.7897847081565,79.72714402458885L993.9391109945666,68.04639937389983L997.2470392212416,-10.395126290754813L997.9899989822451,157.51085387143223L998.1356940566327,17.402297106656174L1003.8513547644595,70.43901941884647L1004.4306447331935,-15.237912576848814L1006.9462065007716,27.59012830040671L1008.4159392662518,84.36329246867786L1013.5749305696213,142.5679486361417L1014.5735735596706,209.48058880892665L1015.5671332234198,89.49146044037559L1016.3152856807002,56.251309175924824L1017.2424244821807,165.0620815970681L1017.7006513973283,-2.6423528844659687L1019.3852723906089,60.0610064051368L1022.3961137192966,-28.35520754727447L1022.6189812001672,28.08064083619552L1024.4182314392845,42.59486088752746L1026.7679122389804,75.91101899797265L1029.4376951838992,130.4030224193226L1030.4437943532182,66.94755263897504L1036.1206239641604,104.40674375187268L1037.0084228606047,88.69325241175567L1039.0600704742558,108.1255582636053L1041.0426723462015,77.97365810654381L1041.9537622924304,69.41724766709586L1047.3550794220598,3.4076606056907L1047.6114759335615,20.389142374558883L1048.7036064774627,26.43976304314352L1049.3453847445264,146.23950651342216L1050.3500335728525,17.700975686853564L1051.6978425905832,34.085810756683344L1053.5950693078062,78.76060047149659L1057.800216514556,30.32470032085073L1060.865771362807,84.96354468085548L1062.662967348452,120.32067439339376L1067.3210631801778,34.12879523363982L1068.586064860026,59.81396694183348L1068.6011246302726,319.18671389493073L1071.861424609777,99.32810307416051L1073.942911206155,18.187435150146484L1076.2400849066842,46.150746579603705L1077.133138317218,12.317177772521973L1077.2458084139098,97.87463371970435L1078.8579503992653,278.57401358864524L1079.0329899138776,133.9201253717596L1080.274529356152,82.2889268354936L1081.134467439879,0.0555912538008424L1082.273470151548,110.01848082975906L1083.380741304374,211.3353999744762L1084.2345689350645,122.00822981054132L1091.4138424449027,62.99981102726675L1094.2963975463365,91.61942208896981L1096.9696375335568,14.643015428022911L1097.8677267182275,50.38054555546154L1099.352847363884,33.00409108942206L1099.8545274462288,116.60189117951826L1100.4467183169768,143.49604277177292L1101.278705238876,86.92475760633296L1101.7440649785801,-0.48811511993409806L1102.3859193291055,89.78868992978876L1104.6413850268455,20.17684275020253L1107.1703422389403,68.32699268297714L1108.6427284151555,96.97612544840034L1113.0363961749292,-37.862551342357314L1114.4895760322224,143.21342938163062L1114.5528251651717,12.737013487382386L1115.1149107610756,47.38301989381966L1115.8074319420332,80.39204509041528L1116.726073171859,121.63286835063587L1116.9994553162373,56.11583796631205L1118.2119546521349,95.42367036125879L1123.987649966644,138.87025078860196L1124.264974185394,497.7659268465909L1127.5385982811695,81.90103371360084L1128.5672989938996,113.33910209482367L1129.1907839435844,-58.25610358498311L1129.6705852754067,37.62106646624478L1129.7261785099986,3775.569970703125L1131.078980504919,146.7185640335083L1140.473029326011,42.894109088724306L1141.2292799167712,65.06338863142511L1141.3905197934753,63.05078799887138L1147.9698942268278,53.51402128393001L1151.684540864921,-43.496647609363926L1152.0003395393278,44.66489020260896L1152.310512792768,78.70094362605701L1152.3551642744903,149.40475269664418L1154.4806033357847,218.0369346965443L1155.226073851032,121.20751795335248L1157.5183591891316,-2.7395076925104664L1157.6364169459716,-2.065940250049916L1158.2473909213847,109.8816059112549L1160.0229411621094,176.22331057461827L1162.8610730322066,74.41372951377522L1163.3020480223604,5.080399617281836L1165.0091326577772,-6.249218091097714L1165.1405906143502,-5.845206572792735L1165.5218876390497,0.5534775647250074L1167.0433143616979,36.051932751048696L1168.270107878006,96.62964252125133L1174.6090775925122,32.82472307031806L1176.102610215929,70.93606342619115L1176.9599757275992,85.63280240839178L1177.7327649608972,269.4857919172807L1178.3841582754628,67.89733041904191L1179.1107125399867,74.39424190304494L1179.754740024394,68.7263605773449L1181.5258393825954,64.11357569017193L1182.1096943590455,71.53111823797227L1182.261352474762,338.6558088129217L1182.4673294270833,394.4616657603871L1182.5846358597366,89.62685184045272L1183.0924739472819,16.775667060505278L1184.6578198483312,129.4976505279541L1192.895010120282,74.40667888901449L1193.387232077265,152.05407874367455L1193.5761710893294,24.38670186129483L1196.0380607297293,166.64227284518154L1196.0481037467046,38.63377435857599L1196.3300785670654,14.71453416130759L1197.2068406063127,-38.27306029579859L1199.5869119938352,46.560203925046046L1199.7912769278066,119.73309468356044L1200.193905853146,46.72361160191625L1200.4519476695118,67.36156607216056L1201.9420850684398,322.4954482338645L1202.5314180541488,6.951504447243427L1205.4581015635047,127.64054209969262L1205.4764566986962,45.849852111122836L1206.055309187524,100.78099341826005L1208.3650794562195,60.610762654651296L1208.818831712762,14.680957820198765L1211.6215182000306,127.83944624120538L1211.8426214956276,83.86263629739936L1215.1042909774467,105.97260997078634L1215.1176721563143,55.4772748296911L1216.7041692597818,3.346949022466489L1218.7918186165768,-7.353149847550818L1221.4138401682662,244.01058814308863L1221.907536242324,53.71197005835448L1222.1574751699943,51.56732117479496L1222.5171787571535,-44.25411834716794L1223.3624993057565,16.502684020996103L1223.7334252035512,187.8792960773815L1224.0023279341083,-22.84574560685592L1225.103303180459,139.9514978582209L1225.4143609041441,188.30866511951794L1225.6606145391268,185.25976559032094L1227.1279792068544,16.93570552305742L1227.4925045834136,15.85391387072478L1228.1517963123715,57.907407899336384L1229.7483887401943,115.71815236698498L1230.4263209173257,-7.705713948336516L1230.5377784338427,138.5461301803589L1232.2798995034802,161.74141025543213L1235.8665785138166,107.55124258561567L1236.9354322735821,49.66927201964637L1237.5234147778422,101.84241329539908L1237.9289729164657,146.46177763505418L1238.017557842239,100.93275672739203L1238.9308827401621,98.86503249948676L1241.4433155753682,-76.36806082292036L1243.9961772601594,31.248631841486162L1247.2829590396332,36.18829125491056L1250.294841760706,183.41138926419345L1254.7216628890176,5.83701279380106L1255.0717989808386,65.15907571667974L1255.1002351747363,131.10332449132747L1256.3377184174462,-18.713589685613492L1260.0147417836129,111.04019624536689L1260.4904916710873,113.68439257361672L1260.878265300484,33.84130876714532L1263.3809974942933,33.45134685689753L1263.607802294319,90.68765671469947L1268.935670351884,3.761395246332323L1269.7917091581871,46.67723287235605L1271.6495912151572,74.25072166702962L1271.8167228049447,134.70590189153495L1275.8395502608184,127.64631968411531L1277.459457514508,212.81436143354935L1277.4692532602317,117.41587332812223L1281.495932441366,84.44940069805492L1283.043717328358,-1.2564649928699738L1283.1007513935103,99.9059929674322L1285.5046987224312,81.09818264787849L1286.476279776114,107.55318305275655L1288.5024727165317,283.77028413252395L1290.7571918453011,341.63331167047676L1290.7757704756623,124.65729295557195L1290.8309737825118,26.217172683369032L1292.229226135505,88.04337118755689L1296.0306364515016,83.65491554953834L1296.9894212179302,118.23832154707476L1298.1356185719683,65.67952039824289L1304.5344517053675,20.304259456287724L1304.5947906458975,119.48289961381394L1305.523194334933,91.49001170938665L1307.6209437712996,99.96029787930574L1308.0585805995613,-11.628875298933556L1308.8929403744294,25.35367106524379L1309.5323648093895,-26.559474216807946L1310.3419546621817,204.869625750455L1310.4666602115083,17.666313310102982L1311.5586861406491,273.4791606209495L1312.6114625138648,-39.932109624689254L1316.392972249349,9.215322269092892L1317.1140770359118,15.681728709827787L1317.2320824853716,141.85194129943847L1317.7859748434687,1.6541167866099906L1320.2627340454603,84.16680608662693L1322.0120735335488,-8.906481274691512L1322.4216355643566,38.74203364632348L1322.5072817664127,63.96096137274395L1322.673576438119,207.67077144276013L1323.339411344803,169.92188765785912L1323.9587972979762,111.73949365615846L1329.6500257040893,89.76264228820801L1331.8888671653967,22.873763448541826L1332.9232979138535,-9.208856131813715L1333.0147882768292,101.70374187989667L1335.5473261668515,68.9951248613271L1337.3370184210632,332.008895111084L1337.5317540418837,-24.7127253792503L1342.748159827715,36.311079007929024L1345.5541797216595,60.1854595953768L1346.8946942374773,62.436195499788624L1348.2667596139163,110.49712834791704L1348.3094947434415,91.39379270726984L1348.394751017755,166.71522189053624L1351.348967229898,118.3883885123513L1351.5232887068385,133.55588091070004L1352.2962586383585,56.38698147426953L1352.9660974372268,10.7226458462802L1353.5735287764435,61.343991246006716L1353.9300083269031,104.68663422844628L1354.0589460188,274.65290537747467L1355.6652771297502,85.0687211296775L1355.8455664032358,277.1177868929776L1359.2169577475968,-6.706404668634553L1360.8167551912536,58.043647471341224L1367.148867883753,65.72381701952015L1367.9800273980034,3.166667105934841L1368.2680460983715,-7.71482788432726L1369.6423416712882,107.30075018622657L1372.2242719937549,129.6263848738237L1375.0144332411023,18.26625880328093L1376.7714191171153,74.31383614323357L1378.6391587376222,98.35137206857856L1379.8591950914674,84.96284360885619L1380.9700326565714,166.20547369176688L1383.559590346097,49.201542758941656L1385.1135760352365,110.37115447304467L1386.9734410174335,64.17566819353537L1387.8778403742285,41.179709499532535L1388.207381623947,102.7429183699868L1391.3631809684848,152.30237716328014L1391.7346061639983,68.71220749074762L1392.5571064292376,85.55606006275525L1392.7557603483474,48.66770929423246L1393.8680054574975,55.557594520395455L1396.8618231115775,12.628929467634704L1397.2492828966933,30.131983765688826L1398.7439995689863,126.8367380142212L1399.585967690048,213.70201873779297L1400.6829010024835,63.331242814930995L1401.9548976056135,22.662840929898362L1402.4502199636704,68.28604295795616L1402.8374372327514,23.22491288618609L1404.5818883584107,56.134608856114454L1405.1728000759547,14.882775792208601L1407.557698008094,84.32129387422042L1407.739556502982,150.51361699537796L1408.2856978583943,23.4779153737155L1409.538640309526,-31.927094268798843L1413.340763907978,37.47459562475031L1415.9307067700297,77.9901692910628L1416.1689003132635,-32.66231848976825L1420.7841516454876,47.48746866746384L1420.8088217080199,-13.033566943081926L1421.5800559855645,119.00809860229492L1424.396280573841,35.0832985011014L1424.8267845775463,128.61967052112925L1425.050921701188,-29.253355893221755L1426.6526925596386,84.75699760263616L1427.7834354604713,53.09248140074991L1427.908659328382,85.78952955766157L1428.0627473596642,57.088374276594685L1428.2729326784738,106.39755662571301L1431.8378851052114,18.820349806005293L1437.458008760931,136.7189049460671L1440.5388944267618,-23.307583045959458L1441.6363555682146,219.85118383927775L1442.5763857612767,214.72423178932883L1444.942414994856,66.45987725393339L1445.6429201841001,104.95315426046197L1445.6706240746769,171.80435360995205L1448.9429785276814,45.06454505920411L1449.0271696335278,69.25228370428084L1450.5516016529225,98.07289938493209L1451.8873561971532,96.9573029171337L1453.1505889365112,89.90253744992344L1462.458701487349,137.2338548486883L1465.8884108052823,79.4288676218553L1465.953680905189,174.712162399292L1470.0674090772086,-5.629877315868004L1471.6389557804061,200.90527641989968L1472.6785364281925,98.23696588169446L1475.2485977305973,136.20491901744495L1476.0349298201195,59.348667568510244L1476.7511414890366,160.89378291043369L1476.8680437282987,61.474898836829446L1482.0124127413274,90.17477247064765L1483.4245645917729,54.224862126870605L1484.6283809025767,142.92188984264027L1486.0141270365145,132.8422021345659L1487.615251185539,119.29517506686122L1488.5397651075828,39.35709913427179L1489.2870568706999,220.50244216918946L1492.4400696584441,95.9620592290705L1494.182361915871,208.8202541004528L1495.1256541873634,155.8128324508667L1496.2556505192258,123.26270425969905L1497.2603611653644,43.56261566768992L1498.2629700058674,135.81253778284244L1498.2923049356593,179.34960344487968L1499.9834691066662,8.00057106018068L1500.1670061929333,196.6948883750222L1503.8736688227398,127.32095968073064L1509.478556765207,94.1005878795277L1509.5268697635352,295.0329306862571L1510.153749937709,76.98233760486947L1510.9960081269692,29.14370698061857L1513.2749645935812,69.01717537533153L1517.9509685701598,50.360209772803586L1518.0957316221386,131.83437983772973L1521.2559200313867,24.45014887723055L1521.5887851773487,11.00444549213756L1522.004353046433,82.87938594818115L1524.1086171292277,40.16117864088577L1527.316771406009,39.83813624382021L1529.2212688490627,116.24512064673684L1529.262682028437,35.0478161204945L1529.871630281676,126.7127359043468L1530.1067519551343,160.58941125002772L1530.742862004284,-3.1389246853915274L1531.0664021709426,74.66406542387877L1532.6294798337835,129.57051193930886L1532.6876741717304,0.6419002706354504L1534.8791489227672,177.03083284551448L1538.593343815305,331.6002202120694L1539.1885590036652,-52.43875836459071L1539.5182999724714,18.54687851992521L1540.7071896590874,68.57819710861554L1541.3734240039464,98.79941341226753L1543.3365247335553,40.19108687314121L1543.3853988474152,174.72590841813522L1545.3843871949748,-27.999526179920537L1545.641943979271,-14.04711048819804L1546.0136830190652,121.06233971335669L1547.8264666039738,113.28001800016925L1549.251219777802,454.67563809481527L1552.4946625152713,74.28098982464184L1552.4995603881332,25.91114223653621L1553.1212573764628,31.534916470267575L1553.396456013495,167.07407686060128L1553.8889870595422,21.237408195842384L1554.0681588571808,148.15136115334252L1554.3279030410076,54.514834425666116L1555.488171080287,122.6426749316129L1556.4798429231369,-22.95187038074844L1557.6024686696246,34.05588687549936L1560.2310619303387,-45.4995351964777L1560.9874171358588,40.52484722137449L1561.5148942670155,116.00399256619542L1562.4660611768181,-96.33480418812147L1563.3820680167744,46.440581950274364L1563.4825362282584,245.8321609843861L1563.9975546925236,94.38967366652055L1565.6347899546683,19.514495589516375L1566.7285515377844,-31.401427979902778L1566.827792903445,38.284775083715274L1570.1004802215953,24.481039862199264L1570.9767001661762,35.238545261729854L1571.7292702194654,96.19828919497404L1574.1186618310749,170.02976511174984L1574.9845439352657,126.54486045837402L1575.9323441518775,-4.732636607776983L1576.074230297952,114.45682368711992L1577.3470162669994,51.97489751902493L1578.0751492633585,87.97820591926575L1580.844525459949,101.64703016281129L1582.1818587360146,69.53301061608573L1586.7738427945362,-25.565379160100797L1587.0853712846417,106.45386773022737L1588.4350110606756,47.01782554279674L1590.9575772619678,166.91885200847278L1593.9481090615354,266.49231463345615L1594.6948825060683,14.580945517800084L1596.1966036120757,119.04176257740369L1596.7044369444043,-17.799842487682017L1597.420272951228,82.27000415108421L1598.3179579425075,183.3977183602073L1601.1497035570185,158.884685828469L1607.9035563894515,37.828286448392L1609.7627699070056,-63.78196560252794L1612.2676847451294,58.528942654349606L1612.867474451638,16.33334696509622L1615.4018193238812,71.11413180177861L1616.2902316432373,87.56876422275195L1617.5014137841997,-11.253820558027828L1617.6708706747927,25.919658383456145L1620.3599740638263,16.67620247060601L1620.3625513910993,55.96120699102228L1620.398139430419,79.78966149416839L1622.2396825639387,-5.591725228049534L1624.485552235042,104.19094815687701L1624.9767470652891,-101.82354694713241L1624.9976129547244,39.33258039301093L1627.9219188558948,27.243639113686307L1628.022658114712,-22.370030697909304L1628.2722784428852,111.14040885405107L1628.6500661179027,98.22176451249558L1630.4654983583303,188.12006423256616L1630.7241488423915,174.12227290760387L1632.9957204579798,-30.847299419749874L1634.4797664247362,163.41021199659866L1634.9168706687644,38.485187781940795L1635.0390844847127,27.43913804834538L1640.0217999172132,-18.39736865650521L1641.4488546157647,6.354378890991195L1643.0951057681489,124.11692293340509L1643.1218776363169,74.91811247738924L1643.5737991345568,1.464846125516007L1643.620666547108,108.35045527544887L1644.8429140765656,36.37424747293646L1645.245799783589,144.3687960364602L1647.0910329650126,286.46052273837006L1649.3294607224955,150.31896936243228L1650.0082203072757,63.54369755929165" style="fill: none;" fill="none"></path></g></g></g></g></g></g><g transform="translate(41, 361)" clip-path="url(#clip_1)"><clipPath id="clip_1"><rect width="1848" height="38"></rect></clipPath><g><g visibility="inherit"><g><g transform="translate(0,0)" style="visibility: inherit;"><text transform="translate(3,16)" style="text-anchor: start; font-family: Roboto, sans-serif; font-size: 12px; font-weight: 200;" fill="rgb(33, 33, 33)" stroke="none" stroke-width="1px">12 PM</text></g><g transform="translate(51.35633680555555,0)" style="visibility: inherit;"><text transform="translate(3,16)" style="text-anchor: start; font-family: Roboto, sans-serif; font-size: 12px; font-weight: 200;" fill="rgb(33, 33, 33)" stroke="none" stroke-width="1px">03 PM</text></g><g transform="translate(102.7126736111111,0)" style="visibility: inherit;"><text transform="translate(3,16)" style="text-anchor: start; font-family: Roboto, sans-serif; font-size: 12px; font-weight: 200;" fill="rgb(33, 33, 33)" stroke="none" stroke-width="1px">06 PM</text></g><g transform="translate(154.06901041666666,0)" style="visibility: inherit;"><text transform="translate(3,16)" style="text-anchor: start; font-family: Roboto, sans-serif; font-size: 12px; font-weight: 200;" fill="rgb(33, 33, 33)" stroke="none" stroke-width="1px">09 PM</text></g><g transform="translate(205.4253472222222,0)" style="visibility: inherit;"><text transform="translate(3,16)" style="text-anchor: start; font-family: Roboto, sans-serif; font-size: 12px; font-weight: 200;" fill="rgb(33, 33, 33)" stroke="none" stroke-width="1px">12 AM</text></g><g transform="translate(256.78168402777777,0)" style="visibility: inherit;"><text transform="translate(3,16)" style="text-anchor: start; font-family: Roboto, sans-serif; font-size: 12px; font-weight: 200;" fill="rgb(33, 33, 33)" stroke="none" stroke-width="1px">03 AM</text></g><g transform="translate(308.1380208333333,0)" style="visibility: inherit;"><text transform="translate(3,16)" style="text-anchor: start; font-family: Roboto, sans-serif; font-size: 12px; font-weight: 200;" fill="rgb(33, 33, 33)" stroke="none" stroke-width="1px">06 AM</text></g><g transform="translate(359.4943576388889,0)" style="visibility: inherit;"><text transform="translate(3,16)" style="text-anchor: start; font-family: Roboto, sans-serif; font-size: 12px; font-weight: 200;" fill="rgb(33, 33, 33)" stroke="none" stroke-width="1px">09 AM</text></g><g transform="translate(410.8506944444444,0)" style="visibility: inherit;"><text transform="translate(3,16)" style="text-anchor: start; font-family: Roboto, sans-serif; font-size: 12px; font-weight: 200;" fill="rgb(33, 33, 33)" stroke="none" stroke-width="1px">12 PM</text></g><g transform="translate(462.20703125,0)" style="visibility: inherit;"><text transform="translate(3,16)" style="text-anchor: start; font-family: Roboto, sans-serif; font-size: 12px; font-weight: 200;" fill="rgb(33, 33, 33)" stroke="none" stroke-width="1px">03 PM</text></g><g transform="translate(513.5633680555555,0)" style="visibility: inherit;"><text transform="translate(3,16)" style="text-anchor: start; font-family: Roboto, sans-serif; font-size: 12px; font-weight: 200;" fill="rgb(33, 33, 33)" stroke="none" stroke-width="1px">06 PM</text></g><g transform="translate(564.9197048611112,0)" style="visibility: inherit;"><text transform="translate(3,16)" style="text-anchor: start; font-family: Roboto, sans-serif; font-size: 12px; font-weight: 200;" fill="rgb(33, 33, 33)" stroke="none" stroke-width="1px">09 PM</text></g><g transform="translate(616.2760416666666,0)" style="visibility: inherit;"><text transform="translate(3,16)" style="text-anchor: start; font-family: Roboto, sans-serif; font-size: 12px; font-weight: 200;" fill="rgb(33, 33, 33)" stroke="none" stroke-width="1px">12 AM</text></g><g transform="translate(667.6323784722222,0)" style="visibility: inherit;"><text transform="translate(3,16)" style="text-anchor: start; font-family: Roboto, sans-serif; font-size: 12px; font-weight: 200;" fill="rgb(33, 33, 33)" stroke="none" stroke-width="1px">03 AM</text></g><g transform="translate(718.9887152777778,0)" style="visibility: inherit;"><text transform="translate(3,16)" style="text-anchor: start; font-family: Roboto, sans-serif; font-size: 12px; font-weight: 200;" fill="rgb(33, 33, 33)" stroke="none" stroke-width="1px">06 AM</text></g><g transform="translate(770.3450520833334,0)" style="visibility: inherit;"><text transform="translate(3,16)" style="text-anchor: start; font-family: Roboto, sans-serif; font-size: 12px; font-weight: 200;" fill="rgb(33, 33, 33)" stroke="none" stroke-width="1px">09 AM</text></g><g transform="translate(821.7013888888888,0)" style="visibility: inherit;"><text transform="translate(3,16)" style="text-anchor: start; font-family: Roboto, sans-serif; font-size: 12px; font-weight: 200;" fill="rgb(33, 33, 33)" stroke="none" stroke-width="1px">12 PM</text></g><g transform="translate(873.0577256944445,0)" style="visibility: inherit;"><text transform="translate(3,16)" style="text-anchor: start; font-family: Roboto, sans-serif; font-size: 12px; font-weight: 200;" fill="rgb(33, 33, 33)" stroke="none" stroke-width="1px">03 PM</text></g><g transform="translate(924.4140625,0)" style="visibility: inherit;"><text transform="translate(3,16)" style="text-anchor: start; font-family: Roboto, sans-serif; font-size: 12px; font-weight: 200;" fill="rgb(33, 33, 33)" stroke="none" stroke-width="1px">06 PM</text></g><g transform="translate(975.7703993055555,0)" style="visibility: inherit;"><text transform="translate(3,16)" style="text-anchor: start; font-family: Roboto, sans-serif; font-size: 12px; font-weight: 200;" fill="rgb(33, 33, 33)" stroke="none" stroke-width="1px">09 PM</text></g><g transform="translate(1027.126736111111,0)" style="visibility: inherit;"><text transform="translate(3,16)" style="text-anchor: start; font-family: Roboto, sans-serif; font-size: 12px; font-weight: 200;" fill="rgb(33, 33, 33)" stroke="none" stroke-width="1px">12 AM</text></g><g transform="translate(1078.4830729166667,0)" style="visibility: inherit;"><text transform="translate(3,16)" style="text-anchor: start; font-family: Roboto, sans-serif; font-size: 12px; font-weight: 200;" fill="rgb(33, 33, 33)" stroke="none" stroke-width="1px">03 AM</text></g><g transform="translate(1129.8394097222224,0)" style="visibility: inherit;"><text transform="translate(3,16)" style="text-anchor: start; font-family: Roboto, sans-serif; font-size: 12px; font-weight: 200;" fill="rgb(33, 33, 33)" stroke="none" stroke-width="1px">06 AM</text></g><g transform="translate(1181.1957465277776,0)" style="visibility: inherit;"><text transform="translate(3,16)" style="text-anchor: start; font-family: Roboto, sans-serif; font-size: 12px; font-weight: 200;" fill="rgb(33, 33, 33)" stroke="none" stroke-width="1px">09 AM</text></g><g transform="translate(1232.5520833333333,0)" style="visibility: inherit;"><text transform="translate(3,16)" style="text-anchor: start; font-family: Roboto, sans-serif; font-size: 12px; font-weight: 200;" fill="rgb(33, 33, 33)" stroke="none" stroke-width="1px">12 PM</text></g><g transform="translate(1283.908420138889,0)" style="visibility: inherit;"><text transform="translate(3,16)" style="text-anchor: start; font-family: Roboto, sans-serif; font-size: 12px; font-weight: 200;" fill="rgb(33, 33, 33)" stroke="none" stroke-width="1px">03 PM</text></g><g transform="translate(1335.2647569444443,0)" style="visibility: inherit;"><text transform="translate(3,16)" style="text-anchor: start; font-family: Roboto, sans-serif; font-size: 12px; font-weight: 200;" fill="rgb(33, 33, 33)" stroke="none" stroke-width="1px">06 PM</text></g><g transform="translate(1386.62109375,0)" style="visibility: inherit;"><text transform="translate(3,16)" style="text-anchor: start; font-family: Roboto, sans-serif; font-size: 12px; font-weight: 200;" fill="rgb(33, 33, 33)" stroke="none" stroke-width="1px">09 PM</text></g><g transform="translate(1437.9774305555557,0)" style="visibility: inherit;"><text transform="translate(3,16)" style="text-anchor: start; font-family: Roboto, sans-serif; font-size: 12px; font-weight: 200;" fill="rgb(33, 33, 33)" stroke="none" stroke-width="1px">12 AM</text></g><g transform="translate(1489.333767361111,0)" style="visibility: inherit;"><text transform="translate(3,16)" style="text-anchor: start; font-family: Roboto, sans-serif; font-size: 12px; font-weight: 200;" fill="rgb(33, 33, 33)" stroke="none" stroke-width="1px">03 AM</text></g><g transform="translate(1540.6901041666667,0)" style="visibility: inherit;"><text transform="translate(3,16)" style="text-anchor: start; font-family: Roboto, sans-serif; font-size: 12px; font-weight: 200;" fill="rgb(33, 33, 33)" stroke="none" stroke-width="1px">06 AM</text></g><g transform="translate(1592.0464409722224,0)" style="visibility: inherit;"><text transform="translate(3,16)" style="text-anchor: start; font-family: Roboto, sans-serif; font-size: 12px; font-weight: 200;" fill="rgb(33, 33, 33)" stroke="none" stroke-width="1px">09 AM</text></g><g transform="translate(1643.4027777777776,0)" style="visibility: inherit;"><text transform="translate(3,16)" style="text-anchor: start; font-family: Roboto, sans-serif; font-size: 12px; font-weight: 200;" fill="rgb(33, 33, 33)" stroke="none" stroke-width="1px">12 PM</text></g><g transform="translate(1694.7591145833333,0)" style="visibility: inherit;"><text transform="translate(3,16)" style="text-anchor: start; font-family: Roboto, sans-serif; font-size: 12px; font-weight: 200;" fill="rgb(33, 33, 33)" stroke="none" stroke-width="1px">03 PM</text></g><g transform="translate(1746.115451388889,0)" style="visibility: inherit;"><text transform="translate(3,16)" style="text-anchor: start; font-family: Roboto, sans-serif; font-size: 12px; font-weight: 200;" fill="rgb(33, 33, 33)" stroke="none" stroke-width="1px">06 PM</text></g><g transform="translate(1797.4717881944443,0)" style="visibility: inherit;"><text transform="translate(3,16)" style="text-anchor: start; font-family: Roboto, sans-serif; font-size: 12px; font-weight: 200;" fill="rgb(33, 33, 33)" stroke="none" stroke-width="1px">09 PM</text></g><g transform="translate(1848.828125,0)" style="visibility: hidden;"><text transform="translate(3,16)" style="text-anchor: start; font-family: Roboto, sans-serif; font-size: 12px; font-weight: 200;" fill="rgb(33, 33, 33)" stroke="none" stroke-width="1px">12 AM</text></g></g><g><line x1="0" y1="0" x2="0" y2="19" fill="rgb(0, 0, 0)" stroke="rgb(204, 204, 204)" stroke-width="1px"></line><line x1="51.35633680555555" y1="0" x2="51.35633680555555" y2="19" fill="rgb(0, 0, 0)" stroke="rgb(204, 204, 204)" stroke-width="1px"></line><line x1="102.7126736111111" y1="0" x2="102.7126736111111" y2="19" fill="rgb(0, 0, 0)" stroke="rgb(204, 204, 204)" stroke-width="1px"></line><line x1="154.06901041666666" y1="0" x2="154.06901041666666" y2="19" fill="rgb(0, 0, 0)" stroke="rgb(204, 204, 204)" stroke-width="1px"></line><line x1="205.4253472222222" y1="0" x2="205.4253472222222" y2="19" fill="rgb(0, 0, 0)" stroke="rgb(204, 204, 204)" stroke-width="1px"></line><line x1="256.78168402777777" y1="0" x2="256.78168402777777" y2="19" fill="rgb(0, 0, 0)" stroke="rgb(204, 204, 204)" stroke-width="1px"></line><line x1="308.1380208333333" y1="0" x2="308.1380208333333" y2="19" fill="rgb(0, 0, 0)" stroke="rgb(204, 204, 204)" stroke-width="1px"></line><line x1="359.4943576388889" y1="0" x2="359.4943576388889" y2="19" fill="rgb(0, 0, 0)" stroke="rgb(204, 204, 204)" stroke-width="1px"></line><line x1="410.8506944444444" y1="0" x2="410.8506944444444" y2="19" fill="rgb(0, 0, 0)" stroke="rgb(204, 204, 204)" stroke-width="1px"></line><line x1="462.20703125" y1="0" x2="462.20703125" y2="19" fill="rgb(0, 0, 0)" stroke="rgb(204, 204, 204)" stroke-width="1px"></line><line x1="513.5633680555555" y1="0" x2="513.5633680555555" y2="19" fill="rgb(0, 0, 0)" stroke="rgb(204, 204, 204)" stroke-width="1px"></line><line x1="564.9197048611112" y1="0" x2="564.9197048611112" y2="19" fill="rgb(0, 0, 0)" stroke="rgb(204, 204, 204)" stroke-width="1px"></line><line x1="616.2760416666666" y1="0" x2="616.2760416666666" y2="19" fill="rgb(0, 0, 0)" stroke="rgb(204, 204, 204)" stroke-width="1px"></line><line x1="667.6323784722222" y1="0" x2="667.6323784722222" y2="19" fill="rgb(0, 0, 0)" stroke="rgb(204, 204, 204)" stroke-width="1px"></line><line x1="718.9887152777778" y1="0" x2="718.9887152777778" y2="19" fill="rgb(0, 0, 0)" stroke="rgb(204, 204, 204)" stroke-width="1px"></line><line x1="770.3450520833334" y1="0" x2="770.3450520833334" y2="19" fill="rgb(0, 0, 0)" stroke="rgb(204, 204, 204)" stroke-width="1px"></line><line x1="821.7013888888888" y1="0" x2="821.7013888888888" y2="19" fill="rgb(0, 0, 0)" stroke="rgb(204, 204, 204)" stroke-width="1px"></line><line x1="873.0577256944445" y1="0" x2="873.0577256944445" y2="19" fill="rgb(0, 0, 0)" stroke="rgb(204, 204, 204)" stroke-width="1px"></line><line x1="924.4140625" y1="0" x2="924.4140625" y2="19" fill="rgb(0, 0, 0)" stroke="rgb(204, 204, 204)" stroke-width="1px"></line><line x1="975.7703993055555" y1="0" x2="975.7703993055555" y2="19" fill="rgb(0, 0, 0)" stroke="rgb(204, 204, 204)" stroke-width="1px"></line><line x1="1027.126736111111" y1="0" x2="1027.126736111111" y2="19" fill="rgb(0, 0, 0)" stroke="rgb(204, 204, 204)" stroke-width="1px"></line><line x1="1078.4830729166667" y1="0" x2="1078.4830729166667" y2="19" fill="rgb(0, 0, 0)" stroke="rgb(204, 204, 204)" stroke-width="1px"></line><line x1="1129.8394097222224" y1="0" x2="1129.8394097222224" y2="19" fill="rgb(0, 0, 0)" stroke="rgb(204, 204, 204)" stroke-width="1px"></line><line x1="1181.1957465277776" y1="0" x2="1181.1957465277776" y2="19" fill="rgb(0, 0, 0)" stroke="rgb(204, 204, 204)" stroke-width="1px"></line><line x1="1232.5520833333333" y1="0" x2="1232.5520833333333" y2="19" fill="rgb(0, 0, 0)" stroke="rgb(204, 204, 204)" stroke-width="1px"></line><line x1="1283.908420138889" y1="0" x2="1283.908420138889" y2="19" fill="rgb(0, 0, 0)" stroke="rgb(204, 204, 204)" stroke-width="1px"></line><line x1="1335.2647569444443" y1="0" x2="1335.2647569444443" y2="19" fill="rgb(0, 0, 0)" stroke="rgb(204, 204, 204)" stroke-width="1px"></line><line x1="1386.62109375" y1="0" x2="1386.62109375" y2="19" fill="rgb(0, 0, 0)" stroke="rgb(204, 204, 204)" stroke-width="1px"></line><line x1="1437.9774305555557" y1="0" x2="1437.9774305555557" y2="19" fill="rgb(0, 0, 0)" stroke="rgb(204, 204, 204)" stroke-width="1px"></line><line x1="1489.333767361111" y1="0" x2="1489.333767361111" y2="19" fill="rgb(0, 0, 0)" stroke="rgb(204, 204, 204)" stroke-width="1px"></line><line x1="1540.6901041666667" y1="0" x2="1540.6901041666667" y2="19" fill="rgb(0, 0, 0)" stroke="rgb(204, 204, 204)" stroke-width="1px"></line><line x1="1592.0464409722224" y1="0" x2="1592.0464409722224" y2="19" fill="rgb(0, 0, 0)" stroke="rgb(204, 204, 204)" stroke-width="1px"></line><line x1="1643.4027777777776" y1="0" x2="1643.4027777777776" y2="19" fill="rgb(0, 0, 0)" stroke="rgb(204, 204, 204)" stroke-width="1px"></line><line x1="1694.7591145833333" y1="0" x2="1694.7591145833333" y2="19" fill="rgb(0, 0, 0)" stroke="rgb(204, 204, 204)" stroke-width="1px"></line><line x1="1746.115451388889" y1="0" x2="1746.115451388889" y2="19" fill="rgb(0, 0, 0)" stroke="rgb(204, 204, 204)" stroke-width="1px"></line><line x1="1797.4717881944443" y1="0" x2="1797.4717881944443" y2="19" fill="rgb(0, 0, 0)" stroke="rgb(204, 204, 204)" stroke-width="1px"></line><line x1="1848.828125" y1="0" x2="1848.828125" y2="19" fill="rgb(0, 0, 0)" stroke="rgb(204, 204, 204)" stroke-width="1px"></line></g><line x1="0" y1="0" x2="1848.828125" y2="0" style="visibility: inherit;" fill="rgb(0, 0, 0)" stroke="rgb(204, 204, 204)" stroke-width="1px"></line></g><g visibility="inherit"><g><g transform="translate(102.7126736111111,0)" style="visibility: inherit;"><text transform="translate(0,35)" style="text-anchor: middle; font-family: Roboto, sans-serif; font-size: 12px; font-weight: 200;" fill="rgb(33, 33, 33)" stroke="none" stroke-width="1px">December 14, 2021</text></g><g transform="translate(410.8506944444444,0)" style="visibility: inherit;"><text transform="translate(0,35)" style="text-anchor: middle; font-family: Roboto, sans-serif; font-size: 12px; font-weight: 200;" fill="rgb(33, 33, 33)" stroke="none" stroke-width="1px">December 15, 2021</text></g><g transform="translate(821.7013888888888,0)" style="visibility: inherit;"><text transform="translate(0,35)" style="text-anchor: middle; font-family: Roboto, sans-serif; font-size: 12px; font-weight: 200;" fill="rgb(33, 33, 33)" stroke="none" stroke-width="1px">December 16, 2021</text></g><g transform="translate(1232.5520833333333,0)" style="visibility: inherit;"><text transform="translate(0,35)" style="text-anchor: middle; font-family: Roboto, sans-serif; font-size: 12px; font-weight: 200;" fill="rgb(33, 33, 33)" stroke="none" stroke-width="1px">December 17, 2021</text></g><g transform="translate(1643.4027777777776,0)" style="visibility: inherit;"><text transform="translate(0,35)" style="text-anchor: middle; font-family: Roboto, sans-serif; font-size: 12px; font-weight: 200;" fill="rgb(33, 33, 33)" stroke="none" stroke-width="1px">December 18, 2021</text></g></g><g><line x1="0" y1="19" x2="0" y2="38" fill="rgb(0, 0, 0)" stroke="rgb(204, 204, 204)" stroke-width="1px"></line><line x1="205.4253472222222" y1="19" x2="205.4253472222222" y2="38" fill="rgb(0, 0, 0)" stroke="rgb(204, 204, 204)" stroke-width="1px"></line><line x1="616.2760416666666" y1="19" x2="616.2760416666666" y2="38" fill="rgb(0, 0, 0)" stroke="rgb(204, 204, 204)" stroke-width="1px"></line><line x1="1027.126736111111" y1="19" x2="1027.126736111111" y2="38" fill="rgb(0, 0, 0)" stroke="rgb(204, 204, 204)" stroke-width="1px"></line><line x1="1437.9774305555557" y1="19" x2="1437.9774305555557" y2="38" fill="rgb(0, 0, 0)" stroke="rgb(204, 204, 204)" stroke-width="1px"></line><line x1="1848.828125" y1="19" x2="1848.828125" y2="38" fill="rgb(0, 0, 0)" stroke="rgb(204, 204, 204)" stroke-width="1px"></line></g><line x1="0" y1="19" x2="1848.828125" y2="19" style="visibility: inherit;" fill="rgb(0, 0, 0)" stroke="rgb(204, 204, 204)" stroke-width="1px"></line></g></g></g></g></g></svg>